<svg version="1.1" viewBox="0.0 0.0 601.6167979002624 431.2834645669291" fill="none" stroke="none" stroke-linecap="square" stroke-miterlimit="10" xmlns:xlink="http://www.w3.org/1999/xlink" xmlns="http://www.w3.org/2000/svg"><clipPath id="p.0"><path d="m0 0l601.6168 0l0 431.28348l-601.6168 0l0 -431.28348z" clip-rule="nonzero"/></clipPath><g clip-path="url(#p.0)"><path fill="#000000" fill-opacity="0.0" d="m0 0l601.6168 0l0 431.28348l-601.6168 0z" fill-rule="evenodd"/><path fill="#ffffff" d="m0.35170603 0.33464566l600.9134 0l0 430.61417l-600.9134 0z" fill-rule="evenodd"/><path stroke="#000000" stroke-width="1.0" stroke-linejoin="round" stroke-linecap="butt" d="m0.35170603 0.33464566l600.9134 0l0 430.61417l-600.9134 0z" fill-rule="evenodd"/><path fill="#e69138" d="m43.811577 256.1496l0 0c-4.305214 0 -7.7952766 -3.3560944 -7.7952766 -7.496063l0 0c0 -1.9880829 0.82128525 -3.8947296 2.283184 -5.300522c1.461895 -1.405777 3.4446564 -2.1955414 5.5120926 -2.1955414l0 0c4.30521 0 7.795273 3.3561096 7.795273 7.496063l0 0c0 4.139969 -3.4900627 7.496063 -7.795273 7.496063z" fill-rule="evenodd"/><path stroke="#595959" stroke-width="1.0" stroke-linejoin="round" stroke-linecap="butt" d="m43.811577 256.1496l0 0c-4.305214 0 -7.7952766 -3.3560944 -7.7952766 -7.496063l0 0c0 -1.9880829 0.82128525 -3.8947296 2.283184 -5.300522c1.461895 -1.405777 3.4446564 -2.1955414 5.5120926 -2.1955414l0 0c4.30521 0 7.795273 3.3561096 7.795273 7.496063l0 0c0 4.139969 -3.4900627 7.496063 -7.795273 7.496063z" fill-rule="evenodd"/><path fill="#e69138" d="m43.811577 197.14566l0 0c-4.305214 0 -7.7952766 -3.3560944 -7.7952766 -7.496063l0 0c0 -1.9880829 0.82128525 -3.8947296 2.283184 -5.300522c1.461895 -1.405777 3.4446564 -2.1955414 5.5120926 -2.1955414l0 0c4.30521 0 7.795273 3.3561096 7.795273 7.496063l0 0c0 4.139969 -3.4900627 7.496063 -7.795273 7.496063z" fill-rule="evenodd"/><path stroke="#595959" stroke-width="1.0" stroke-linejoin="round" stroke-linecap="butt" d="m43.811577 197.14566l0 0c-4.305214 0 -7.7952766 -3.3560944 -7.7952766 -7.496063l0 0c0 -1.9880829 0.82128525 -3.8947296 2.283184 -5.300522c1.461895 -1.405777 3.4446564 -2.1955414 5.5120926 -2.1955414l0 0c4.30521 0 7.795273 3.3561096 7.795273 7.496063l0 0c0 4.139969 -3.4900627 7.496063 -7.795273 7.496063z" fill-rule="evenodd"/><path fill="#e69138" d="m43.811577 130.64566l0 0c-4.305214 0 -7.7952766 -3.356102 -7.7952766 -7.496063l0 0c0 -1.9880753 0.82128525 -3.8947296 2.283184 -5.300514c1.461895 -1.4057846 3.4446564 -2.195549 5.5120926 -2.195549l0 0c4.30521 0 7.795273 3.356102 7.795273 7.496063l0 0c0 4.1399612 -3.4900627 7.496063 -7.795273 7.496063z" fill-rule="evenodd"/><path stroke="#595959" stroke-width="1.0" stroke-linejoin="round" stroke-linecap="butt" d="m43.811577 130.64566l0 0c-4.305214 0 -7.7952766 -3.356102 -7.7952766 -7.496063l0 0c0 -1.9880753 0.82128525 -3.8947296 2.283184 -5.300514c1.461895 -1.4057846 3.4446564 -2.195549 5.5120926 -2.195549l0 0c4.30521 0 7.795273 3.356102 7.795273 7.496063l0 0c0 4.1399612 -3.4900627 7.496063 -7.795273 7.496063z" fill-rule="evenodd"/><g filter="url(#shadowFilter-p.1)"><use xlink:href="#p.1" transform="matrix(1.0 0.0 0.0 1.0 0.0 2.0)"/></g><defs><filter id="shadowFilter-p.1" filterUnits="userSpaceOnUse"><feGaussianBlur in="SourceAlpha" stdDeviation="2.0" result="blur"/><feComponentTransfer in="blur" color-interpolation-filters="sRGB"><feFuncR type="linear" slope="0" intercept="0.0"/><feFuncG type="linear" slope="0" intercept="0.0"/><feFuncB type="linear" slope="0" intercept="0.0"/><feFuncA type="linear" slope="0.5" intercept="0"/></feComponentTransfer></filter></defs><g id="p.1"><path fill="#000000" fill-opacity="0.0" d="m235.80843 332.97638l0 0c-81.49461 0 -147.55905 -64.80942 -147.55905 -144.7559l0 0c0 -38.391647 15.546356 -75.210884 43.219048 -102.35789c27.672684 -27.146996 65.20491 -42.39802 104.34001 -42.39802l0 0c81.49461 0 147.55907 64.80943 147.55907 144.7559l0 0c0 79.94649 -66.06445 144.7559 -147.55907 144.7559z" fill-rule="evenodd"/><path stroke="#595959" stroke-width="1.3333333333333333" stroke-linejoin="round" stroke-linecap="butt" d="m235.80843 334.30972l0 0c-10.254532 0 -20.331772 -1.026062 -30.000717 -2.9670105c-9.670959 -1.9413757 -19.061218 -4.8234863 -27.94693 -8.510437c-8.886856 -3.6874084 -17.387802 -8.228912 -25.290619 -13.466522c-7.903366 -5.237976 -15.314545 -11.24234 -22.035477 -17.835602c-6.721092 -6.593384 -12.842606 -13.864838 -18.182678 -21.619019c-5.3399277 -7.753998 -9.971313 -16.09697 -13.731094 -24.81723c-3.75943 -8.719437 -6.6992493 -17.93721 -8.678909 -27.427795c-1.9792786 -9.488739 -3.0259705 -19.381989 -3.0259705 -29.445633l0 0c0 -4.8328705 0.24633026 -9.674423 0.72882843 -14.441605c0.4825287 -4.7674255 1.2079697 -9.527054 2.159523 -14.19696c0.95157623 -4.670044 2.1425323 -9.315491 3.5496674 -13.856216c1.4071426 -4.540756 3.0500107 -9.039902 4.899254 -13.419556c1.8492203 -4.3796005 3.9304123 -8.700356 6.2082825 -12.887062c2.2778015 -4.186592 4.7837067 -8.296898 7.4767303 -12.258797c2.6929016 -3.961731 5.6099014 -7.829483 8.704597 -11.534714c3.0944977 -3.705017 6.4089355 -7.2980957 9.891769 -10.714783c3.4828033 -3.4166336 7.1451874 -6.6678543 10.921692 -9.703377c3.776657 -3.0356293 7.7184143 -5.8965607 11.756302 -8.537949c4.037979 -2.6414413 8.226334 -5.098835 12.493118 -7.3329124c4.2668 -2.234085 8.669067 -4.2747307 13.132278 -6.0883408c4.4631805 -1.8135872 9.046722 -3.424286 13.673935 -4.8042603c4.6271057 -1.37994 9.359299 -2.547474 14.1180725 -3.480648c4.7585907 -0.9331322 9.606796 -1.6442642 14.464676 -2.117443c4.8576355 -0.47315598 9.789169 -0.7146187 14.713669 -0.7146187l0 0c10.254517 0 20.331772 1.0260353 30.000717 2.9670029c9.670959 1.9413719 19.061188 4.823494 27.94693 8.510441c8.886841 3.687416 17.387787 8.228909 25.290619 13.466518c7.903351 5.2379837 15.314545 11.24234 22.035461 17.835587c6.7211304 6.593422 12.842621 13.864861 18.182678 21.619041c5.339966 7.75399 9.971344 16.096962 13.73111 24.817223c3.75943 8.719437 6.6992493 17.93721 8.678925 27.427795c1.979248 9.488739 3.0259705 19.381973 3.0259705 29.445633l0 0c0 10.063644 -1.0467224 19.956894 -3.0259705 29.445633c-1.9796753 9.490585 -4.9194946 18.708359 -8.678925 27.427795c-3.7597656 8.720261 -8.391144 17.063232 -13.73111 24.81723c-5.3400574 7.754181 -11.461548 15.025635 -18.182678 21.619019c-6.7209167 6.5932617 -14.132111 12.597626 -22.035461 17.835602c-7.902832 5.23761 -16.403778 9.779114 -25.290619 13.466522c-8.885742 3.6869507 -18.27597 6.5690613 -27.94693 8.510437c-9.668945 1.9409485 -19.7462 2.9670105 -30.000717 2.9670105z" fill-rule="nonzero"/><path stroke="#595959" stroke-width="1.3333333333333333" stroke-linejoin="round" stroke-linecap="butt" d="m235.80843 331.64304l0 0c-10.119125 0 -19.933365 -0.9992676 -29.475876 -2.9148254c-9.540527 -1.9151917 -18.681778 -4.720886 -27.449768 -8.359009c-8.766876 -3.6376343 -17.041885 -8.058411 -24.839447 -13.226257c-7.7970123 -5.1674805 -15.010666 -11.01181 -21.641205 -17.516388c-6.630371 -6.504425 -12.586967 -13.579956 -17.853874 -21.227936c-5.267044 -7.6481323 -9.771484 -15.762405 -13.478592 -24.360504c-3.7074738 -8.598938 -6.565613 -17.560623 -8.517181 -26.916534c-1.9519653 -9.357803 -2.9697876 -18.978134 -2.9697876 -28.901108l0 0c0 -4.7650757 0.23950195 -9.472275 0.7152786 -14.173065c0.4757614 -4.700592 1.181076 -9.328186 2.1193848 -13.933075c0.93827057 -4.604767 2.0962753 -9.121689 3.4838562 -13.599289c1.3875656 -4.477585 2.985138 -8.852692 4.8087387 -13.171616c1.823616 -4.3189697 3.8476639 -8.52108 6.0940475 -12.64991c2.246437 -4.1289444 4.683815 -8.126846 7.3397293 -12.034157c2.6560287 -3.907486 5.4936447 -7.6699753 8.545868 -11.324356c3.0524216 -3.6546326 6.277214 -7.1505356 9.712532 -10.520615c3.435379 -3.3701096 6.999283 -6.53389 10.724899 -9.528519c3.7255096 -2.9945068 7.561737 -5.778862 11.545456 -8.384811c3.9836426 -2.605896 8.060486 -4.9978676 12.270264 -7.202091c4.2097626 -2.204216 8.495422 -4.1908073 12.8992 -5.9802704c4.403839 -1.7894707 8.866425 -3.3576698 13.432175 -4.7193108c4.5658417 -1.3616714 9.173477 -2.498478 13.869095 -3.4192657c4.6957855 -0.9208183 9.416611 -1.6132622 14.210068 -2.0801659c4.793686 -0.46692657 9.595886 -0.7020569 14.455139 -0.7020569l0 0c10.11911 0 19.93335 0.99925613 29.475876 2.9148445c9.540527 1.9151878 18.681763 4.7208824 27.449768 8.358986c8.766876 3.6376305 17.04187 8.058418 24.839447 13.226273c7.796997 5.1674957 15.010651 11.01181 21.641205 17.516388c6.630371 6.504425 12.586975 13.579971 17.853851 21.22792c5.26709 7.64814 9.771515 15.762436 13.478607 24.36052c3.7074585 8.598938 6.565613 17.560623 8.517212 26.916534c1.9519348 9.357788 2.969757 18.978134 2.969757 28.901108l0 0c0 9.922974 -1.0178223 19.543304 -2.969757 28.901108c-1.9515991 9.355911 -4.8097534 18.317596 -8.517212 26.916534c-3.7070923 8.598099 -8.211517 16.712372 -13.478607 24.360504c-5.266876 7.6479797 -11.22348 14.723511 -17.853851 21.227936c-6.630554 6.5045776 -13.844208 12.348907 -21.641205 17.516388c-7.797577 5.1678467 -16.07257 9.588623 -24.839447 13.226257c-8.768005 3.6381226 -17.90924 6.443817 -27.449768 8.359009c-9.542526 1.9155579 -19.356766 2.9148254 -29.475876 2.9148254z" fill-rule="nonzero"/></g><path fill="#efefef" d="m310.87097 224.91339l0 0c-12.367676 0 -22.393677 -13.036621 -22.393677 -29.118118l0 0c0 -16.081482 10.026001 -29.118103 22.393677 -29.118103l0 0c12.367706 0 22.393707 13.036621 22.393707 29.118103l0 0c0 16.081497 -10.026001 29.118118 -22.393707 29.118118z" fill-rule="evenodd"/><path stroke="#595959" stroke-width="1.0" stroke-linejoin="round" stroke-linecap="butt" d="m310.87097 224.91339l0 0c-12.367676 0 -22.393677 -13.036621 -22.393677 -29.118118l0 0c0 -16.081482 10.026001 -29.118103 22.393677 -29.118103l0 0c12.367706 0 22.393707 13.036621 22.393707 29.118103l0 0c0 16.081497 -10.026001 29.118118 -22.393707 29.118118z" fill-rule="evenodd"/><path fill="#f1c232" d="m104.84632 263.66098l0 0c-4.305214 0 -7.7952805 -3.3561096 -7.7952805 -7.496063l0 0c0 -1.9880676 0.82128906 -3.8947296 2.2831879 -5.3005066c1.4618912 -1.4057922 3.4446564 -2.1955566 5.5120926 -2.1955566l0 0c4.3052063 0 7.795273 3.3561096 7.795273 7.496063l0 0c0 4.1399536 -3.4900665 7.496063 -7.795273 7.496063z" fill-rule="evenodd"/><path stroke="#595959" stroke-width="1.0" stroke-linejoin="round" stroke-linecap="butt" d="m104.84632 263.66098l0 0c-4.305214 0 -7.7952805 -3.3561096 -7.7952805 -7.496063l0 0c0 -1.9880676 0.82128906 -3.8947296 2.2831879 -5.3005066c1.4618912 -1.4057922 3.4446564 -2.1955566 5.5120926 -2.1955566l0 0c4.3052063 0 7.795273 3.3561096 7.795273 7.496063l0 0c0 4.1399536 -3.4900665 7.496063 -7.795273 7.496063z" fill-rule="evenodd"/><path fill="#f1c232" d="m89.253296 203.23169l0 0c-4.305214 0 -7.7952805 -3.3560944 -7.7952805 -7.496063l0 0c0 -1.9880829 0.82128906 -3.8947296 2.2831879 -5.300522c1.4618988 -1.405777 3.4446564 -2.1955414 5.5120926 -2.1955414l0 0c4.3052063 0 7.795273 3.3561096 7.795273 7.496063l0 0c0 4.139969 -3.4900665 7.496063 -7.795273 7.496063z" fill-rule="evenodd"/><path stroke="#595959" stroke-width="1.0" stroke-linejoin="round" stroke-linecap="butt" d="m89.253296 203.23169l0 0c-4.305214 0 -7.7952805 -3.3560944 -7.7952805 -7.496063l0 0c0 -1.9880829 0.82128906 -3.8947296 2.2831879 -5.300522c1.4618988 -1.405777 3.4446564 -2.1955414 5.5120926 -2.1955414l0 0c4.3052063 0 7.795273 3.3561096 7.795273 7.496063l0 0c0 4.139969 -3.4900665 7.496063 -7.795273 7.496063z" fill-rule="evenodd"/><path fill="#f1c232" d="m100.24195 138.15706l0 0c-4.3052063 0 -7.795273 -3.3561096 -7.795273 -7.496063l0 0c0 -1.9880829 0.82128143 -3.8947372 2.2831802 -5.300522c1.4618988 -1.4057846 3.4446564 -2.195549 5.5120926 -2.195549l0 0c4.305214 0 7.7952805 3.356102 7.7952805 7.496071l0 0c0 4.1399536 -3.4900665 7.496063 -7.7952805 7.496063z" fill-rule="evenodd"/><path stroke="#595959" stroke-width="1.0" stroke-linejoin="round" stroke-linecap="butt" d="m100.24195 138.15706l0 0c-4.3052063 0 -7.795273 -3.3561096 -7.795273 -7.496063l0 0c0 -1.9880829 0.82128143 -3.8947372 2.2831802 -5.300522c1.4618988 -1.4057846 3.4446564 -2.195549 5.5120926 -2.195549l0 0c4.305214 0 7.7952805 3.356102 7.7952805 7.496071l0 0c0 4.1399536 -3.4900665 7.496063 -7.7952805 7.496063z" fill-rule="evenodd"/><path fill="#3c78d8" d="m142.68547 229.19315l0 0c-4.3052063 0 -7.795273 -3.3561096 -7.795273 -7.496063l0 0c0 -1.9880829 0.82128906 -3.8947296 2.2831879 -5.300522c1.4618988 -1.405777 3.4446564 -2.1955414 5.512085 -2.1955414l0 0c4.3052216 0 7.795288 3.3560944 7.795288 7.496063l0 0c0 4.1399536 -3.4900665 7.496063 -7.795288 7.496063z" fill-rule="evenodd"/><path stroke="#595959" stroke-width="1.0" stroke-linejoin="round" stroke-linecap="butt" d="m142.68547 229.19315l0 0c-4.3052063 0 -7.795273 -3.3561096 -7.795273 -7.496063l0 0c0 -1.9880829 0.82128906 -3.8947296 2.2831879 -5.300522c1.4618988 -1.405777 3.4446564 -2.1955414 5.512085 -2.1955414l0 0c4.3052216 0 7.795288 3.3560944 7.795288 7.496063l0 0c0 4.1399536 -3.4900665 7.496063 -7.795288 7.496063z" fill-rule="evenodd"/><path fill="#3c78d8" d="m137.93993 180.68726l0 0c-4.3052063 0 -7.795273 -3.3560944 -7.795273 -7.496063l0 0c0 -1.9880829 0.82128906 -3.8947296 2.2831879 -5.300522c1.4618988 -1.405777 3.4446564 -2.1955414 5.512085 -2.1955414l0 0c4.3052216 0 7.795273 3.3561096 7.795273 7.496063l0 0c0 4.139969 -3.4900513 7.496063 -7.795273 7.496063z" fill-rule="evenodd"/><path stroke="#595959" stroke-width="1.0" stroke-linejoin="round" stroke-linecap="butt" d="m137.93993 180.68726l0 0c-4.3052063 0 -7.795273 -3.3560944 -7.795273 -7.496063l0 0c0 -1.9880829 0.82128906 -3.8947296 2.2831879 -5.300522c1.4618988 -1.405777 3.4446564 -2.1955414 5.512085 -2.1955414l0 0c4.3052216 0 7.795273 3.3561096 7.795273 7.496063l0 0c0 4.139969 -3.4900513 7.496063 -7.795273 7.496063z" fill-rule="evenodd"/><path fill="#cc0000" d="m359.0112 220.58983l0 0c-4.3052063 0 -7.7952576 -3.3560944 -7.7952576 -7.496063l0 0c0 -1.9880829 0.82128906 -3.8947296 2.2831726 -5.300522c1.4618835 -1.405777 3.4446716 -2.1955414 5.512085 -2.1955414l0 0c4.3052063 0 7.795288 3.3561096 7.795288 7.496063l0 0c0 4.139969 -3.4900818 7.496063 -7.795288 7.496063z" fill-rule="evenodd"/><path stroke="#595959" stroke-width="1.0" stroke-linejoin="round" stroke-linecap="butt" d="m359.0112 220.58983l0 0c-4.3052063 0 -7.7952576 -3.3560944 -7.7952576 -7.496063l0 0c0 -1.9880829 0.82128906 -3.8947296 2.2831726 -5.300522c1.4618835 -1.405777 3.4446716 -2.1955414 5.512085 -2.1955414l0 0c4.3052063 0 7.795288 3.3561096 7.795288 7.496063l0 0c0 4.139969 -3.4900818 7.496063 -7.795288 7.496063z" fill-rule="evenodd"/><path fill="#cc0000" d="m335.14145 261.98557l0 0c-4.3052063 0 -7.7952576 -3.3561096 -7.7952576 -7.4960785l0 0c0 -1.9880676 0.82128906 -3.8947296 2.2831726 -5.3005066c1.4619141 -1.4057922 3.4446716 -2.1955566 5.512085 -2.1955566l0 0c4.305237 0 7.795288 3.3561096 7.795288 7.496063l0 0c0 4.139969 -3.4900513 7.4960785 -7.795288 7.4960785z" fill-rule="evenodd"/><path stroke="#595959" stroke-width="1.0" stroke-linejoin="round" stroke-linecap="butt" d="m335.14145 261.98557l0 0c-4.3052063 0 -7.7952576 -3.3561096 -7.7952576 -7.4960785l0 0c0 -1.9880676 0.82128906 -3.8947296 2.2831726 -5.3005066c1.4619141 -1.4057922 3.4446716 -2.1955566 5.512085 -2.1955566l0 0c4.305237 0 7.795288 3.3561096 7.795288 7.496063l0 0c0 4.139969 -3.4900513 7.4960785 -7.795288 7.4960785z" fill-rule="evenodd"/><path fill="#3c78d8" d="m174.60493 231.40369l0 0c-4.3052216 0 -7.795273 -3.3560944 -7.795273 -7.496063l0 0c0 -1.9880829 0.8212738 -3.8947296 2.2831726 -5.300522c1.4618988 -1.405777 3.4446564 -2.1955414 5.5121 -2.1955414l0 0c4.3052063 0 7.795273 3.3561096 7.795273 7.496063l0 0c0 4.139969 -3.4900665 7.496063 -7.795273 7.496063z" fill-rule="evenodd"/><path stroke="#595959" stroke-width="1.0" stroke-linejoin="round" stroke-linecap="butt" d="m174.60493 231.40369l0 0c-4.3052216 0 -7.795273 -3.3560944 -7.795273 -7.496063l0 0c0 -1.9880829 0.8212738 -3.8947296 2.2831726 -5.300522c1.4618988 -1.405777 3.4446564 -2.1955414 5.5121 -2.1955414l0 0c4.3052063 0 7.795273 3.3561096 7.795273 7.496063l0 0c0 4.139969 -3.4900665 7.496063 -7.795273 7.496063z" fill-rule="evenodd"/><path fill="#3c78d8" d="m174.60619 167.88968l0 0c-4.3052063 0 -7.795273 -3.3561096 -7.795273 -7.496063l0 0c0 -1.9880829 0.82128906 -3.8947449 2.2831879 -5.300522c1.4618988 -1.4057922 3.4446564 -2.1955414 5.512085 -2.1955414l0 0c4.3052063 0 7.795273 3.3560944 7.795273 7.496063l0 0c0 4.1399536 -3.4900665 7.496063 -7.795273 7.496063z" fill-rule="evenodd"/><path stroke="#595959" stroke-width="1.0" stroke-linejoin="round" stroke-linecap="butt" d="m174.60619 167.88968l0 0c-4.3052063 0 -7.795273 -3.3561096 -7.795273 -7.496063l0 0c0 -1.9880829 0.82128906 -3.8947449 2.2831879 -5.300522c1.4618988 -1.4057922 3.4446564 -2.1955414 5.512085 -2.1955414l0 0c4.3052063 0 7.795273 3.3560944 7.795273 7.496063l0 0c0 4.1399536 -3.4900665 7.496063 -7.795273 7.496063z" fill-rule="evenodd"/><path fill="#6aa84f" d="m262.73676 222.51073l0 0c-4.305237 0 -7.795288 -3.3561096 -7.795288 -7.496063l0 0c0 -1.9880829 0.82128906 -3.8947296 2.2831726 -5.300522c1.4619141 -1.405777 3.4446716 -2.1955414 5.5121155 -2.1955414l0 0c4.3052063 0 7.7952576 3.3560944 7.7952576 7.496063l0 0c0 4.1399536 -3.4900513 7.496063 -7.7952576 7.496063z" fill-rule="evenodd"/><path stroke="#595959" stroke-width="1.0" stroke-linejoin="round" stroke-linecap="butt" d="m262.73676 222.51073l0 0c-4.305237 0 -7.795288 -3.3561096 -7.795288 -7.496063l0 0c0 -1.9880829 0.82128906 -3.8947296 2.2831726 -5.300522c1.4619141 -1.405777 3.4446716 -2.1955414 5.5121155 -2.1955414l0 0c4.3052063 0 7.7952576 3.3560944 7.7952576 7.496063l0 0c0 4.1399536 -3.4900513 7.496063 -7.7952576 7.496063z" fill-rule="evenodd"/><path fill="#3c78d8" d="m186.5882 201.30766l0 0c-4.3052216 0 -7.795273 -3.3560944 -7.795273 -7.496063l0 0c0 -1.9880829 0.8212738 -3.8947296 2.2831726 -5.300522c1.4618988 -1.405777 3.4446564 -2.1955414 5.5121 -2.1955414l0 0c4.3052063 0 7.795273 3.3561096 7.795273 7.496063l0 0c0 4.139969 -3.4900665 7.496063 -7.795273 7.496063z" fill-rule="evenodd"/><path stroke="#595959" stroke-width="1.0" stroke-linejoin="round" stroke-linecap="butt" d="m186.5882 201.30766l0 0c-4.3052216 0 -7.795273 -3.3560944 -7.795273 -7.496063l0 0c0 -1.9880829 0.8212738 -3.8947296 2.2831726 -5.300522c1.4618988 -1.405777 3.4446564 -2.1955414 5.5121 -2.1955414l0 0c4.3052063 0 7.795273 3.3561096 7.795273 7.496063l0 0c0 4.139969 -3.4900665 7.496063 -7.795273 7.496063z" fill-rule="evenodd"/><path fill="#6aa84f" d="m262.73676 191.3036l0 0c-4.305237 0 -7.795288 -3.3560944 -7.795288 -7.496063l0 0c0 -1.9880676 0.82128906 -3.8947296 2.2831726 -5.3005066c1.4619141 -1.4057922 3.4446716 -2.1955566 5.5121155 -2.1955566l0 0c4.3052063 0 7.7952576 3.3561096 7.7952576 7.496063l0 0c0 4.139969 -3.4900513 7.496063 -7.7952576 7.496063z" fill-rule="evenodd"/><path stroke="#595959" stroke-width="1.0" stroke-linejoin="round" stroke-linecap="butt" d="m262.73676 191.3036l0 0c-4.305237 0 -7.795288 -3.3560944 -7.795288 -7.496063l0 0c0 -1.9880676 0.82128906 -3.8947296 2.2831726 -5.3005066c1.4619141 -1.4057922 3.4446716 -2.1955566 5.5121155 -2.1955566l0 0c4.3052063 0 7.7952576 3.3561096 7.7952576 7.496063l0 0c0 4.139969 -3.4900513 7.496063 -7.7952576 7.496063z" fill-rule="evenodd"/><path fill="#cc0000" d="m364.5909 183.49734l0 0c-4.3052063 0 -7.7952576 -3.3561096 -7.7952576 -7.496063l0 0c0 -1.9880829 0.82125854 -3.8947449 2.2831726 -5.300522c1.4618835 -1.4057922 3.444641 -2.1955414 5.512085 -2.1955414l0 0c4.3052063 0 7.795288 3.3560944 7.795288 7.496063l0 0c0 4.1399536 -3.4900818 7.496063 -7.795288 7.496063z" fill-rule="evenodd"/><path stroke="#595959" stroke-width="1.0" stroke-linejoin="round" stroke-linecap="butt" d="m364.5909 183.49734l0 0c-4.3052063 0 -7.7952576 -3.3561096 -7.7952576 -7.496063l0 0c0 -1.9880829 0.82125854 -3.8947449 2.2831726 -5.300522c1.4618835 -1.4057922 3.444641 -2.1955414 5.512085 -2.1955414l0 0c4.3052063 0 7.795288 3.3560944 7.795288 7.496063l0 0c0 4.1399536 -3.4900818 7.496063 -7.795288 7.496063z" fill-rule="evenodd"/><path fill="#000000" fill-opacity="0.0" d="m110.358406 250.86441l24.535439 -29.16536" fill-rule="evenodd"/><path stroke="#000000" stroke-width="1.0" stroke-linejoin="round" stroke-linecap="butt" d="m110.35841 250.8644l22.329224 -26.542831" fill-rule="evenodd"/><path fill="#000000" stroke="#000000" stroke-width="1.0" stroke-linecap="butt" d="m132.68764 224.32156l0.13661194 1.5845184l1.1284943 -3.0883484l-2.8496246 1.6404419z" fill-rule="evenodd"/><path fill="#000000" fill-opacity="0.0" d="m97.04857 195.73563l37.826767 25.952759" fill-rule="evenodd"/><path stroke="#000000" stroke-width="1.0" stroke-linejoin="round" stroke-linecap="butt" d="m97.04857 195.73563l35.000854 24.0139" fill-rule="evenodd"/><path fill="#000000" stroke="#000000" stroke-width="1.0" stroke-linecap="butt" d="m132.04942 219.74954l-1.5635376 0.29107666l3.1839905 0.8207092l-1.9115448 -2.6753235z" fill-rule="evenodd"/><path fill="#000000" fill-opacity="0.0" d="m97.04857 195.73563l33.102356 -22.551178" fill-rule="evenodd"/><path stroke="#000000" stroke-width="1.0" stroke-linejoin="round" stroke-linecap="butt" d="m97.04857 195.73563l30.270065 -20.621658" fill-rule="evenodd"/><path fill="#000000" stroke="#000000" stroke-width="1.0" stroke-linecap="butt" d="m127.318634 175.11397l-0.29624176 1.562561l1.9203568 -2.6690063l-3.1866837 0.8101959z" fill-rule="evenodd"/><path fill="#000000" fill-opacity="0.0" d="m105.75404 135.9615l24.37796 37.228348" fill-rule="evenodd"/><path stroke="#000000" stroke-width="1.0" stroke-linejoin="round" stroke-linecap="butt" d="m105.75405 135.9615l22.500526 34.361267" fill-rule="evenodd"/><path fill="#000000" stroke="#000000" stroke-width="1.0" stroke-linecap="butt" d="m128.25458 170.32277l-1.5569 -0.3247528l2.6334686 1.9688263l-0.75183105 -3.2009583z" fill-rule="evenodd"/><path fill="#000000" fill-opacity="0.0" d="m143.45203 178.49171l35.338577 15.307083" fill-rule="evenodd"/><path stroke="#000000" stroke-width="1.0" stroke-linejoin="round" stroke-linecap="butt" d="m143.45201 178.49171l32.193848 13.944931" fill-rule="evenodd"/><path fill="#000000" stroke="#000000" stroke-width="1.0" stroke-linecap="butt" d="m175.64586 192.43665l-1.4789276 0.5849457l3.2822113 0.19615173l-2.3882294 -2.260025z" fill-rule="evenodd"/><path fill="#000000" fill-opacity="0.0" d="m148.19757 216.39656l30.582672 -22.582672" fill-rule="evenodd"/><path stroke="#000000" stroke-width="1.0" stroke-linejoin="round" stroke-linecap="butt" d="m148.19757 216.39655l27.825745 -20.546906" fill-rule="evenodd"/><path fill="#000000" stroke="#000000" stroke-width="1.0" stroke-linecap="butt" d="m176.02332 195.84962l-0.23664856 1.5726929l1.8175507 -2.7400513l-3.153595 0.93070984z" fill-rule="evenodd"/><path fill="#000000" fill-opacity="0.0" d="m143.45203 167.89067l23.370071 -7.496063" fill-rule="evenodd"/><path stroke="#000000" stroke-width="1.0" stroke-linejoin="round" stroke-linecap="butt" d="m143.45201 167.89067l20.10675 -6.4493256" fill-rule="evenodd"/><path fill="#000000" stroke="#000000" stroke-width="1.0" stroke-linecap="butt" d="m163.55878 161.44135l-0.7273712 1.4143219l2.598648 -2.0145416l-3.2855988 -0.12715149z" fill-rule="evenodd"/><path fill="#000000" fill-opacity="0.0" d="m150.48076 221.69708l16.314957 2.2047272" fill-rule="evenodd"/><path stroke="#000000" stroke-width="1.0" stroke-linejoin="round" stroke-linecap="butt" d="m150.48076 221.69708l12.918747 1.7457733" fill-rule="evenodd"/><path fill="#000000" stroke="#000000" stroke-width="1.0" stroke-linecap="butt" d="m163.3995 223.44286l-1.2650604 0.9638519l3.2125397 -0.7006836l-2.9113312 -1.5282288z" fill-rule="evenodd"/><path fill="#000000" fill-opacity="0.0" d="m182.40146 160.39362l34.456696 23.401566" fill-rule="evenodd"/><path stroke="#000000" stroke-width="1.0" stroke-linejoin="round" stroke-linecap="butt" d="m182.40147 160.39362l31.621628 21.47612" fill-rule="evenodd"/><path fill="#000000" stroke="#000000" stroke-width="1.0" stroke-linecap="butt" d="m214.0231 181.86974l-1.5621338 0.29847717l3.1878357 0.80563354l-1.9241791 -2.6662445z" fill-rule="evenodd"/><path fill="#000000" fill-opacity="0.0" d="m182.4002 223.90762l36.283463 -10.803146" fill-rule="evenodd"/><path stroke="#000000" stroke-width="1.0" stroke-linejoin="round" stroke-linecap="butt" d="m182.4002 223.90762l32.99887 -9.825195" fill-rule="evenodd"/><path fill="#000000" stroke="#000000" stroke-width="1.0" stroke-linecap="butt" d="m215.39908 214.08244l-0.75691223 1.3987274l2.6403809 -1.9595184l-3.2822113 -0.19612122z" fill-rule="evenodd"/><path fill="#000000" fill-opacity="0.0" d="m234.26305 213.09471l20.692902 1.9212646" fill-rule="evenodd"/><path stroke="#000000" stroke-width="1.0" stroke-linejoin="round" stroke-linecap="butt" d="m234.26305 213.09471l17.280502 1.6044312" fill-rule="evenodd"/><path fill="#000000" stroke="#000000" stroke-width="1.0" stroke-linecap="butt" d="m251.54355 214.69914l-1.2237396 1.0158081l3.1805115 -0.8341217l-2.97258 -1.405426z" fill-rule="evenodd"/><path fill="#000000" fill-opacity="0.0" d="m192.10028 199.11212l26.582687 13.984253" fill-rule="evenodd"/><path stroke="#000000" stroke-width="1.0" stroke-linejoin="round" stroke-linecap="butt" d="m192.1003 199.11212l23.549683 12.388702" fill-rule="evenodd"/><path fill="#000000" stroke="#000000" stroke-width="1.0" stroke-linecap="butt" d="m215.64996 211.50081l-1.5188446 0.47169495l3.2580566 0.44325256l-2.210907 -2.433792z" fill-rule="evenodd"/><path fill="#b7b7b7" d="m300.37662 217.55022l0 -0.6387634l21.01358 0l0 0.6387634z" fill-rule="evenodd"/><path stroke="#000000" stroke-width="1.0" stroke-linejoin="round" stroke-linecap="butt" d="m300.37662 217.55022l0 -0.6387634l21.01358 0l0 0.6387634z" fill-rule="evenodd"/><path fill="#b7b7b7" d="m300.73038 214.62282l0 -0.6387634l20.30606 0l0 0.6387634z" fill-rule="evenodd"/><path stroke="#000000" stroke-width="1.0" stroke-linejoin="round" stroke-linecap="butt" d="m300.73038 214.62282l0 -0.6387634l20.30606 0l0 0.6387634z" fill-rule="evenodd"/><path fill="#b7b7b7" d="m301.26105 211.6954l0 -0.6387634l19.244751 0l0 0.6387634z" fill-rule="evenodd"/><path stroke="#000000" stroke-width="1.0" stroke-linejoin="round" stroke-linecap="butt" d="m301.26105 211.6954l0 -0.6387634l19.244751 0l0 0.6387634z" fill-rule="evenodd"/><path fill="#b7b7b7" d="m302.14545 208.76799l0 -0.6387634l17.475922 0l0 0.6387634z" fill-rule="evenodd"/><path stroke="#000000" stroke-width="1.0" stroke-linejoin="round" stroke-linecap="butt" d="m302.14545 208.76799l0 -0.6387634l17.475922 0l0 0.6387634z" fill-rule="evenodd"/><path fill="#b7b7b7" d="m303.5605 205.84058l0 -0.6387634l14.6458435 0l0 0.6387634z" fill-rule="evenodd"/><path stroke="#000000" stroke-width="1.0" stroke-linejoin="round" stroke-linecap="butt" d="m303.5605 205.84058l0 -0.6387634l14.6458435 0l0 0.6387634z" fill-rule="evenodd"/><path fill="#b7b7b7" d="m305.3293 202.91316l0 -0.6387634l11.108185 0l0 0.6387634z" fill-rule="evenodd"/><path stroke="#000000" stroke-width="1.0" stroke-linejoin="round" stroke-linecap="butt" d="m305.3293 202.91316l0 -0.6387634l11.108185 0l0 0.6387634z" fill-rule="evenodd"/><path fill="#b7b7b7" d="m300.37662 174.0736l0 0.6387634l21.01358 0l0 -0.6387634z" fill-rule="evenodd"/><path stroke="#000000" stroke-width="1.0" stroke-linejoin="round" stroke-linecap="butt" d="m300.37662 174.0736l0 0.6387634l21.01358 0l0 -0.6387634z" fill-rule="evenodd"/><path fill="#b7b7b7" d="m300.73038 177.001l0 0.6387634l20.30606 0l0 -0.6387634z" fill-rule="evenodd"/><path stroke="#000000" stroke-width="1.0" stroke-linejoin="round" stroke-linecap="butt" d="m300.73038 177.001l0 0.6387634l20.30606 0l0 -0.6387634z" fill-rule="evenodd"/><path fill="#b7b7b7" d="m301.26105 179.92842l0 0.6387634l19.244751 0l0 -0.6387634z" fill-rule="evenodd"/><path stroke="#000000" stroke-width="1.0" stroke-linejoin="round" stroke-linecap="butt" d="m301.26105 179.92842l0 0.6387634l19.244751 0l0 -0.6387634z" fill-rule="evenodd"/><path fill="#b7b7b7" d="m302.14545 182.85583l0 0.6387634l17.475922 0l0 -0.6387634z" fill-rule="evenodd"/><path stroke="#000000" stroke-width="1.0" stroke-linejoin="round" stroke-linecap="butt" d="m302.14545 182.85583l0 0.6387634l17.475922 0l0 -0.6387634z" fill-rule="evenodd"/><path fill="#b7b7b7" d="m303.5605 185.78325l0 0.6387634l14.6458435 0l0 -0.6387634z" fill-rule="evenodd"/><path stroke="#000000" stroke-width="1.0" stroke-linejoin="round" stroke-linecap="butt" d="m303.5605 185.78325l0 0.6387634l14.6458435 0l0 -0.6387634z" fill-rule="evenodd"/><path fill="#b7b7b7" d="m305.3293 188.71065l0 0.6387634l11.108185 0l0 -0.6387634z" fill-rule="evenodd"/><path stroke="#000000" stroke-width="1.0" stroke-linejoin="round" stroke-linecap="butt" d="m305.3293 188.71065l0 0.6387634l11.108185 0l0 -0.6387634z" fill-rule="evenodd"/><path fill="#000000" fill-opacity="0.0" d="m300.4901 218.45172c0 -11.319916 5.1966553 -16.979858 10.393311 -22.639816c5.1966248 -5.6599426 10.39328 -11.3199005 10.39328 -22.639801" fill-rule="evenodd"/><path stroke="#000000" stroke-width="2.0" stroke-linejoin="round" stroke-linecap="butt" d="m300.4901 218.45172c0 -11.319916 5.1966553 -16.979858 10.393311 -22.639816c5.1966248 -5.6599426 10.39328 -11.3199005 10.39328 -22.639801" fill-rule="evenodd"/><path fill="#000000" fill-opacity="0.0" d="m321.2767 218.45172c0 -11.319916 -5.1966553 -16.979858 -10.39328 -22.639816c-5.1966553 -5.6599426 -10.393311 -11.3199005 -10.393311 -22.639801" fill-rule="evenodd"/><path stroke="#000000" stroke-width="2.0" stroke-linejoin="round" stroke-linecap="butt" d="m321.2767 218.45172c0 -11.319916 -5.1966553 -16.979858 -10.39328 -22.639816c-5.1966553 -5.6599426 -10.393311 -11.3199005 -10.393311 -22.639801" fill-rule="evenodd"/><path fill="#3c78d8" d="m226.46776 220.59077l0 0c-4.3052063 0 -7.795273 -3.3560944 -7.795273 -7.496063l0 0c0 -1.9880676 0.82128906 -3.8947296 2.2831879 -5.3005066c1.4618988 -1.4057922 3.4446564 -2.1955566 5.512085 -2.1955566l0 0c4.3052216 0 7.795288 3.3561096 7.795288 7.496063l0 0c0 4.139969 -3.4900665 7.496063 -7.795288 7.496063z" fill-rule="evenodd"/><path stroke="#595959" stroke-width="1.0" stroke-linejoin="round" stroke-linecap="butt" d="m226.46776 220.59077l0 0c-4.3052063 0 -7.795273 -3.3560944 -7.795273 -7.496063l0 0c0 -1.9880676 0.82128906 -3.8947296 2.2831879 -5.3005066c1.4618988 -1.4057922 3.4446564 -2.1955566 5.512085 -2.1955566l0 0c4.3052216 0 7.795288 3.3561096 7.795288 7.496063l0 0c0 4.139969 -3.4900665 7.496063 -7.795288 7.496063z" fill-rule="evenodd"/><path fill="#3c78d8" d="m224.66179 191.30406l0 0c-4.3052063 0 -7.795273 -3.3561096 -7.795273 -7.496063l0 0c0 -1.9880829 0.82128906 -3.8947449 2.2831879 -5.300522c1.4618988 -1.4057922 3.4446564 -2.1955414 5.512085 -2.1955414l0 0c4.3052216 0 7.795273 3.3560944 7.795273 7.496063l0 0c0 4.1399536 -3.4900513 7.496063 -7.795273 7.496063z" fill-rule="evenodd"/><path stroke="#595959" stroke-width="1.0" stroke-linejoin="round" stroke-linecap="butt" d="m224.66179 191.30406l0 0c-4.3052063 0 -7.795273 -3.3561096 -7.795273 -7.496063l0 0c0 -1.9880829 0.82128906 -3.8947449 2.2831879 -5.300522c1.4618988 -1.4057922 3.4446564 -2.1955414 5.512085 -2.1955414l0 0c4.3052216 0 7.795273 3.3560944 7.795273 7.496063l0 0c0 4.1399536 -3.4900513 7.496063 -7.795273 7.496063z" fill-rule="evenodd"/><path fill="#000000" fill-opacity="0.0" d="m231.97986 207.7942l22.960632 -24.0" fill-rule="evenodd"/><path stroke="#000000" stroke-width="1.0" stroke-linejoin="round" stroke-linecap="butt" d="m231.97986 207.79419l20.591537 -21.523666" fill-rule="evenodd"/><path fill="#000000" stroke="#000000" stroke-width="1.0" stroke-linecap="butt" d="m252.5714 186.27054l0.035186768 1.5900116l1.3233185 -3.010025l-2.9485168 1.4552002z" fill-rule="evenodd"/><path fill="#000000" fill-opacity="0.0" d="m232.45706 183.808l22.48819 0" fill-rule="evenodd"/><path stroke="#000000" stroke-width="1.0" stroke-linejoin="round" stroke-linecap="butt" d="m232.45706 183.80798l19.061111 0" fill-rule="evenodd"/><path fill="#000000" stroke="#000000" stroke-width="1.0" stroke-linecap="butt" d="m251.51816 183.80798l-1.1245728 1.124588l3.0897675 -1.124588l-3.0897675 -1.1245728z" fill-rule="evenodd"/><path fill="#000000" fill-opacity="0.0" d="m186.5882 186.31554l-6.4566956 -20.629913" fill-rule="evenodd"/><path stroke="#000000" stroke-width="1.0" stroke-linejoin="round" stroke-linecap="butt" d="m186.5882 186.31554l-5.4330597 -17.359283" fill-rule="evenodd"/><path fill="#000000" stroke="#000000" stroke-width="1.0" stroke-linecap="butt" d="m181.15514 168.95625l1.4091492 0.73735046l-1.9961243 -2.6128235l-0.15037537 3.2846222z" fill-rule="evenodd"/><path fill="#000000" fill-opacity="0.0" d="m270.532 215.01466l17.952759 -19.2126" fill-rule="evenodd"/><path stroke="#000000" stroke-width="1.0" stroke-linejoin="round" stroke-linecap="butt" d="m270.532 215.01466l15.612915 -16.708588" fill-rule="evenodd"/><path fill="#000000" stroke="#000000" stroke-width="1.0" stroke-linecap="butt" d="m286.14493 198.30609l0.053894043 1.5894775l1.2878418 -3.02536l-2.9312134 1.4897614z" fill-rule="evenodd"/><path fill="#000000" fill-opacity="0.0" d="m270.532 183.80754l17.952759 12.0" fill-rule="evenodd"/><path stroke="#000000" stroke-width="1.0" stroke-linejoin="round" stroke-linecap="butt" d="m270.532 183.80754l15.103546 10.095535" fill-rule="evenodd"/><path fill="#000000" stroke="#000000" stroke-width="1.0" stroke-linecap="butt" d="m285.63556 193.90308l-1.5598755 0.31001282l3.193695 0.7820587l-1.9438171 -2.6519623z" fill-rule="evenodd"/><path fill="#000000" fill-opacity="0.0" d="m310.87097 224.91339l18.771667 24.283463" fill-rule="evenodd"/><path stroke="#000000" stroke-width="1.0" stroke-linejoin="round" stroke-linecap="butt" d="m310.87097 224.91339l16.67569 21.572052" fill-rule="evenodd"/><path fill="#000000" stroke="#000000" stroke-width="1.0" stroke-linecap="butt" d="m327.54666 246.48543l-1.5775452 -0.20195007l2.779419 1.7567596l-0.99993896 -3.1323242z" fill-rule="evenodd"/><path fill="#000000" fill-opacity="0.0" d="m333.26468 195.79527l17.952759 17.291336" fill-rule="evenodd"/><path stroke="#000000" stroke-width="1.0" stroke-linejoin="round" stroke-linecap="butt" d="m333.26468 195.79527l15.4844055 14.913925" fill-rule="evenodd"/><path fill="#000000" stroke="#000000" stroke-width="1.0" stroke-linecap="butt" d="m348.74908 210.7092l-1.5901184 0.029830933l3.0055237 1.333435l-1.4452515 -2.9533844z" fill-rule="evenodd"/><path fill="#000000" fill-opacity="0.0" d="m333.26468 195.79527l23.527557 -19.779526" fill-rule="evenodd"/><path stroke="#000000" stroke-width="1.0" stroke-linejoin="round" stroke-linecap="butt" d="m333.26468 195.79527l20.904327 -17.574188" fill-rule="evenodd"/><path fill="#000000" stroke="#000000" stroke-width="1.0" stroke-linecap="butt" d="m354.169 178.2211l-0.137146 1.5844727l1.6413879 -2.8490906l-3.0887146 1.1274872z" fill-rule="evenodd"/><path fill="#cc0000" d="m338.95288 138.15875l0 0c-4.3052063 0 -7.7952576 -3.3560944 -7.7952576 -7.496063l0 0c0 -1.9880829 0.82128906 -3.8947296 2.2831726 -5.300514c1.4619141 -1.4057846 3.4446716 -2.1955414 5.512085 -2.1955414l0 0c4.305237 0 7.795288 3.356102 7.795288 7.4960556l0 0c0 4.139969 -3.4900513 7.496063 -7.795288 7.496063z" fill-rule="evenodd"/><path stroke="#595959" stroke-width="1.0" stroke-linejoin="round" stroke-linecap="butt" d="m338.95288 138.15875l0 0c-4.3052063 0 -7.7952576 -3.3560944 -7.7952576 -7.496063l0 0c0 -1.9880829 0.82128906 -3.8947296 2.2831726 -5.300514c1.4619141 -1.4057846 3.4446716 -2.1955414 5.512085 -2.1955414l0 0c4.305237 0 7.795288 3.356102 7.795288 7.4960556l0 0c0 4.139969 -3.4900513 7.496063 -7.795288 7.496063z" fill-rule="evenodd"/><path fill="#000000" fill-opacity="0.0" d="m310.87097 166.67717l22.582703 -30.708664" fill-rule="evenodd"/><path stroke="#000000" stroke-width="1.0" stroke-linejoin="round" stroke-linecap="butt" d="m310.87097 166.67717l20.552368 -27.947754" fill-rule="evenodd"/><path fill="#000000" stroke="#000000" stroke-width="1.0" stroke-linecap="butt" d="m331.4233 138.72942l0.2397461 1.5722351l0.92453 -3.1554108l-2.7364807 1.8229218z" fill-rule="evenodd"/><path fill="#000000" fill-opacity="0.0" d="m51.60685 189.6496l29.858269 6.0787354" fill-rule="evenodd"/><path stroke="#000000" stroke-width="1.0" stroke-linejoin="round" stroke-linecap="butt" d="m51.606853 189.64961l26.500065 5.39505" fill-rule="evenodd"/><path fill="#000000" stroke="#000000" stroke-width="1.0" stroke-linecap="butt" d="m78.10692 195.04466l-1.3263245 0.8776245l3.2520065 -0.48558044l-2.8033066 -1.7183685z" fill-rule="evenodd"/><path fill="#000000" fill-opacity="0.0" d="m51.60685 248.65353l45.448822 7.496063" fill-rule="evenodd"/><path stroke="#000000" stroke-width="1.0" stroke-linejoin="round" stroke-linecap="butt" d="m51.606853 248.65355l42.067417 6.9383545" fill-rule="evenodd"/><path fill="#000000" stroke="#000000" stroke-width="1.0" stroke-linecap="butt" d="m93.67427 255.5919l-1.2926025 0.92658997l3.2315903 -0.60679626l-2.86557 -1.6123962z" fill-rule="evenodd"/><path fill="#000000" fill-opacity="0.0" d="m51.60685 123.1496l40.850395 7.496063" fill-rule="evenodd"/><path stroke="#000000" stroke-width="1.0" stroke-linejoin="round" stroke-linecap="butt" d="m51.606853 123.1496l37.479588 6.8775177" fill-rule="evenodd"/><path fill="#000000" stroke="#000000" stroke-width="1.0" stroke-linecap="butt" d="m89.08644 130.02711l-1.3090897 0.9031372l3.2420044 -0.54844666l-2.8360596 -1.6637726z" fill-rule="evenodd"/><path fill="#f1c232" d="m427.80624 153.30708l0 0c-4.3052063 0 -7.7952576 -3.3560944 -7.7952576 -7.496063l0 0c0 -1.9880829 0.82128906 -3.8947296 2.2831726 -5.3005066c1.4619141 -1.4057922 3.4446716 -2.1955566 5.512085 -2.1955566l0 0c4.305237 0 7.795288 3.3561096 7.795288 7.496063l0 0c0 4.139969 -3.4900513 7.496063 -7.795288 7.496063z" fill-rule="evenodd"/><path stroke="#595959" stroke-width="1.0" stroke-linejoin="round" stroke-linecap="butt" d="m427.80624 153.30708l0 0c-4.3052063 0 -7.7952576 -3.3560944 -7.7952576 -7.496063l0 0c0 -1.9880829 0.82128906 -3.8947296 2.2831726 -5.3005066c1.4619141 -1.4057922 3.4446716 -2.1955566 5.512085 -2.1955566l0 0c4.305237 0 7.795288 3.3561096 7.795288 7.496063l0 0c0 4.139969 -3.4900513 7.496063 -7.795288 7.496063z" fill-rule="evenodd"/><path fill="#3c78d8" d="m427.80606 177.55118l0 0c-4.3052063 0 -7.7952576 -3.3560944 -7.7952576 -7.496063l0 0c0 -1.9880829 0.82128906 -3.8947296 2.2831726 -5.3005066c1.4619141 -1.4057922 3.4446716 -2.1955566 5.512085 -2.1955566l0 0c4.305237 0 7.795288 3.3561096 7.795288 7.496063l0 0c0 4.139969 -3.4900513 7.496063 -7.795288 7.496063z" fill-rule="evenodd"/><path stroke="#595959" stroke-width="1.0" stroke-linejoin="round" stroke-linecap="butt" d="m427.80606 177.55118l0 0c-4.3052063 0 -7.7952576 -3.3560944 -7.7952576 -7.496063l0 0c0 -1.9880829 0.82128906 -3.8947296 2.2831726 -5.3005066c1.4619141 -1.4057922 3.4446716 -2.1955566 5.512085 -2.1955566l0 0c4.305237 0 7.795288 3.3561096 7.795288 7.496063l0 0c0 4.139969 -3.4900513 7.496063 -7.795288 7.496063z" fill-rule="evenodd"/><path fill="#6aa84f" d="m427.80762 201.79527l0 0c-4.305237 0 -7.795288 -3.3560944 -7.795288 -7.496063l0 0c0 -1.9880829 0.82128906 -3.8947296 2.2831726 -5.3005066c1.4619141 -1.4057922 3.4446716 -2.1955566 5.5121155 -2.1955566l0 0c4.3052063 0 7.7952576 3.3561096 7.7952576 7.496063l0 0c0 4.139969 -3.4900513 7.496063 -7.7952576 7.496063z" fill-rule="evenodd"/><path stroke="#595959" stroke-width="1.0" stroke-linejoin="round" stroke-linecap="butt" d="m427.80762 201.79527l0 0c-4.305237 0 -7.795288 -3.3560944 -7.795288 -7.496063l0 0c0 -1.9880829 0.82128906 -3.8947296 2.2831726 -5.3005066c1.4619141 -1.4057922 3.4446716 -2.1955566 5.5121155 -2.1955566l0 0c4.3052063 0 7.7952576 3.3561096 7.7952576 7.496063l0 0c0 4.139969 -3.4900513 7.496063 -7.7952576 7.496063z" fill-rule="evenodd"/><path fill="#cc0000" d="m427.8059 226.03937l0 0c-4.3052063 0 -7.7952576 -3.3560944 -7.7952576 -7.496063l0 0c0 -1.9880829 0.82125854 -3.8947296 2.2831726 -5.300522c1.4618835 -1.405777 3.444641 -2.1955414 5.512085 -2.1955414l0 0c4.3052063 0 7.795288 3.3561096 7.795288 7.496063l0 0c0 4.139969 -3.4900818 7.496063 -7.795288 7.496063z" fill-rule="evenodd"/><path stroke="#595959" stroke-width="1.0" stroke-linejoin="round" stroke-linecap="butt" d="m427.8059 226.03937l0 0c-4.3052063 0 -7.7952576 -3.3560944 -7.7952576 -7.496063l0 0c0 -1.9880829 0.82125854 -3.8947296 2.2831726 -5.300522c1.4618835 -1.405777 3.444641 -2.1955414 5.512085 -2.1955414l0 0c4.3052063 0 7.795288 3.3561096 7.795288 7.496063l0 0c0 4.139969 -3.4900818 7.496063 -7.795288 7.496063z" fill-rule="evenodd"/><path fill="#e69138" d="m427.80634 250.28346l0 0c-4.3052063 0 -7.795288 -3.3560944 -7.795288 -7.496063l0 0c0 -1.9880829 0.82128906 -3.8947296 2.2831726 -5.300522c1.4619141 -1.405777 3.4446716 -2.1955414 5.5121155 -2.1955414l0 0c4.3052063 0 7.7952576 3.3561096 7.7952576 7.496063l0 0c0 4.139969 -3.4900513 7.496063 -7.7952576 7.496063z" fill-rule="evenodd"/><path stroke="#595959" stroke-width="1.0" stroke-linejoin="round" stroke-linecap="butt" d="m427.80634 250.28346l0 0c-4.3052063 0 -7.795288 -3.3560944 -7.795288 -7.496063l0 0c0 -1.9880829 0.82128906 -3.8947296 2.2831726 -5.300522c1.4619141 -1.405777 3.4446716 -2.1955414 5.5121155 -2.1955414l0 0c4.3052063 0 7.7952576 3.3561096 7.7952576 7.496063l0 0c0 4.139969 -3.4900513 7.496063 -7.7952576 7.496063z" fill-rule="evenodd"/><path fill="#000000" fill-opacity="0.0" d="m440.3504 130.4567l155.90552 0l0 30.708664l-155.90552 0z" fill-rule="evenodd"/><path fill="#000000" d="m450.08478 148.41669l0 -6.671875l2.953125 0q0.90625 0 1.359375 0.1875q0.46875 0.171875 0.75 0.625q0.28125 0.453125 0.28125 1.0q0 0.71875 -0.46875 1.203125q-0.453125 0.484375 -1.421875 0.625q0.359375 0.15625 0.53125 0.328125q0.390625 0.359375 0.734375 0.890625l1.171875 1.8125l-1.125 0l-0.875 -1.390625q-0.390625 -0.59375 -0.640625 -0.90625q-0.25 -0.328125 -0.453125 -0.453125q-0.1875 -0.140625 -0.390625 -0.1875q-0.15625 -0.03125 -0.5 -0.03125l-1.03125 0l0 2.96875l-0.875 0zm0.875 -3.734375l1.90625 0q0.609375 0 0.953125 -0.125q0.34375 -0.125 0.515625 -0.390625q0.171875 -0.28125 0.171875 -0.609375q0 -0.46875 -0.34375 -0.765625q-0.34375 -0.3125 -1.078125 -0.3125l-2.125 0l0 2.203125zm9.048981 2.171875l0.84375 0.109375q-0.1875 0.75 -0.734375 1.15625q-0.546875 0.40625 -1.390625 0.40625q-1.0625 0 -1.6875 -0.65625q-0.609375 -0.65625 -0.609375 -1.828125q0 -1.21875 0.625 -1.890625q0.625 -0.6875 1.625 -0.6875q0.984375 0 1.59375 0.671875q0.609375 0.65625 0.609375 1.859375q0 0.0625 0 0.21875l-3.609375 0q0.046875 0.796875 0.453125 1.21875q0.40625 0.421875 1.015625 0.421875q0.453125 0 0.765625 -0.234375q0.3125 -0.234375 0.5 -0.765625zm-2.6875 -1.328125l2.703125 0q-0.0625 -0.609375 -0.3125 -0.90625q-0.390625 -0.46875 -1.015625 -0.46875q-0.5625 0 -0.953125 0.375q-0.375 0.375 -0.421875 1.0zm7.719116 1.125l0.8125 0.09375q-0.125 0.84375 -0.671875 1.3125q-0.546875 0.46875 -1.34375 0.46875q-0.984375 0 -1.59375 -0.640625q-0.609375 -0.65625 -0.609375 -1.875q0 -0.78125 0.265625 -1.359375q0.265625 -0.59375 0.78125 -0.890625q0.53125 -0.296875 1.15625 -0.296875q0.796875 0 1.296875 0.40625q0.5 0.390625 0.640625 1.125l-0.796875 0.125q-0.109375 -0.484375 -0.40625 -0.71875q-0.28125 -0.25 -0.703125 -0.25q-0.609375 0 -1.0 0.4375q-0.390625 0.4375 -0.390625 1.40625q0 0.96875 0.375 1.421875q0.375 0.4375 0.984375 0.4375q0.46875 0 0.796875 -0.296875q0.328125 -0.296875 0.40625 -0.90625zm4.8203125 0.203125l0.84375 0.109375q-0.1875 0.75 -0.734375 1.15625q-0.546875 0.40625 -1.390625 0.40625q-1.0625 0 -1.6875 -0.65625q-0.609375 -0.65625 -0.609375 -1.828125q0 -1.21875 0.625 -1.890625q0.625 -0.6875 1.625 -0.6875q0.984375 0 1.59375 0.671875q0.609375 0.65625 0.609375 1.859375q0 0.0625 0 0.21875l-3.609375 0q0.046875 0.796875 0.453125 1.21875q0.40625 0.421875 1.015625 0.421875q0.453125 0 0.765625 -0.234375q0.3125 -0.234375 0.5 -0.765625zm-2.6875 -1.328125l2.703125 0q-0.0625 -0.609375 -0.3125 -0.90625q-0.390625 -0.46875 -1.015625 -0.46875q-0.5625 0 -0.953125 0.375q-0.375 0.375 -0.421875 1.0zm4.562866 4.75l0 -6.703125l0.75 0l0 0.640625q0.265625 -0.375 0.59375 -0.5625q0.34375 -0.1875 0.8125 -0.1875q0.625 0 1.09375 0.328125q0.46875 0.3125 0.703125 0.90625q0.25 0.578125 0.25 1.265625q0 0.734375 -0.265625 1.328125q-0.265625 0.59375 -0.78125 0.921875q-0.5 0.3125 -1.0625 0.3125q-0.40625 0 -0.734375 -0.171875q-0.328125 -0.171875 -0.53125 -0.4375l0 2.359375l-0.828125 0zm0.75 -4.25q0 0.9375 0.375 1.390625q0.375 0.4375 0.921875 0.4375q0.546875 0 0.921875 -0.453125q0.390625 -0.46875 0.390625 -1.4375q0 -0.9375 -0.375 -1.390625q-0.375 -0.453125 -0.90625 -0.453125q-0.53125 0 -0.9375 0.484375q-0.390625 0.484375 -0.390625 1.421875zm6.234741 1.65625l0.109375 0.71875q-0.34375 0.078125 -0.609375 0.078125q-0.453125 0 -0.703125 -0.140625q-0.234375 -0.140625 -0.34375 -0.359375q-0.09375 -0.234375 -0.09375 -0.984375l0 -2.78125l-0.609375 0l0 -0.640625l0.609375 0l0 -1.1875l0.8125 -0.5l0 1.6875l0.828125 0l0 0.640625l-0.828125 0l0 2.828125q0 0.359375 0.046875 0.46875q0.046875 0.09375 0.140625 0.15625q0.09375 0.046875 0.28125 0.046875q0.140625 0 0.359375 -0.03125zm0.4978943 -1.6875q0 -1.34375 0.75 -1.984375q0.625 -0.546875 1.515625 -0.546875q1.0 0 1.625 0.65625q0.640625 0.65625 0.640625 1.8125q0 0.9375 -0.28125 1.46875q-0.28125 0.53125 -0.8125 0.828125q-0.53125 0.296875 -1.171875 0.296875q-1.015625 0 -1.640625 -0.640625q-0.625 -0.65625 -0.625 -1.890625zm0.84375 0q0 0.9375 0.40625 1.40625q0.40625 0.453125 1.015625 0.453125q0.609375 0 1.015625 -0.46875q0.40625 -0.46875 0.40625 -1.421875q0 -0.890625 -0.40625 -1.34375q-0.40625 -0.46875 -1.015625 -0.46875q-0.609375 0 -1.015625 0.46875q-0.40625 0.453125 -0.40625 1.375zm4.640991 2.421875l0 -4.84375l0.734375 0l0 0.734375q0.28125 -0.515625 0.515625 -0.671875q0.25 -0.171875 0.53125 -0.171875q0.421875 0 0.84375 0.265625l-0.28125 0.765625q-0.296875 -0.171875 -0.609375 -0.171875q-0.265625 0 -0.484375 0.15625q-0.203125 0.15625 -0.296875 0.453125q-0.140625 0.4375 -0.140625 0.953125l0 2.53125l-0.8125 0zm5.697998 0l0 -4.84375l0.75 0l0 0.6875q0.53125 -0.796875 1.53125 -0.796875q0.4375 0 0.796875 0.171875q0.375 0.15625 0.546875 0.40625q0.1875 0.25 0.265625 0.609375q0.046875 0.21875 0.046875 0.796875l0 2.96875l-0.828125 0l0 -2.9375q0 -0.5 -0.09375 -0.75q-0.09375 -0.25 -0.34375 -0.390625q-0.234375 -0.15625 -0.5625 -0.15625q-0.515625 0 -0.90625 0.328125q-0.375 0.328125 -0.375 1.265625l0 2.640625l-0.828125 0zm4.890991 -2.421875q0 -1.34375 0.75 -1.984375q0.625 -0.546875 1.515625 -0.546875q1.0 0 1.625 0.65625q0.640625 0.65625 0.640625 1.8125q0 0.9375 -0.28125 1.46875q-0.28125 0.53125 -0.8125 0.828125q-0.53125 0.296875 -1.171875 0.296875q-1.015625 0 -1.640625 -0.640625q-0.625 -0.65625 -0.625 -1.890625zm0.84375 0q0 0.9375 0.40625 1.40625q0.40625 0.453125 1.015625 0.453125q0.609375 0 1.015625 -0.46875q0.40625 -0.46875 0.40625 -1.421875q0 -0.890625 -0.40625 -1.34375q-0.40625 -0.46875 -1.015625 -0.46875q-0.609375 0 -1.015625 0.46875q-0.40625 0.453125 -0.40625 1.375zm7.781616 2.421875l0 -0.609375q-0.453125 0.71875 -1.34375 0.71875q-0.578125 0 -1.0625 -0.3125q-0.484375 -0.328125 -0.765625 -0.890625q-0.265625 -0.578125 -0.265625 -1.3125q0 -0.734375 0.234375 -1.3125q0.25 -0.59375 0.734375 -0.90625q0.484375 -0.328125 1.078125 -0.328125q0.4375 0 0.78125 0.1875q0.34375 0.1875 0.5625 0.484375l0 -2.390625l0.8125 0l0 6.671875l-0.765625 0zm-2.59375 -2.40625q0 0.921875 0.390625 1.390625q0.390625 0.453125 0.9375 0.453125q0.53125 0 0.90625 -0.4375q0.375 -0.4375 0.375 -1.34375q0 -1.0 -0.390625 -1.453125q-0.375 -0.46875 -0.9375 -0.46875q-0.546875 0 -0.921875 0.453125q-0.359375 0.4375 -0.359375 1.40625zm7.953491 0.84375l0.84375 0.109375q-0.1875 0.75 -0.734375 1.15625q-0.546875 0.40625 -1.390625 0.40625q-1.0625 0 -1.6875 -0.65625q-0.609375 -0.65625 -0.609375 -1.828125q0 -1.21875 0.625 -1.890625q0.625 -0.6875 1.625 -0.6875q0.984375 0 1.59375 0.671875q0.609375 0.65625 0.609375 1.859375q0 0.0625 0 0.21875l-3.609375 0q0.046875 0.796875 0.453125 1.21875q0.40625 0.421875 1.015625 0.421875q0.453125 0 0.765625 -0.234375q0.3125 -0.234375 0.5 -0.765625zm-2.6875 -1.328125l2.703125 0q-0.0625 -0.609375 -0.3125 -0.90625q-0.390625 -0.46875 -1.015625 -0.46875q-0.5625 0 -0.953125 0.375q-0.375 0.375 -0.421875 1.0z" fill-rule="nonzero"/><path fill="#000000" fill-opacity="0.0" d="m440.3504 154.70079l155.90552 0l0 30.708664l-155.90552 0z" fill-rule="evenodd"/><path fill="#000000" d="m450.2254 172.66078l0 -6.671875l0.875 0l0 6.671875l-0.875 0zm2.3260193 0l0 -4.84375l0.75 0l0 0.6875q0.53125 -0.796875 1.53125 -0.796875q0.4375 0 0.796875 0.171875q0.375 0.15625 0.546875 0.40625q0.1875 0.25 0.265625 0.609375q0.046875 0.21875 0.046875 0.796875l0 2.96875l-0.828125 0l0 -2.9375q0 -0.5 -0.09375 -0.75q-0.09375 -0.25 -0.34375 -0.390625q-0.234375 -0.15625 -0.5625 -0.15625q-0.515625 0 -0.90625 0.328125q-0.375 0.328125 -0.375 1.265625l0 2.640625l-0.828125 0zm6.984741 -0.734375l0.109375 0.71875q-0.34375 0.078125 -0.609375 0.078125q-0.453125 0 -0.703125 -0.140625q-0.234375 -0.140625 -0.34375 -0.359375q-0.09375 -0.234375 -0.09375 -0.984375l0 -2.78125l-0.609375 0l0 -0.640625l0.609375 0l0 -1.1875l0.8125 -0.5l0 1.6875l0.828125 0l0 0.640625l-0.828125 0l0 2.828125q0 0.359375 0.046875 0.46875q0.046875 0.09375 0.140625 0.15625q0.09375 0.046875 0.28125 0.046875q0.140625 0 0.359375 -0.03125zm4.1073 -0.828125l0.84375 0.109375q-0.1875 0.75 -0.734375 1.15625q-0.546875 0.40625 -1.390625 0.40625q-1.0625 0 -1.6875 -0.65625q-0.609375 -0.65625 -0.609375 -1.828125q0 -1.21875 0.625 -1.890625q0.625 -0.6875 1.625 -0.6875q0.984375 0 1.59375 0.671875q0.609375 0.65625 0.609375 1.859375q0 0.0625 0 0.21875l-3.609375 0q0.046875 0.796875 0.453125 1.21875q0.40625 0.421875 1.015625 0.421875q0.453125 0 0.765625 -0.234375q0.3125 -0.234375 0.5 -0.765625zm-2.6875 -1.328125l2.703125 0q-0.0625 -0.609375 -0.3125 -0.90625q-0.390625 -0.46875 -1.015625 -0.46875q-0.5625 0 -0.953125 0.375q-0.375 0.375 -0.421875 1.0zm4.562866 2.890625l0 -4.84375l0.734375 0l0 0.734375q0.28125 -0.515625 0.515625 -0.671875q0.25 -0.171875 0.53125 -0.171875q0.421875 0 0.84375 0.265625l-0.28125 0.765625q-0.296875 -0.171875 -0.609375 -0.171875q-0.265625 0 -0.484375 0.15625q-0.203125 0.15625 -0.296875 0.453125q-0.140625 0.4375 -0.140625 0.953125l0 2.53125l-0.8125 0zm3.1063232 0l0 -4.84375l0.734375 0l0 0.6875q0.234375 -0.359375 0.609375 -0.578125q0.375 -0.21875 0.859375 -0.21875q0.546875 0 0.890625 0.234375q0.34375 0.21875 0.484375 0.625q0.5625 -0.859375 1.484375 -0.859375q0.71875 0 1.109375 0.40625q0.390625 0.390625 0.390625 1.21875l0 3.328125l-0.8125 0l0 -3.046875q0 -0.484375 -0.09375 -0.703125q-0.078125 -0.21875 -0.28125 -0.34375q-0.203125 -0.140625 -0.484375 -0.140625q-0.515625 0 -0.859375 0.34375q-0.328125 0.328125 -0.328125 1.078125l0 2.8125l-0.828125 0l0 -3.140625q0 -0.546875 -0.203125 -0.8125q-0.1875 -0.28125 -0.65625 -0.28125q-0.34375 0 -0.640625 0.1875q-0.28125 0.171875 -0.421875 0.53125q-0.125 0.34375 -0.125 1.0l0 2.515625l-0.828125 0zm11.082916 -1.5625l0.84375 0.109375q-0.1875 0.75 -0.734375 1.15625q-0.546875 0.40625 -1.390625 0.40625q-1.0625 0 -1.6875 -0.65625q-0.609375 -0.65625 -0.609375 -1.828125q0 -1.21875 0.625 -1.890625q0.625 -0.6875 1.625 -0.6875q0.984375 0 1.59375 0.671875q0.609375 0.65625 0.609375 1.859375q0 0.0625 0 0.21875l-3.609375 0q0.046875 0.796875 0.453125 1.21875q0.40625 0.421875 1.015625 0.421875q0.453125 0 0.765625 -0.234375q0.3125 -0.234375 0.5 -0.765625zm-2.6875 -1.328125l2.703125 0q-0.0625 -0.609375 -0.3125 -0.90625q-0.390625 -0.46875 -1.015625 -0.46875q-0.5625 0 -0.953125 0.375q-0.375 0.375 -0.421875 1.0zm7.703491 2.890625l0 -0.609375q-0.453125 0.71875 -1.34375 0.71875q-0.578125 0 -1.0625 -0.3125q-0.484375 -0.328125 -0.765625 -0.890625q-0.265625 -0.578125 -0.265625 -1.3125q0 -0.734375 0.234375 -1.3125q0.25 -0.59375 0.734375 -0.90625q0.484375 -0.328125 1.078125 -0.328125q0.4375 0 0.78125 0.1875q0.34375 0.1875 0.5625 0.484375l0 -2.390625l0.8125 0l0 6.671875l-0.765625 0zm-2.59375 -2.40625q0 0.921875 0.390625 1.390625q0.390625 0.453125 0.9375 0.453125q0.53125 0 0.90625 -0.4375q0.375 -0.4375 0.375 -1.34375q0 -1.0 -0.390625 -1.453125q-0.375 -0.46875 -0.9375 -0.46875q-0.546875 0 -0.921875 0.453125q-0.359375 0.4375 -0.359375 1.40625zm4.656616 -3.328125l0 -0.9375l0.8125 0l0 0.9375l-0.8125 0zm0 5.734375l0 -4.84375l0.8125 0l0 4.84375l-0.8125 0zm5.213043 -0.59375q-0.453125 0.390625 -0.875 0.546875q-0.421875 0.15625 -0.90625 0.15625q-0.796875 0 -1.21875 -0.390625q-0.421875 -0.390625 -0.421875 -1.0q0 -0.34375 0.15625 -0.640625q0.15625 -0.296875 0.421875 -0.46875q0.265625 -0.1875 0.59375 -0.28125q0.234375 -0.0625 0.71875 -0.109375q1.0 -0.125 1.46875 -0.28125q0 -0.171875 0 -0.21875q0 -0.5 -0.234375 -0.703125q-0.3125 -0.28125 -0.921875 -0.28125q-0.578125 0 -0.859375 0.203125q-0.28125 0.203125 -0.40625 0.71875l-0.796875 -0.109375q0.109375 -0.515625 0.359375 -0.828125q0.25 -0.328125 0.71875 -0.5q0.46875 -0.171875 1.09375 -0.171875q0.625 0 1.0 0.15625q0.390625 0.140625 0.578125 0.359375q0.1875 0.21875 0.25 0.5625q0.046875 0.203125 0.046875 0.75l0 1.09375q0 1.140625 0.046875 1.453125q0.0625 0.296875 0.21875 0.578125l-0.859375 0q-0.125 -0.25 -0.171875 -0.59375zm-0.0625 -1.828125q-0.453125 0.171875 -1.34375 0.296875q-0.5 0.078125 -0.71875 0.171875q-0.203125 0.09375 -0.3125 0.265625q-0.109375 0.171875 -0.109375 0.390625q0 0.328125 0.234375 0.546875q0.25 0.21875 0.734375 0.21875q0.46875 0 0.828125 -0.203125q0.375 -0.21875 0.5625 -0.578125q0.125 -0.265625 0.125 -0.8125l0 -0.296875zm3.8909912 1.6875l0.109375 0.71875q-0.34375 0.078125 -0.609375 0.078125q-0.453125 0 -0.703125 -0.140625q-0.234375 -0.140625 -0.34375 -0.359375q-0.09375 -0.234375 -0.09375 -0.984375l0 -2.78125l-0.609375 0l0 -0.640625l0.609375 0l0 -1.1875l0.8125 -0.5l0 1.6875l0.828125 0l0 0.640625l-0.828125 0l0 2.828125q0 0.359375 0.046875 0.46875q0.046875 0.09375 0.140625 0.15625q0.09375 0.046875 0.28125 0.046875q0.140625 0 0.359375 -0.03125zm4.1072693 -0.828125l0.84375 0.109375q-0.1875 0.75 -0.734375 1.15625q-0.546875 0.40625 -1.390625 0.40625q-1.0625 0 -1.6875 -0.65625q-0.609375 -0.65625 -0.609375 -1.828125q0 -1.21875 0.625 -1.890625q0.625 -0.6875 1.625 -0.6875q0.984375 0 1.59375 0.671875q0.609375 0.65625 0.609375 1.859375q0 0.0625 0 0.21875l-3.609375 0q0.046875 0.796875 0.453125 1.21875q0.40625 0.421875 1.015625 0.421875q0.453125 0 0.765625 -0.234375q0.3125 -0.234375 0.5 -0.765625zm-2.6875 -1.328125l2.703125 0q-0.0625 -0.609375 -0.3125 -0.90625q-0.390625 -0.46875 -1.015625 -0.46875q-0.5625 0 -0.953125 0.375q-0.375 0.375 -0.421875 1.0zm6.826416 1.453125l0.8125 -0.140625q0.078125 0.5 0.390625 0.765625q0.3125 0.25 0.859375 0.25q0.578125 0 0.84375 -0.234375q0.28125 -0.234375 0.28125 -0.53125q0 -0.28125 -0.25 -0.4375q-0.171875 -0.109375 -0.84375 -0.28125q-0.890625 -0.234375 -1.25 -0.390625q-0.34375 -0.171875 -0.53125 -0.46875q-0.171875 -0.296875 -0.171875 -0.640625q0 -0.328125 0.140625 -0.59375q0.15625 -0.28125 0.40625 -0.46875q0.203125 -0.140625 0.53125 -0.234375q0.328125 -0.109375 0.703125 -0.109375q0.578125 0 1.0 0.171875q0.4375 0.15625 0.640625 0.4375q0.203125 0.28125 0.28125 0.75l-0.796875 0.109375q-0.0625 -0.375 -0.328125 -0.578125q-0.265625 -0.203125 -0.734375 -0.203125q-0.5625 0 -0.8125 0.1875q-0.234375 0.171875 -0.234375 0.4375q0 0.15625 0.09375 0.28125q0.109375 0.125 0.3125 0.21875q0.125 0.046875 0.734375 0.203125q0.859375 0.234375 1.203125 0.390625q0.34375 0.140625 0.53125 0.421875q0.203125 0.28125 0.203125 0.703125q0 0.40625 -0.234375 0.78125q-0.234375 0.359375 -0.6875 0.5625q-0.453125 0.1875 -1.015625 0.1875q-0.953125 0 -1.453125 -0.390625q-0.484375 -0.390625 -0.625 -1.15625zm5.0078125 -4.296875l0 -0.9375l0.8125 0l0 0.9375l-0.8125 0zm0 5.734375l0 -4.84375l0.8125 0l0 4.84375l-0.8125 0zm1.9161682 0.40625l0.796875 0.109375q0.046875 0.375 0.28121948 0.546875q0.296875 0.21875 0.828125 0.21875q0.5625 0 0.875 -0.234375q0.3125 -0.21875 0.421875 -0.625q0.0625 -0.25 0.0625 -1.0625q-0.546875 0.640625 -1.34375 0.640625q-0.9999695 0 -1.5468445 -0.71875q-0.546875 -0.71875 -0.546875 -1.734375q0 -0.6875 0.25 -1.265625q0.25 -0.59375 0.71875 -0.90625q0.48434448 -0.328125 1.1249695 -0.328125q0.859375 0 1.421875 0.703125l0 -0.59375l0.75 0l0 4.1875q0 1.125 -0.234375 1.59375q-0.21875 0.484375 -0.71875 0.75q-0.5 0.28125 -1.234375 0.28125q-0.859375 0 -1.3905945 -0.390625q-0.53125 -0.390625 -0.515625 -1.171875zm0.671875 -2.90625q0 0.953125 0.37496948 1.390625q0.390625 0.4375 0.953125 0.4375q0.5625 0 0.9375 -0.4375q0.390625 -0.4375 0.390625 -1.375q0 -0.875 -0.390625 -1.328125q-0.390625 -0.453125 -0.953125 -0.453125q-0.546875 0 -0.9375 0.453125q-0.37496948 0.4375 -0.37496948 1.3125zm4.6565857 2.5l0 -4.84375l0.75 0l0 0.6875q0.53125 -0.796875 1.53125 -0.796875q0.4375 0 0.796875 0.171875q0.375 0.15625 0.546875 0.40625q0.1875 0.25 0.265625 0.609375q0.046875 0.21875 0.046875 0.796875l0 2.96875l-0.828125 0l0 -2.9375q0 -0.5 -0.09375 -0.75q-0.09375 -0.25 -0.34375 -0.390625q-0.234375 -0.15625 -0.5625 -0.15625q-0.515625 0 -0.90625 0.328125q-0.375 0.328125 -0.375 1.265625l0 2.640625l-0.828125 0zm8.344116 -0.59375q-0.453125 0.390625 -0.875 0.546875q-0.421875 0.15625 -0.90625 0.15625q-0.796875 0 -1.21875 -0.390625q-0.421875 -0.390625 -0.421875 -1.0q0 -0.34375 0.15625 -0.640625q0.15625 -0.296875 0.421875 -0.46875q0.265625 -0.1875 0.59375 -0.28125q0.234375 -0.0625 0.71875 -0.109375q1.0 -0.125 1.46875 -0.28125q0 -0.171875 0 -0.21875q0 -0.5 -0.234375 -0.703125q-0.3125 -0.28125 -0.921875 -0.28125q-0.578125 0 -0.859375 0.203125q-0.28125 0.203125 -0.40625 0.71875l-0.796875 -0.109375q0.109375 -0.515625 0.359375 -0.828125q0.25 -0.328125 0.71875 -0.5q0.46875 -0.171875 1.09375 -0.171875q0.625 0 1.0 0.15625q0.390625 0.140625 0.578125 0.359375q0.1875 0.21875 0.25 0.5625q0.046875 0.203125 0.046875 0.75l0 1.09375q0 1.140625 0.046875 1.453125q0.0625 0.296875 0.21875 0.578125l-0.859375 0q-0.125 -0.25 -0.171875 -0.59375zm-0.0625 -1.828125q-0.453125 0.171875 -1.34375 0.296875q-0.5 0.078125 -0.71875 0.171875q-0.203125 0.09375 -0.3125 0.265625q-0.109375 0.171875 -0.109375 0.390625q0 0.328125 0.234375 0.546875q0.25 0.21875 0.734375 0.21875q0.46875 0 0.828125 -0.203125q0.375 -0.21875 0.5625 -0.578125q0.125 -0.265625 0.125 -0.8125l0 -0.296875zm2.0784912 2.421875l0 -6.671875l0.828125 0l0 6.671875l-0.828125 0zm2.1036987 -5.734375l0 -0.9375l0.8125 0l0 0.9375l-0.8125 0zm0 5.734375l0 -4.84375l0.8125 0l0 4.84375l-0.8125 0zm2.0567627 0l0 -4.84375l0.75 0l0 0.6875q0.53125 -0.796875 1.53125 -0.796875q0.4375 0 0.796875 0.171875q0.375 0.15625 0.546875 0.40625q0.1875 0.25 0.265625 0.609375q0.046875 0.21875 0.046875 0.796875l0 2.96875l-0.828125 0l0 -2.9375q0 -0.5 -0.09375 -0.75q-0.09375 -0.25 -0.34375 -0.390625q-0.234375 -0.15625 -0.5625 -0.15625q-0.515625 0 -0.90625 0.328125q-0.375 0.328125 -0.375 1.265625l0 2.640625l-0.828125 0zm5.047241 0.40625l0.796875 0.109375q0.046875 0.375 0.28125 0.546875q0.296875 0.21875 0.828125 0.21875q0.5625 0 0.875 -0.234375q0.3125 -0.21875 0.421875 -0.625q0.0625 -0.25 0.0625 -1.0625q-0.546875 0.640625 -1.34375 0.640625q-1.0 0 -1.546875 -0.71875q-0.546875 -0.71875 -0.546875 -1.734375q0 -0.6875 0.25 -1.265625q0.25 -0.59375 0.71875 -0.90625q0.484375 -0.328125 1.125 -0.328125q0.859375 0 1.421875 0.703125l0 -0.59375l0.75 0l0 4.1875q0 1.125 -0.234375 1.59375q-0.21875 0.484375 -0.71875 0.75q-0.5 0.28125 -1.234375 0.28125q-0.859375 0 -1.390625 -0.390625q-0.53125 -0.390625 -0.515625 -1.171875zm0.671875 -2.90625q0 0.953125 0.375 1.390625q0.390625 0.4375 0.953125 0.4375q0.5625 0 0.9375 -0.4375q0.390625 -0.4375 0.390625 -1.375q0 -0.875 -0.390625 -1.328125q-0.390625 -0.453125 -0.953125 -0.453125q-0.546875 0 -0.9375 0.453125q-0.375 0.4375 -0.375 1.3125zm7.248291 2.5l0 -4.84375l0.75 0l0 0.6875q0.53125 -0.796875 1.53125 -0.796875q0.4375 0 0.796875 0.171875q0.375 0.15625 0.546875 0.40625q0.1875 0.25 0.265625 0.609375q0.046875 0.21875 0.046875 0.796875l0 2.96875l-0.828125 0l0 -2.9375q0 -0.5 -0.09375 -0.75q-0.09375 -0.25 -0.34375 -0.390625q-0.234375 -0.15625 -0.5625 -0.15625q-0.515625 0 -0.90625 0.328125q-0.375 0.328125 -0.375 1.265625l0 2.640625l-0.828125 0zm4.890991 -2.421875q0 -1.34375 0.75 -1.984375q0.625 -0.546875 1.515625 -0.546875q1.0 0 1.625 0.65625q0.640625 0.65625 0.640625 1.8125q0 0.9375 -0.28125 1.46875q-0.28125 0.53125 -0.8125 0.828125q-0.53125 0.296875 -1.171875 0.296875q-1.015625 0 -1.640625 -0.640625q-0.625 -0.65625 -0.625 -1.890625zm0.84375 0q0 0.9375 0.40625 1.40625q0.40625 0.453125 1.015625 0.453125q0.609375 0 1.015625 -0.46875q0.40625 -0.46875 0.40625 -1.421875q0 -0.890625 -0.40625 -1.34375q-0.40625 -0.46875 -1.015625 -0.46875q-0.609375 0 -1.015625 0.46875q-0.40625 0.453125 -0.40625 1.375zm7.781616 2.421875l0 -0.609375q-0.453125 0.71875 -1.34375 0.71875q-0.578125 0 -1.0625 -0.3125q-0.484375 -0.328125 -0.765625 -0.890625q-0.265625 -0.578125 -0.265625 -1.3125q0 -0.734375 0.234375 -1.3125q0.25 -0.59375 0.734375 -0.90625q0.484375 -0.328125 1.078125 -0.328125q0.4375 0 0.78125 0.1875q0.34375 0.1875 0.5625 0.484375l0 -2.390625l0.8125 0l0 6.671875l-0.765625 0zm-2.59375 -2.40625q0 0.921875 0.390625 1.390625q0.390625 0.453125 0.9375 0.453125q0.53125 0 0.90625 -0.4375q0.375 -0.4375 0.375 -1.34375q0 -1.0 -0.390625 -1.453125q-0.375 -0.46875 -0.9375 -0.46875q-0.546875 0 -0.921875 0.453125q-0.359375 0.4375 -0.359375 1.40625zm7.953491 0.84375l0.84375 0.109375q-0.1875 0.75 -0.734375 1.15625q-0.546875 0.40625 -1.390625 0.40625q-1.0625 0 -1.6875 -0.65625q-0.609375 -0.65625 -0.609375 -1.828125q0 -1.21875 0.625 -1.890625q0.625 -0.6875 1.625 -0.6875q0.984375 0 1.59375 0.671875q0.609375 0.65625 0.609375 1.859375q0 0.0625 0 0.21875l-3.609375 0q0.046875 0.796875 0.453125 1.21875q0.40625 0.421875 1.015625 0.421875q0.453125 0 0.765625 -0.234375q0.3125 -0.234375 0.5 -0.765625zm-2.6875 -1.328125l2.703125 0q-0.0625 -0.609375 -0.3125 -0.90625q-0.390625 -0.46875 -1.015625 -0.46875q-0.5625 0 -0.953125 0.375q-0.375 0.375 -0.421875 1.0z" fill-rule="nonzero"/><path fill="#000000" fill-opacity="0.0" d="m440.3504 178.94489l155.90552 0l0 30.708664l-155.90552 0z" fill-rule="evenodd"/><path fill="#000000" d="m451.77228 196.90488l0 -5.890625l-2.203125 0l0 -0.78125l5.296875 0l0 0.78125l-2.21875 0l0 5.890625l-0.875 0zm3.5391235 0l0 -4.84375l0.734375 0l0 0.734375q0.28125 -0.515625 0.515625 -0.671875q0.25 -0.171875 0.53125 -0.171875q0.421875 0 0.84375 0.265625l-0.28125 0.765625q-0.296875 -0.171875 -0.609375 -0.171875q-0.265625 0 -0.484375 0.15625q-0.203125 0.15625 -0.296875 0.453125q-0.140625 0.4375 -0.140625 0.953125l0 2.53125l-0.8125 0zm6.2626038 -0.59375q-0.453125 0.390625 -0.875 0.546875q-0.421875 0.15625 -0.90625 0.15625q-0.796875 0 -1.21875 -0.390625q-0.421875 -0.390625 -0.421875 -1.0q0 -0.34375 0.15625 -0.640625q0.15625 -0.296875 0.421875 -0.46875q0.265625 -0.1875 0.59375 -0.28125q0.234375 -0.0625 0.71875 -0.109375q1.0 -0.125 1.46875 -0.28125q0 -0.171875 0 -0.21875q0 -0.5 -0.234375 -0.703125q-0.3125 -0.28125 -0.921875 -0.28125q-0.578125 0 -0.859375 0.203125q-0.28125 0.203125 -0.40625 0.71875l-0.796875 -0.109375q0.109375 -0.515625 0.359375 -0.828125q0.25 -0.328125 0.71875 -0.5q0.46875 -0.171875 1.09375 -0.171875q0.625 0 1.0 0.15625q0.390625 0.140625 0.578125 0.359375q0.1875 0.21875 0.25 0.5625q0.046875 0.203125 0.046875 0.75l0 1.09375q0 1.140625 0.046875 1.453125q0.0625 0.296875 0.21875 0.578125l-0.859375 0q-0.125 -0.25 -0.171875 -0.59375zm-0.0625 -1.828125q-0.453125 0.171875 -1.34375 0.296875q-0.5 0.078125 -0.71875 0.171875q-0.203125 0.09375 -0.3125 0.265625q-0.109375 0.171875 -0.109375 0.390625q0 0.328125 0.234375 0.546875q0.25 0.21875 0.734375 0.21875q0.46875 0 0.828125 -0.203125q0.375 -0.21875 0.5625 -0.578125q0.125 -0.265625 0.125 -0.8125l0 -0.296875zm2.0941162 2.421875l0 -4.84375l0.75 0l0 0.6875q0.53125 -0.796875 1.53125 -0.796875q0.4375 0 0.796875 0.171875q0.375 0.15625 0.546875 0.40625q0.1875 0.25 0.265625 0.609375q0.046875 0.21875 0.046875 0.796875l0 2.96875l-0.828125 0l0 -2.9375q0 -0.5 -0.09375 -0.75q-0.09375 -0.25 -0.34375 -0.390625q-0.234375 -0.15625 -0.5625 -0.15625q-0.515625 0 -0.90625 0.328125q-0.375 0.328125 -0.375 1.265625l0 2.640625l-0.828125 0zm4.859741 -1.4375l0.8125 -0.140625q0.078125 0.5 0.390625 0.765625q0.3125 0.25 0.859375 0.25q0.578125 0 0.84375 -0.234375q0.28125 -0.234375 0.28125 -0.53125q0 -0.28125 -0.25 -0.4375q-0.171875 -0.109375 -0.84375 -0.28125q-0.890625 -0.234375 -1.25 -0.390625q-0.34375 -0.171875 -0.53125 -0.46875q-0.171875 -0.296875 -0.171875 -0.640625q0 -0.328125 0.140625 -0.59375q0.15625 -0.28125 0.40625 -0.46875q0.203125 -0.140625 0.53125 -0.234375q0.328125 -0.109375 0.703125 -0.109375q0.578125 0 1.0 0.171875q0.4375 0.15625 0.640625 0.4375q0.203125 0.28125 0.28125 0.75l-0.796875 0.109375q-0.0625 -0.375 -0.328125 -0.578125q-0.265625 -0.203125 -0.734375 -0.203125q-0.5625 0 -0.8125 0.1875q-0.234375 0.171875 -0.234375 0.4375q0 0.15625 0.09375 0.28125q0.109375 0.125 0.3125 0.21875q0.125 0.046875 0.734375 0.203125q0.859375 0.234375 1.203125 0.390625q0.34375 0.140625 0.53125 0.421875q0.203125 0.28125 0.203125 0.703125q0 0.40625 -0.234375 0.78125q-0.234375 0.359375 -0.6875 0.5625q-0.453125 0.1875 -1.015625 0.1875q-0.953125 0 -1.453125 -0.390625q-0.484375 -0.390625 -0.625 -1.15625zm8.1484375 -0.328125l0.8125 0.09375q-0.125 0.84375 -0.671875 1.3125q-0.546875 0.46875 -1.34375 0.46875q-0.984375 0 -1.59375 -0.640625q-0.609375 -0.65625 -0.609375 -1.875q0 -0.78125 0.265625 -1.359375q0.265625 -0.59375 0.78125 -0.890625q0.53125 -0.296875 1.15625 -0.296875q0.796875 0 1.296875 0.40625q0.5 0.390625 0.640625 1.125l-0.796875 0.125q-0.109375 -0.484375 -0.40625 -0.71875q-0.28125 -0.25 -0.703125 -0.25q-0.609375 0 -1.0 0.4375q-0.390625 0.4375 -0.390625 1.40625q0 0.96875 0.375 1.421875q0.375 0.4375 0.984375 0.4375q0.46875 0 0.796875 -0.296875q0.328125 -0.296875 0.40625 -0.90625zm1.5078125 1.765625l0 -4.84375l0.734375 0l0 0.734375q0.28125 -0.515625 0.515625 -0.671875q0.25 -0.171875 0.53125 -0.171875q0.421875 0 0.84375 0.265625l-0.28125 0.765625q-0.296875 -0.171875 -0.609375 -0.171875q-0.265625 0 -0.484375 0.15625q-0.203125 0.15625 -0.296875 0.453125q-0.140625 0.4375 -0.140625 0.953125l0 2.53125l-0.8125 0zm3.1219482 -5.734375l0 -0.9375l0.8125 0l0 0.9375l-0.8125 0zm0 5.734375l0 -4.84375l0.8125 0l0 4.84375l-0.8125 0zm2.0567932 1.859375l0 -6.703125l0.75 0l0 0.640625q0.265625 -0.375 0.59375 -0.5625q0.34375 -0.1875 0.8125 -0.1875q0.625 0 1.09375 0.328125q0.46875 0.3125 0.703125 0.90625q0.25 0.578125 0.25 1.265625q0 0.734375 -0.265625 1.328125q-0.265625 0.59375 -0.78125 0.921875q-0.5 0.3125 -1.0625 0.3125q-0.40625 0 -0.734375 -0.171875q-0.328125 -0.171875 -0.53125 -0.4375l0 2.359375l-0.828125 0zm0.75 -4.25q0 0.9375 0.375 1.390625q0.375 0.4375 0.921875 0.4375q0.546875 0 0.921875 -0.453125q0.390625 -0.46875 0.390625 -1.4375q0 -0.9375 -0.375 -1.390625q-0.375 -0.453125 -0.90625 -0.453125q-0.53125 0 -0.9375 0.484375q-0.390625 0.484375 -0.390625 1.421875zm6.234741 1.65625l0.109375 0.71875q-0.34375 0.078125 -0.609375 0.078125q-0.453125 0 -0.703125 -0.140625q-0.234375 -0.140625 -0.34375 -0.359375q-0.09375 -0.234375 -0.09375 -0.984375l0 -2.78125l-0.609375 0l0 -0.640625l0.609375 0l0 -1.1875l0.8125 -0.5l0 1.6875l0.828125 0l0 0.640625l-0.828125 0l0 2.828125q0 0.359375 0.046875 0.46875q0.046875 0.09375 0.140625 0.15625q0.09375 0.046875 0.28125 0.046875q0.140625 0 0.359375 -0.03125zm0.8104248 -5.0l0 -0.9375l0.8125 0l0 0.9375l-0.8125 0zm0 5.734375l0 -4.84375l0.8125 0l0 4.84375l-0.8125 0zm1.7599182 -2.421875q0 -1.34375 0.75 -1.984375q0.625 -0.546875 1.515625 -0.546875q1.0 0 1.625 0.65625q0.640625 0.65625 0.640625 1.8125q0 0.9375 -0.28125 1.46875q-0.28125 0.53125 -0.8125 0.828125q-0.53125 0.296875 -1.171875 0.296875q-1.015625 0 -1.640625 -0.640625q-0.625 -0.65625 -0.625 -1.890625zm0.84375 0q0 0.9375 0.40625 1.40625q0.40625 0.453125 1.015625 0.453125q0.609375 0 1.015625 -0.46875q0.40625 -0.46875 0.40625 -1.421875q0 -0.890625 -0.40625 -1.34375q-0.40625 -0.46875 -1.015625 -0.46875q-0.609375 0 -1.015625 0.46875q-0.40625 0.453125 -0.40625 1.375zm4.640991 2.421875l0 -4.84375l0.75 0l0 0.6875q0.53125 -0.796875 1.53125 -0.796875q0.4375 0 0.796875 0.171875q0.375 0.15625 0.546875 0.40625q0.1875 0.25 0.265625 0.609375q0.046875 0.21875 0.046875 0.796875l0 2.96875l-0.828125 0l0 -2.9375q0 -0.5 -0.09375 -0.75q-0.09375 -0.25 -0.34375 -0.390625q-0.234375 -0.15625 -0.5625 -0.15625q-0.515625 0 -0.90625 0.328125q-0.375 0.328125 -0.375 1.265625l0 2.640625l-0.828125 0zm8.344116 -0.59375q-0.453125 0.390625 -0.875 0.546875q-0.421875 0.15625 -0.90625 0.15625q-0.796875 0 -1.21875 -0.390625q-0.421875 -0.390625 -0.421875 -1.0q0 -0.34375 0.15625 -0.640625q0.15625 -0.296875 0.421875 -0.46875q0.265625 -0.1875 0.59375 -0.28125q0.234375 -0.0625 0.71875 -0.109375q1.0 -0.125 1.46875 -0.28125q0 -0.171875 0 -0.21875q0 -0.5 -0.234375 -0.703125q-0.3125 -0.28125 -0.921875 -0.28125q-0.578125 0 -0.859375 0.203125q-0.28125 0.203125 -0.40625 0.71875l-0.796875 -0.109375q0.109375 -0.515625 0.359375 -0.828125q0.25 -0.328125 0.71875 -0.5q0.46875 -0.171875 1.09375 -0.171875q0.625 0 1.0 0.15625q0.390625 0.140625 0.578125 0.359375q0.1875 0.21875 0.25 0.5625q0.046875 0.203125 0.046875 0.75l0 1.09375q0 1.140625 0.046875 1.453125q0.0625 0.296875 0.21875 0.578125l-0.859375 0q-0.125 -0.25 -0.171875 -0.59375zm-0.0625 -1.828125q-0.453125 0.171875 -1.34375 0.296875q-0.5 0.078125 -0.71875 0.171875q-0.203125 0.09375 -0.3125 0.265625q-0.109375 0.171875 -0.109375 0.390625q0 0.328125 0.234375 0.546875q0.25 0.21875 0.734375 0.21875q0.46875 0 0.828125 -0.203125q0.375 -0.21875 0.5625 -0.578125q0.125 -0.265625 0.125 -0.8125l0 -0.296875zm2.0784912 2.421875l0 -6.671875l0.828125 0l0 6.671875l-0.828125 0zm4.679718 0l0 -4.84375l0.734375 0l0 0.734375q0.28125 -0.515625 0.515625 -0.671875q0.25 -0.171875 0.53125 -0.171875q0.421875 0 0.84375 0.265625l-0.28125 0.765625q-0.296875 -0.171875 -0.609375 -0.171875q-0.265625 0 -0.484375 0.15625q-0.203125 0.15625 -0.296875 0.453125q-0.140625 0.4375 -0.140625 0.953125l0 2.53125l-0.8125 0zm6.4188232 -1.5625l0.84375 0.109375q-0.1875 0.75 -0.734375 1.15625q-0.546875 0.40625 -1.390625 0.40625q-1.0625 0 -1.6875 -0.65625q-0.609375 -0.65625 -0.609375 -1.828125q0 -1.21875 0.625 -1.890625q0.625 -0.6875 1.625 -0.6875q0.984375 0 1.59375 0.671875q0.609375 0.65625 0.609375 1.859375q0 0.0625 0 0.21875l-3.609375 0q0.046875 0.796875 0.453125 1.21875q0.40625 0.421875 1.015625 0.421875q0.453125 0 0.765625 -0.234375q0.3125 -0.234375 0.5 -0.765625zm-2.6875 -1.328125l2.703125 0q-0.0625 -0.609375 -0.3125 -0.90625q-0.390625 -0.46875 -1.015625 -0.46875q-0.5625 0 -0.953125 0.375q-0.375 0.375 -0.421875 1.0zm4.422241 3.296875l0.796875 0.109375q0.046875 0.375 0.28125 0.546875q0.296875 0.21875 0.828125 0.21875q0.5625 0 0.875 -0.234375q0.3125 -0.21875 0.421875 -0.625q0.0625 -0.25 0.0625 -1.0625q-0.546875 0.640625 -1.34375 0.640625q-1.0 0 -1.546875 -0.71875q-0.546875 -0.71875 -0.546875 -1.734375q0 -0.6875 0.25 -1.265625q0.25 -0.59375 0.71875 -0.90625q0.484375 -0.328125 1.125 -0.328125q0.859375 0 1.421875 0.703125l0 -0.59375l0.75 0l0 4.1875q0 1.125 -0.234375 1.59375q-0.21875 0.484375 -0.71875 0.75q-0.5 0.28125 -1.234375 0.28125q-0.859375 0 -1.390625 -0.390625q-0.53125 -0.390625 -0.515625 -1.171875zm0.671875 -2.90625q0 0.953125 0.375 1.390625q0.390625 0.4375 0.953125 0.4375q0.5625 0 0.9375 -0.4375q0.390625 -0.4375 0.390625 -1.375q0 -0.875 -0.390625 -1.328125q-0.390625 -0.453125 -0.953125 -0.453125q-0.546875 0 -0.9375 0.453125q-0.375 0.4375 -0.375 1.3125zm7.828491 2.5l0 -0.703125q-0.5625 0.8125 -1.53125 0.8125q-0.421875 0 -0.796875 -0.15625q-0.375 -0.171875 -0.5625 -0.421875q-0.171875 -0.25 -0.25 -0.609375q-0.046875 -0.234375 -0.046875 -0.765625l0 -3.0l0.828125 0l0 2.6875q0 0.640625 0.046875 0.875q0.078125 0.3125 0.328125 0.5q0.25 0.1875 0.609375 0.1875q0.375 0 0.703125 -0.1875q0.328125 -0.1875 0.453125 -0.515625q0.140625 -0.328125 0.140625 -0.953125l0 -2.59375l0.8125 0l0 4.84375l-0.734375 0zm2.0003662 0l0 -6.671875l0.828125 0l0 6.671875l-0.828125 0zm5.2442627 -0.59375q-0.453125 0.390625 -0.875 0.546875q-0.421875 0.15625 -0.90625 0.15625q-0.796875 0 -1.21875 -0.390625q-0.421875 -0.390625 -0.421875 -1.0q0 -0.34375 0.15625 -0.640625q0.15625 -0.296875 0.421875 -0.46875q0.265625 -0.1875 0.59375 -0.28125q0.234375 -0.0625 0.71875 -0.109375q1.0 -0.125 1.46875 -0.28125q0 -0.171875 0 -0.21875q0 -0.5 -0.234375 -0.703125q-0.3125 -0.28125 -0.921875 -0.28125q-0.578125 0 -0.859375 0.203125q-0.28125 0.203125 -0.40625 0.71875l-0.796875 -0.109375q0.109375 -0.515625 0.359375 -0.828125q0.25 -0.328125 0.71875 -0.5q0.46875 -0.171875 1.09375 -0.171875q0.625 0 1.0 0.15625q0.390625 0.140625 0.578125 0.359375q0.1875 0.21875 0.25 0.5625q0.046875 0.203125 0.046875 0.75l0 1.09375q0 1.140625 0.046875 1.453125q0.0625 0.296875 0.21875 0.578125l-0.859375 0q-0.125 -0.25 -0.171875 -0.59375zm-0.0625 -1.828125q-0.453125 0.171875 -1.34375 0.296875q-0.5 0.078125 -0.71875 0.171875q-0.203125 0.09375 -0.3125 0.265625q-0.109375 0.171875 -0.109375 0.390625q0 0.328125 0.234375 0.546875q0.25 0.21875 0.734375 0.21875q0.46875 0 0.828125 -0.203125q0.375 -0.21875 0.5625 -0.578125q0.125 -0.265625 0.125 -0.8125l0 -0.296875zm3.8909912 1.6875l0.109375 0.71875q-0.34375 0.078125 -0.609375 0.078125q-0.453125 0 -0.703125 -0.140625q-0.234375 -0.140625 -0.34375 -0.359375q-0.09375 -0.234375 -0.09375 -0.984375l0 -2.78125l-0.609375 0l0 -0.640625l0.609375 0l0 -1.1875l0.8125 -0.5l0 1.6875l0.828125 0l0 0.640625l-0.828125 0l0 2.828125q0 0.359375 0.046875 0.46875q0.046875 0.09375 0.140625 0.15625q0.09375 0.046875 0.28125 0.046875q0.140625 0 0.359375 -0.03125zm0.4979248 -1.6875q0 -1.34375 0.75 -1.984375q0.625 -0.546875 1.515625 -0.546875q1.0 0 1.625 0.65625q0.640625 0.65625 0.640625 1.8125q0 0.9375 -0.28125 1.46875q-0.28125 0.53125 -0.8125 0.828125q-0.53125 0.296875 -1.171875 0.296875q-1.015625 0 -1.640625 -0.640625q-0.625 -0.65625 -0.625 -1.890625zm0.84375 0q0 0.9375 0.40625 1.40625q0.40625 0.453125 1.015625 0.453125q0.609375 0 1.015625 -0.46875q0.40625 -0.46875 0.40625 -1.421875q0 -0.890625 -0.40625 -1.34375q-0.40625 -0.46875 -1.015625 -0.46875q-0.609375 0 -1.015625 0.46875q-0.40625 0.453125 -0.40625 1.375zm4.640991 2.421875l0 -4.84375l0.734375 0l0 0.734375q0.28125 -0.515625 0.515625 -0.671875q0.25 -0.171875 0.53125 -0.171875q0.421875 0 0.84375 0.265625l-0.28125 0.765625q-0.296875 -0.171875 -0.609375 -0.171875q-0.265625 0 -0.484375 0.15625q-0.203125 0.15625 -0.296875 0.453125q-0.140625 0.4375 -0.140625 0.953125l0 2.53125l-0.8125 0zm5.697998 0l0 -4.84375l0.75 0l0 0.6875q0.53125 -0.796875 1.53125 -0.796875q0.4375 0 0.796875 0.171875q0.375 0.15625 0.546875 0.40625q0.1875 0.25 0.265625 0.609375q0.046875 0.21875 0.046875 0.796875l0 2.96875l-0.828125 0l0 -2.9375q0 -0.5 -0.09375 -0.75q-0.09375 -0.25 -0.34375 -0.390625q-0.234375 -0.15625 -0.5625 -0.15625q-0.515625 0 -0.90625 0.328125q-0.375 0.328125 -0.375 1.265625l0 2.640625l-0.828125 0zm4.890991 -2.421875q0 -1.34375 0.75 -1.984375q0.625 -0.546875 1.515625 -0.546875q1.0 0 1.625 0.65625q0.640625 0.65625 0.640625 1.8125q0 0.9375 -0.28125 1.46875q-0.28125 0.53125 -0.8125 0.828125q-0.53125 0.296875 -1.171875 0.296875q-1.015625 0 -1.640625 -0.640625q-0.625 -0.65625 -0.625 -1.890625zm0.84375 0q0 0.9375 0.40625 1.40625q0.40625 0.453125 1.015625 0.453125q0.609375 0 1.015625 -0.46875q0.40625 -0.46875 0.40625 -1.421875q0 -0.890625 -0.40625 -1.34375q-0.40625 -0.46875 -1.015625 -0.46875q-0.609375 0 -1.015625 0.46875q-0.40625 0.453125 -0.40625 1.375zm7.781616 2.421875l0 -0.609375q-0.453125 0.71875 -1.34375 0.71875q-0.578125 0 -1.0625 -0.3125q-0.484375 -0.328125 -0.765625 -0.890625q-0.265625 -0.578125 -0.265625 -1.3125q0 -0.734375 0.234375 -1.3125q0.25 -0.59375 0.734375 -0.90625q0.484375 -0.328125 1.078125 -0.328125q0.4375 0 0.78125 0.1875q0.34375 0.1875 0.5625 0.484375l0 -2.390625l0.8125 0l0 6.671875l-0.765625 0zm-2.59375 -2.40625q0 0.921875 0.390625 1.390625q0.390625 0.453125 0.9375 0.453125q0.53125 0 0.90625 -0.4375q0.375 -0.4375 0.375 -1.34375q0 -1.0 -0.390625 -1.453125q-0.375 -0.46875 -0.9375 -0.46875q-0.546875 0 -0.921875 0.453125q-0.359375 0.4375 -0.359375 1.40625zm7.953491 0.84375l0.84375 0.109375q-0.1875 0.75 -0.734375 1.15625q-0.546875 0.40625 -1.390625 0.40625q-1.0625 0 -1.6875 -0.65625q-0.609375 -0.65625 -0.609375 -1.828125q0 -1.21875 0.625 -1.890625q0.625 -0.6875 1.625 -0.6875q0.984375 0 1.59375 0.671875q0.609375 0.65625 0.609375 1.859375q0 0.0625 0 0.21875l-3.609375 0q0.046875 0.796875 0.453125 1.21875q0.40625 0.421875 1.015625 0.421875q0.453125 0 0.765625 -0.234375q0.3125 -0.234375 0.5 -0.765625zm-2.6875 -1.328125l2.703125 0q-0.0625 -0.609375 -0.3125 -0.90625q-0.390625 -0.46875 -1.015625 -0.46875q-0.5625 0 -0.953125 0.375q-0.375 0.375 -0.421875 1.0z" fill-rule="nonzero"/><path fill="#000000" fill-opacity="0.0" d="m440.3504 203.18898l155.90552 0l0 30.708664l-155.90552 0z" fill-rule="evenodd"/><path fill="#000000" d="m451.77228 221.14897l0 -5.890625l-2.203125 0l0 -0.78125l5.296875 0l0 0.78125l-2.21875 0l0 5.890625l-0.875 0zm3.5391235 0l0 -4.84375l0.734375 0l0 0.734375q0.28125 -0.515625 0.515625 -0.671875q0.25 -0.171875 0.53125 -0.171875q0.421875 0 0.84375 0.265625l-0.28125 0.765625q-0.296875 -0.171875 -0.609375 -0.171875q-0.265625 0 -0.484375 0.15625q-0.203125 0.15625 -0.296875 0.453125q-0.140625 0.4375 -0.140625 0.953125l0 2.53125l-0.8125 0zm6.2626038 -0.59375q-0.453125 0.390625 -0.875 0.546875q-0.421875 0.15625 -0.90625 0.15625q-0.796875 0 -1.21875 -0.390625q-0.421875 -0.390625 -0.421875 -1.0q0 -0.34375 0.15625 -0.640625q0.15625 -0.296875 0.421875 -0.46875q0.265625 -0.1875 0.59375 -0.28125q0.234375 -0.0625 0.71875 -0.109375q1.0 -0.125 1.46875 -0.28125q0 -0.171875 0 -0.21875q0 -0.5 -0.234375 -0.703125q-0.3125 -0.28125 -0.921875 -0.28125q-0.578125 0 -0.859375 0.203125q-0.28125 0.203125 -0.40625 0.71875l-0.796875 -0.109375q0.109375 -0.515625 0.359375 -0.828125q0.25 -0.328125 0.71875 -0.5q0.46875 -0.171875 1.09375 -0.171875q0.625 0 1.0 0.15625q0.390625 0.140625 0.578125 0.359375q0.1875 0.21875 0.25 0.5625q0.046875 0.203125 0.046875 0.75l0 1.09375q0 1.140625 0.046875 1.453125q0.0625 0.296875 0.21875 0.578125l-0.859375 0q-0.125 -0.25 -0.171875 -0.59375zm-0.0625 -1.828125q-0.453125 0.171875 -1.34375 0.296875q-0.5 0.078125 -0.71875 0.171875q-0.203125 0.09375 -0.3125 0.265625q-0.109375 0.171875 -0.109375 0.390625q0 0.328125 0.234375 0.546875q0.25 0.21875 0.734375 0.21875q0.46875 0 0.828125 -0.203125q0.375 -0.21875 0.5625 -0.578125q0.125 -0.265625 0.125 -0.8125l0 -0.296875zm2.0941162 2.421875l0 -4.84375l0.75 0l0 0.6875q0.53125 -0.796875 1.53125 -0.796875q0.4375 0 0.796875 0.171875q0.375 0.15625 0.546875 0.40625q0.1875 0.25 0.265625 0.609375q0.046875 0.21875 0.046875 0.796875l0 2.96875l-0.828125 0l0 -2.9375q0 -0.5 -0.09375 -0.75q-0.09375 -0.25 -0.34375 -0.390625q-0.234375 -0.15625 -0.5625 -0.15625q-0.515625 0 -0.90625 0.328125q-0.375 0.328125 -0.375 1.265625l0 2.640625l-0.828125 0zm4.859741 -1.4375l0.8125 -0.140625q0.078125 0.5 0.390625 0.765625q0.3125 0.25 0.859375 0.25q0.578125 0 0.84375 -0.234375q0.28125 -0.234375 0.28125 -0.53125q0 -0.28125 -0.25 -0.4375q-0.171875 -0.109375 -0.84375 -0.28125q-0.890625 -0.234375 -1.25 -0.390625q-0.34375 -0.171875 -0.53125 -0.46875q-0.171875 -0.296875 -0.171875 -0.640625q0 -0.328125 0.140625 -0.59375q0.15625 -0.28125 0.40625 -0.46875q0.203125 -0.140625 0.53125 -0.234375q0.328125 -0.109375 0.703125 -0.109375q0.578125 0 1.0 0.171875q0.4375 0.15625 0.640625 0.4375q0.203125 0.28125 0.28125 0.75l-0.796875 0.109375q-0.0625 -0.375 -0.328125 -0.578125q-0.265625 -0.203125 -0.734375 -0.203125q-0.5625 0 -0.8125 0.1875q-0.234375 0.171875 -0.234375 0.4375q0 0.15625 0.09375 0.28125q0.109375 0.125 0.3125 0.21875q0.125 0.046875 0.734375 0.203125q0.859375 0.234375 1.203125 0.390625q0.34375 0.140625 0.53125 0.421875q0.203125 0.28125 0.203125 0.703125q0 0.40625 -0.234375 0.78125q-0.234375 0.359375 -0.6875 0.5625q-0.453125 0.1875 -1.015625 0.1875q-0.953125 0 -1.453125 -0.390625q-0.484375 -0.390625 -0.625 -1.15625zm8.1484375 -0.328125l0.8125 0.09375q-0.125 0.84375 -0.671875 1.3125q-0.546875 0.46875 -1.34375 0.46875q-0.984375 0 -1.59375 -0.640625q-0.609375 -0.65625 -0.609375 -1.875q0 -0.78125 0.265625 -1.359375q0.265625 -0.59375 0.78125 -0.890625q0.53125 -0.296875 1.15625 -0.296875q0.796875 0 1.296875 0.40625q0.5 0.390625 0.640625 1.125l-0.796875 0.125q-0.109375 -0.484375 -0.40625 -0.71875q-0.28125 -0.25 -0.703125 -0.25q-0.609375 0 -1.0 0.4375q-0.390625 0.4375 -0.390625 1.40625q0 0.96875 0.375 1.421875q0.375 0.4375 0.984375 0.4375q0.46875 0 0.796875 -0.296875q0.328125 -0.296875 0.40625 -0.90625zm1.5078125 1.765625l0 -4.84375l0.734375 0l0 0.734375q0.28125 -0.515625 0.515625 -0.671875q0.25 -0.171875 0.53125 -0.171875q0.421875 0 0.84375 0.265625l-0.28125 0.765625q-0.296875 -0.171875 -0.609375 -0.171875q-0.265625 0 -0.484375 0.15625q-0.203125 0.15625 -0.296875 0.453125q-0.140625 0.4375 -0.140625 0.953125l0 2.53125l-0.8125 0zm3.1219482 -5.734375l0 -0.9375l0.8125 0l0 0.9375l-0.8125 0zm0 5.734375l0 -4.84375l0.8125 0l0 4.84375l-0.8125 0zm2.0567932 1.859375l0 -6.703125l0.75 0l0 0.640625q0.265625 -0.375 0.59375 -0.5625q0.34375 -0.1875 0.8125 -0.1875q0.625 0 1.09375 0.328125q0.46875 0.3125 0.703125 0.90625q0.25 0.578125 0.25 1.265625q0 0.734375 -0.265625 1.328125q-0.265625 0.59375 -0.78125 0.921875q-0.5 0.3125 -1.0625 0.3125q-0.40625 0 -0.734375 -0.171875q-0.328125 -0.171875 -0.53125 -0.4375l0 2.359375l-0.828125 0zm0.75 -4.25q0 0.9375 0.375 1.390625q0.375 0.4375 0.921875 0.4375q0.546875 0 0.921875 -0.453125q0.390625 -0.46875 0.390625 -1.4375q0 -0.9375 -0.375 -1.390625q-0.375 -0.453125 -0.90625 -0.453125q-0.53125 0 -0.9375 0.484375q-0.390625 0.484375 -0.390625 1.421875zm6.234741 1.65625l0.109375 0.71875q-0.34375 0.078125 -0.609375 0.078125q-0.453125 0 -0.703125 -0.140625q-0.234375 -0.140625 -0.34375 -0.359375q-0.09375 -0.234375 -0.09375 -0.984375l0 -2.78125l-0.609375 0l0 -0.640625l0.609375 0l0 -1.1875l0.8125 -0.5l0 1.6875l0.828125 0l0 0.640625l-0.828125 0l0 2.828125q0 0.359375 0.046875 0.46875q0.046875 0.09375 0.140625 0.15625q0.09375 0.046875 0.28125 0.046875q0.140625 0 0.359375 -0.03125zm0.8104248 -5.0l0 -0.9375l0.8125 0l0 0.9375l-0.8125 0zm0 5.734375l0 -4.84375l0.8125 0l0 4.84375l-0.8125 0zm1.7599182 -2.421875q0 -1.34375 0.75 -1.984375q0.625 -0.546875 1.515625 -0.546875q1.0 0 1.625 0.65625q0.640625 0.65625 0.640625 1.8125q0 0.9375 -0.28125 1.46875q-0.28125 0.53125 -0.8125 0.828125q-0.53125 0.296875 -1.171875 0.296875q-1.015625 0 -1.640625 -0.640625q-0.625 -0.65625 -0.625 -1.890625zm0.84375 0q0 0.9375 0.40625 1.40625q0.40625 0.453125 1.015625 0.453125q0.609375 0 1.015625 -0.46875q0.40625 -0.46875 0.40625 -1.421875q0 -0.890625 -0.40625 -1.34375q-0.40625 -0.46875 -1.015625 -0.46875q-0.609375 0 -1.015625 0.46875q-0.40625 0.453125 -0.40625 1.375zm4.640991 2.421875l0 -4.84375l0.75 0l0 0.6875q0.53125 -0.796875 1.53125 -0.796875q0.4375 0 0.796875 0.171875q0.375 0.15625 0.546875 0.40625q0.1875 0.25 0.265625 0.609375q0.046875 0.21875 0.046875 0.796875l0 2.96875l-0.828125 0l0 -2.9375q0 -0.5 -0.09375 -0.75q-0.09375 -0.25 -0.34375 -0.390625q-0.234375 -0.15625 -0.5625 -0.15625q-0.515625 0 -0.90625 0.328125q-0.375 0.328125 -0.375 1.265625l0 2.640625l-0.828125 0zm8.344116 -0.59375q-0.453125 0.390625 -0.875 0.546875q-0.421875 0.15625 -0.90625 0.15625q-0.796875 0 -1.21875 -0.390625q-0.421875 -0.390625 -0.421875 -1.0q0 -0.34375 0.15625 -0.640625q0.15625 -0.296875 0.421875 -0.46875q0.265625 -0.1875 0.59375 -0.28125q0.234375 -0.0625 0.71875 -0.109375q1.0 -0.125 1.46875 -0.28125q0 -0.171875 0 -0.21875q0 -0.5 -0.234375 -0.703125q-0.3125 -0.28125 -0.921875 -0.28125q-0.578125 0 -0.859375 0.203125q-0.28125 0.203125 -0.40625 0.71875l-0.796875 -0.109375q0.109375 -0.515625 0.359375 -0.828125q0.25 -0.328125 0.71875 -0.5q0.46875 -0.171875 1.09375 -0.171875q0.625 0 1.0 0.15625q0.390625 0.140625 0.578125 0.359375q0.1875 0.21875 0.25 0.5625q0.046875 0.203125 0.046875 0.75l0 1.09375q0 1.140625 0.046875 1.453125q0.0625 0.296875 0.21875 0.578125l-0.859375 0q-0.125 -0.25 -0.171875 -0.59375zm-0.0625 -1.828125q-0.453125 0.171875 -1.34375 0.296875q-0.5 0.078125 -0.71875 0.171875q-0.203125 0.09375 -0.3125 0.265625q-0.109375 0.171875 -0.109375 0.390625q0 0.328125 0.234375 0.546875q0.25 0.21875 0.734375 0.21875q0.46875 0 0.828125 -0.203125q0.375 -0.21875 0.5625 -0.578125q0.125 -0.265625 0.125 -0.8125l0 -0.296875zm2.0784912 2.421875l0 -6.671875l0.828125 0l0 6.671875l-0.828125 0zm6.476593 -0.734375l0.109375 0.71875q-0.34375 0.078125 -0.609375 0.078125q-0.453125 0 -0.703125 -0.140625q-0.234375 -0.140625 -0.34375 -0.359375q-0.09375 -0.234375 -0.09375 -0.984375l0 -2.78125l-0.609375 0l0 -0.640625l0.609375 0l0 -1.1875l0.8125 -0.5l0 1.6875l0.828125 0l0 0.640625l-0.828125 0l0 2.828125q0 0.359375 0.046875 0.46875q0.046875 0.09375 0.140625 0.15625q0.09375 0.046875 0.28125 0.046875q0.140625 0 0.359375 -0.03125zm3.9509888 0.140625q-0.453125 0.390625 -0.875 0.546875q-0.421875 0.15625 -0.90625 0.15625q-0.796875 0 -1.21875 -0.390625q-0.421875 -0.390625 -0.421875 -1.0q0 -0.34375 0.15625 -0.640625q0.15625 -0.296875 0.421875 -0.46875q0.265625 -0.1875 0.59375 -0.28125q0.234375 -0.0625 0.71875 -0.109375q1.0 -0.125 1.46875 -0.28125q0 -0.171875 0 -0.21875q0 -0.5 -0.234375 -0.703125q-0.3125 -0.28125 -0.921875 -0.28125q-0.578125 0 -0.859375 0.203125q-0.28125 0.203125 -0.40625 0.71875l-0.796875 -0.109375q0.109375 -0.515625 0.359375 -0.828125q0.25 -0.328125 0.71875 -0.5q0.46875 -0.171875 1.09375 -0.171875q0.625 0 1.0 0.15625q0.390625 0.140625 0.578125 0.359375q0.1875 0.21875 0.25 0.5625q0.046875 0.203125 0.046875 0.75l0 1.09375q0 1.140625 0.046875 1.453125q0.0625 0.296875 0.21875 0.578125l-0.859375 0q-0.125 -0.25 -0.171875 -0.59375zm-0.0625 -1.828125q-0.453125 0.171875 -1.34375 0.296875q-0.5 0.078125 -0.71875 0.171875q-0.203125 0.09375 -0.3125 0.265625q-0.109375 0.171875 -0.109375 0.390625q0 0.328125 0.234375 0.546875q0.25 0.21875 0.734375 0.21875q0.46875 0 0.828125 -0.203125q0.375 -0.21875 0.5625 -0.578125q0.125 -0.265625 0.125 -0.8125l0 -0.296875zm2.0941162 2.421875l0 -4.84375l0.734375 0l0 0.734375q0.28125 -0.515625 0.515625 -0.671875q0.25 -0.171875 0.53125 -0.171875q0.421875 0 0.84375 0.265625l-0.28125 0.765625q-0.296875 -0.171875 -0.609375 -0.171875q-0.265625 0 -0.484375 0.15625q-0.203125 0.15625 -0.296875 0.453125q-0.140625 0.4375 -0.140625 0.953125l0 2.53125l-0.8125 0zm2.9657593 0.40625l0.796875 0.109375q0.046875 0.375 0.28125 0.546875q0.296875 0.21875 0.828125 0.21875q0.5625 0 0.875 -0.234375q0.3125 -0.21875 0.421875 -0.625q0.0625 -0.25 0.0625 -1.0625q-0.546875 0.640625 -1.34375 0.640625q-1.0 0 -1.546875 -0.71875q-0.546875 -0.71875 -0.546875 -1.734375q0 -0.6875 0.25 -1.265625q0.25 -0.59375 0.71875 -0.90625q0.484375 -0.328125 1.125 -0.328125q0.859375 0 1.421875 0.703125l0 -0.59375l0.75 0l0 4.1875q0 1.125 -0.234375 1.59375q-0.21875 0.484375 -0.71875 0.75q-0.5 0.28125 -1.234375 0.28125q-0.859375 0 -1.390625 -0.390625q-0.53125 -0.390625 -0.515625 -1.171875zm0.671875 -2.90625q0 0.953125 0.375 1.390625q0.390625 0.4375 0.953125 0.4375q0.5625 0 0.9375 -0.4375q0.390625 -0.4375 0.390625 -1.375q0 -0.875 -0.390625 -1.328125q-0.390625 -0.453125 -0.953125 -0.453125q-0.546875 0 -0.9375 0.453125q-0.375 0.4375 -0.375 1.3125zm7.969116 0.9375l0.84375 0.109375q-0.1875 0.75 -0.734375 1.15625q-0.546875 0.40625 -1.390625 0.40625q-1.0625 0 -1.6875 -0.65625q-0.609375 -0.65625 -0.609375 -1.828125q0 -1.21875 0.625 -1.890625q0.625 -0.6875 1.625 -0.6875q0.984375 0 1.59375 0.671875q0.609375 0.65625 0.609375 1.859375q0 0.0625 0 0.21875l-3.609375 0q0.046875 0.796875 0.453125 1.21875q0.40625 0.421875 1.015625 0.421875q0.453125 0 0.765625 -0.234375q0.3125 -0.234375 0.5 -0.765625zm-2.6875 -1.328125l2.703125 0q-0.0625 -0.609375 -0.3125 -0.90625q-0.390625 -0.46875 -1.015625 -0.46875q-0.5625 0 -0.953125 0.375q-0.375 0.375 -0.421875 1.0zm6.359741 2.15625l0.109375 0.71875q-0.34375 0.078125 -0.609375 0.078125q-0.453125 0 -0.703125 -0.140625q-0.234375 -0.140625 -0.34375 -0.359375q-0.09375 -0.234375 -0.09375 -0.984375l0 -2.78125l-0.609375 0l0 -0.640625l0.609375 0l0 -1.1875l0.8125 -0.5l0 1.6875l0.828125 0l0 0.640625l-0.828125 0l0 2.828125q0 0.359375 0.046875 0.46875q0.046875 0.09375 0.140625 0.15625q0.09375 0.046875 0.28125 0.046875q0.140625 0 0.359375 -0.03125zm3.3864136 0.734375l0 -4.84375l0.75 0l0 0.6875q0.53125 -0.796875 1.53125 -0.796875q0.4375 0 0.796875 0.171875q0.375 0.15625 0.546875 0.40625q0.1875 0.25 0.265625 0.609375q0.046875 0.21875 0.046875 0.796875l0 2.96875l-0.828125 0l0 -2.9375q0 -0.5 -0.09375 -0.75q-0.09375 -0.25 -0.34375 -0.390625q-0.234375 -0.15625 -0.5625 -0.15625q-0.515625 0 -0.90625 0.328125q-0.375 0.328125 -0.375 1.265625l0 2.640625l-0.828125 0zm4.890991 -2.421875q0 -1.34375 0.75 -1.984375q0.625 -0.546875 1.515625 -0.546875q1.0 0 1.625 0.65625q0.640625 0.65625 0.640625 1.8125q0 0.9375 -0.28125 1.46875q-0.28125 0.53125 -0.8125 0.828125q-0.53125 0.296875 -1.171875 0.296875q-1.015625 0 -1.640625 -0.640625q-0.625 -0.65625 -0.625 -1.890625zm0.84375 0q0 0.9375 0.40625 1.40625q0.40625 0.453125 1.015625 0.453125q0.609375 0 1.015625 -0.46875q0.40625 -0.46875 0.40625 -1.421875q0 -0.890625 -0.40625 -1.34375q-0.40625 -0.46875 -1.015625 -0.46875q-0.609375 0 -1.015625 0.46875q-0.40625 0.453125 -0.40625 1.375zm7.781616 2.421875l0 -0.609375q-0.453125 0.71875 -1.34375 0.71875q-0.578125 0 -1.0625 -0.3125q-0.484375 -0.328125 -0.765625 -0.890625q-0.265625 -0.578125 -0.265625 -1.3125q0 -0.734375 0.234375 -1.3125q0.25 -0.59375 0.734375 -0.90625q0.484375 -0.328125 1.078125 -0.328125q0.4375 0 0.78125 0.1875q0.34375 0.1875 0.5625 0.484375l0 -2.390625l0.8125 0l0 6.671875l-0.765625 0zm-2.59375 -2.40625q0 0.921875 0.390625 1.390625q0.390625 0.453125 0.9375 0.453125q0.53125 0 0.90625 -0.4375q0.375 -0.4375 0.375 -1.34375q0 -1.0 -0.390625 -1.453125q-0.375 -0.46875 -0.9375 -0.46875q-0.546875 0 -0.921875 0.453125q-0.359375 0.4375 -0.359375 1.40625zm7.953491 0.84375l0.84375 0.109375q-0.1875 0.75 -0.734375 1.15625q-0.546875 0.40625 -1.390625 0.40625q-1.0625 0 -1.6875 -0.65625q-0.609375 -0.65625 -0.609375 -1.828125q0 -1.21875 0.625 -1.890625q0.625 -0.6875 1.625 -0.6875q0.984375 0 1.59375 0.671875q0.609375 0.65625 0.609375 1.859375q0 0.0625 0 0.21875l-3.609375 0q0.046875 0.796875 0.453125 1.21875q0.40625 0.421875 1.015625 0.421875q0.453125 0 0.765625 -0.234375q0.3125 -0.234375 0.5 -0.765625zm-2.6875 -1.328125l2.703125 0q-0.0625 -0.609375 -0.3125 -0.90625q-0.390625 -0.46875 -1.015625 -0.46875q-0.5625 0 -0.953125 0.375q-0.375 0.375 -0.421875 1.0z" fill-rule="nonzero"/><path fill="#000000" fill-opacity="0.0" d="m440.3504 227.43307l155.90552 0l0 30.708649l-155.90552 0z" fill-rule="evenodd"/><path fill="#000000" d="m450.0379 245.39307l0 -6.671875l0.875 0l0 5.890625l3.296875 0l0 0.78125l-4.171875 0zm5.125366 -5.734375l0 -0.9375l0.8125 0l0 0.9375l-0.8125 0zm0 5.734375l0 -4.84375l0.8125 0l0 4.84375l-0.8125 0zm1.9161682 0.40625l0.796875 0.109375q0.046875 0.375 0.28125 0.546875q0.296875 0.21875 0.828125 0.21875q0.5625 0 0.875 -0.234375q0.3125 -0.21875 0.421875 -0.625q0.0625 -0.25 0.0625 -1.0625q-0.546875 0.640625 -1.34375 0.640625q-1.0 0 -1.546875 -0.71875q-0.546875 -0.71875 -0.546875 -1.734375q0 -0.6875 0.25 -1.265625q0.25 -0.59375 0.71875 -0.90625q0.484375 -0.328125 1.125 -0.328125q0.859375 0 1.421875 0.703125l0 -0.59375l0.75 0l0 4.1875q0 1.125 -0.234375 1.59375q-0.21875 0.484375 -0.71875 0.75q-0.5 0.28125 -1.234375 0.28125q-0.859375 0 -1.390625 -0.390625q-0.53125 -0.390625 -0.515625 -1.171875zm0.671875 -2.90625q0 0.953125 0.375 1.390625q0.390625 0.4375 0.953125 0.4375q0.5625 0 0.9375 -0.4375q0.390625 -0.4375 0.390625 -1.375q0 -0.875 -0.390625 -1.328125q-0.390625 -0.453125 -0.953125 -0.453125q-0.546875 0 -0.9375 0.453125q-0.375 0.4375 -0.375 1.3125zm7.812866 1.90625q-0.453125 0.390625 -0.875 0.546875q-0.421875 0.15625 -0.90625 0.15625q-0.796875 0 -1.21875 -0.390625q-0.421875 -0.390625 -0.421875 -1.0q0 -0.34375 0.15625 -0.640625q0.15625 -0.296875 0.421875 -0.46875q0.265625 -0.1875 0.59375 -0.28125q0.234375 -0.0625 0.71875 -0.109375q1.0 -0.125 1.46875 -0.28125q0 -0.171875 0 -0.21875q0 -0.5 -0.234375 -0.703125q-0.3125 -0.28125 -0.921875 -0.28125q-0.578125 0 -0.859375 0.203125q-0.28125 0.203125 -0.40625 0.71875l-0.796875 -0.109375q0.109375 -0.515625 0.359375 -0.828125q0.25 -0.328125 0.71875 -0.5q0.46875 -0.171875 1.09375 -0.171875q0.625 0 1.0 0.15625q0.390625 0.140625 0.578125 0.359375q0.1875 0.21875 0.25 0.5625q0.046875 0.203125 0.046875 0.75l0 1.09375q0 1.140625 0.046875 1.453125q0.0625 0.296875 0.21875 0.578125l-0.859375 0q-0.125 -0.25 -0.171875 -0.59375zm-0.0625 -1.828125q-0.453125 0.171875 -1.34375 0.296875q-0.5 0.078125 -0.71875 0.171875q-0.203125 0.09375 -0.3125 0.265625q-0.109375 0.171875 -0.109375 0.390625q0 0.328125 0.234375 0.546875q0.25 0.21875 0.734375 0.21875q0.46875 0 0.828125 -0.203125q0.375 -0.21875 0.5625 -0.578125q0.125 -0.265625 0.125 -0.8125l0 -0.296875zm2.0941162 2.421875l0 -4.84375l0.75 0l0 0.6875q0.53125 -0.796875 1.53125 -0.796875q0.4375 0 0.796875 0.171875q0.375 0.15625 0.546875 0.40625q0.1875 0.25 0.265625 0.609375q0.046875 0.21875 0.046875 0.796875l0 2.96875l-0.828125 0l0 -2.9375q0 -0.5 -0.09375 -0.75q-0.09375 -0.25 -0.34375 -0.390625q-0.234375 -0.15625 -0.5625 -0.15625q-0.515625 0 -0.90625 0.328125q-0.375 0.328125 -0.375 1.265625l0 2.640625l-0.828125 0zm8.328491 0l0 -0.609375q-0.453125 0.71875 -1.34375 0.71875q-0.578125 0 -1.0625 -0.3125q-0.484375 -0.328125 -0.765625 -0.890625q-0.265625 -0.578125 -0.265625 -1.3125q0 -0.734375 0.234375 -1.3125q0.25 -0.59375 0.734375 -0.90625q0.484375 -0.328125 1.078125 -0.328125q0.4375 0 0.78125 0.1875q0.34375 0.1875 0.5625 0.484375l0 -2.390625l0.8125 0l0 6.671875l-0.765625 0zm-2.59375 -2.40625q0 0.921875 0.390625 1.390625q0.390625 0.453125 0.9375 0.453125q0.53125 0 0.90625 -0.4375q0.375 -0.4375 0.375 -1.34375q0 -1.0 -0.390625 -1.453125q-0.375 -0.46875 -0.9375 -0.46875q-0.546875 0 -0.921875 0.453125q-0.359375 0.4375 -0.359375 1.40625zm7.2326355 2.40625l0 -4.84375l0.75 0l0 0.6875q0.53125 -0.796875 1.53125 -0.796875q0.4375 0 0.796875 0.171875q0.375 0.15625 0.546875 0.40625q0.1875 0.25 0.265625 0.609375q0.046875 0.21875 0.046875 0.796875l0 2.96875l-0.828125 0l0 -2.9375q0 -0.5 -0.09375 -0.75q-0.09375 -0.25 -0.34375 -0.390625q-0.234375 -0.15625 -0.5625 -0.15625q-0.515625 0 -0.90625 0.328125q-0.375 0.328125 -0.375 1.265625l0 2.640625l-0.828125 0zm4.890991 -2.421875q0 -1.34375 0.75 -1.984375q0.625 -0.546875 1.515625 -0.546875q1.0 0 1.625 0.65625q0.640625 0.65625 0.640625 1.8125q0 0.9375 -0.28125 1.46875q-0.28125 0.53125 -0.8125 0.828125q-0.53125 0.296875 -1.171875 0.296875q-1.015625 0 -1.640625 -0.640625q-0.625 -0.65625 -0.625 -1.890625zm0.84375 0q0 0.9375 0.40625 1.40625q0.40625 0.453125 1.015625 0.453125q0.609375 0 1.015625 -0.46875q0.40625 -0.46875 0.40625 -1.421875q0 -0.890625 -0.40625 -1.34375q-0.40625 -0.46875 -1.015625 -0.46875q-0.609375 0 -1.015625 0.46875q-0.40625 0.453125 -0.40625 1.375zm7.781616 2.421875l0 -0.609375q-0.453125 0.71875 -1.34375 0.71875q-0.578125 0 -1.0625 -0.3125q-0.484375 -0.328125 -0.765625 -0.890625q-0.265625 -0.578125 -0.265625 -1.3125q0 -0.734375 0.234375 -1.3125q0.25 -0.59375 0.734375 -0.90625q0.484375 -0.328125 1.078125 -0.328125q0.4375 0 0.78125 0.1875q0.34375 0.1875 0.5625 0.484375l0 -2.390625l0.8125 0l0 6.671875l-0.765625 0zm-2.59375 -2.40625q0 0.921875 0.390625 1.390625q0.390625 0.453125 0.9375 0.453125q0.53125 0 0.90625 -0.4375q0.375 -0.4375 0.375 -1.34375q0 -1.0 -0.390625 -1.453125q-0.375 -0.46875 -0.9375 -0.46875q-0.546875 0 -0.921875 0.453125q-0.359375 0.4375 -0.359375 1.40625zm7.953491 0.84375l0.84375 0.109375q-0.1875 0.75 -0.734375 1.15625q-0.546875 0.40625 -1.390625 0.40625q-1.0625 0 -1.6875 -0.65625q-0.609375 -0.65625 -0.609375 -1.828125q0 -1.21875 0.625 -1.890625q0.625 -0.6875 1.625 -0.6875q0.984375 0 1.59375 0.671875q0.609375 0.65625 0.609375 1.859375q0 0.0625 0 0.21875l-3.609375 0q0.046875 0.796875 0.453125 1.21875q0.40625 0.421875 1.015625 0.421875q0.453125 0 0.765625 -0.234375q0.3125 -0.234375 0.5 -0.765625zm-2.6875 -1.328125l2.703125 0q-0.0625 -0.609375 -0.3125 -0.90625q-0.390625 -0.46875 -1.015625 -0.46875q-0.5625 0 -0.953125 0.375q-0.375 0.375 -0.421875 1.0z" fill-rule="nonzero"/><path fill="#000000" fill-opacity="0.0" d="m36.01181 300.2546l95.81102 -0.881897" fill-rule="evenodd"/><path stroke="#595959" stroke-width="1.0" stroke-linejoin="round" stroke-linecap="butt" d="m36.01181 300.2546l95.81102 -0.881897" fill-rule="evenodd"/><path fill="#000000" fill-opacity="0.0" d="m36.01181 299.3727l95.81102 0l0 40.409454l-95.81102 0z" fill-rule="evenodd"/><path fill="#000000" d="m58.775192 325.0127l0 -12.296875l2.5 0l0 10.203125l6.234375 0l0 2.09375l-8.734375 0zm10.444092 0l0 -12.40625l2.5 0l0 12.40625l-2.5 0zm16.07994 0l-2.734375 0l-1.078125 -2.8125l-4.953125 0l-1.03125 2.8125l-2.65625 0l4.828125 -12.40625l2.65625 0l4.96875 12.40625zm-4.625 -4.90625l-1.703125 -4.609375l-1.671875 4.609375l3.375 0zm5.9669495 4.90625l0 -12.40625l2.4375 0l5.078125 8.28125l0 -8.28125l2.328125 0l0 12.40625l-2.515625 0l-5.0 -8.09375l0 8.09375l-2.328125 0zm23.6857 0l-2.734375 0l-1.078125 -2.8125l-4.953125 0l-1.03125 2.8125l-2.65625 0l4.828125 -12.40625l2.65625 0l4.96875 12.40625zm-4.625 -4.90625l-1.703125 -4.609375l-1.671875 4.609375l3.375 0z" fill-rule="nonzero"/><path fill="#000000" fill-opacity="0.0" d="m36.01181 349.64566l336.37796 -0.88186646" fill-rule="evenodd"/><path stroke="#595959" stroke-width="1.0" stroke-linejoin="round" stroke-linecap="butt" d="m36.01181 349.64566l336.37796 -0.88186646" fill-rule="evenodd"/><path fill="#000000" fill-opacity="0.0" d="m36.01181 348.7638l336.37796 0l0 40.409424l-336.37796 0z" fill-rule="evenodd"/><path fill="#000000" d="m167.92787 374.40378l0 -12.40625l2.4375 0l5.078125 8.28125l0 -8.28125l2.328125 0l0 12.40625l-2.515625 0l-5.0 -8.09375l0 8.09375l-2.328125 0zm12.482574 -10.203125l0 -2.203125l2.375 0l0 2.203125l-2.375 0zm0 10.203125l0 -8.984375l2.375 0l0 8.984375l-2.375 0zm12.642441 -6.328125l-2.34375 0.421875q-0.125 -0.703125 -0.546875 -1.046875q-0.40625 -0.359375 -1.078125 -0.359375q-0.890625 0 -1.421875 0.609375q-0.515625 0.609375 -0.515625 2.046875q0 1.609375 0.53125 2.265625q0.53125 0.65625 1.4375 0.65625q0.6875 0 1.109375 -0.375q0.4375 -0.390625 0.609375 -1.328125l2.34375 0.390625q-0.375 1.609375 -1.40625 2.4375q-1.03125 0.8125 -2.765625 0.8125q-1.96875 0 -3.140625 -1.234375q-1.171875 -1.25 -1.171875 -3.453125q0 -2.21875 1.171875 -3.453125q1.1875 -1.25 3.1875 -1.25q1.640625 0 2.609375 0.703125q0.96875 0.703125 1.390625 2.15625zm4.168335 -6.078125l0 4.5625q1.15625 -1.34375 2.75 -1.34375q0.828125 0 1.484375 0.3125q0.65625 0.296875 0.984375 0.78125q0.34375 0.46875 0.46875 1.046875q0.125 0.5625 0.125 1.78125l0 5.265625l-2.375 0l0 -4.75q0 -1.40625 -0.140625 -1.78125q-0.140625 -0.390625 -0.484375 -0.609375q-0.34375 -0.234375 -0.859375 -0.234375q-0.59375 0 -1.0625 0.296875q-0.453125 0.28125 -0.671875 0.859375q-0.21875 0.578125 -0.21875 1.71875l0 4.5l-2.375 0l0 -12.40625l2.375 0zm13.428467 9.546875l2.359375 0.390625q-0.453125 1.3125 -1.4375 2.0q-0.984375 0.671875 -2.46875 0.671875q-2.34375 0 -3.46875 -1.53125q-0.890625 -1.234375 -0.890625 -3.09375q0 -2.234375 1.171875 -3.5q1.171875 -1.265625 2.953125 -1.265625q2.0 0 3.15625 1.328125q1.171875 1.3125 1.109375 4.046875l-5.953125 0q0.03125 1.0625 0.578125 1.65625q0.546875 0.578125 1.375 0.578125q0.546875 0 0.921875 -0.296875q0.390625 -0.3125 0.59375 -0.984375zm0.125 -2.40625q-0.015625 -1.03125 -0.53125 -1.5625q-0.5 -0.546875 -1.234375 -0.546875q-0.78125 0 -1.28125 0.578125q-0.515625 0.5625 -0.5 1.53125l3.546875 0zm4.34021 5.265625l0 -12.40625l2.4375 0l5.078125 8.28125l0 -8.28125l2.328125 0l0 12.40625l-2.515625 0l-5.0 -8.09375l0 8.09375l-2.328125 0zm17.6857 -2.859375l2.359375 0.390625q-0.453125 1.3125 -1.4375 2.0q-0.984375 0.671875 -2.46875 0.671875q-2.34375 0 -3.46875 -1.53125q-0.890625 -1.234375 -0.890625 -3.09375q0 -2.234375 1.171875 -3.5q1.171875 -1.265625 2.953125 -1.265625q2.0 0 3.15625 1.328125q1.171875 1.3125 1.109375 4.046875l-5.953125 0q0.03125 1.0625 0.578125 1.65625q0.546875 0.578125 1.375 0.578125q0.546875 0 0.921875 -0.296875q0.390625 -0.3125 0.59375 -0.984375zm0.125 -2.40625q-0.015625 -1.03125 -0.53125 -1.5625q-0.5 -0.546875 -1.234375 -0.546875q-0.78125 0 -1.28125 0.578125q-0.515625 0.5625 -0.5 1.53125l3.546875 0zm8.418335 -3.71875l0 1.890625l-1.625 0l0 3.625q0 1.09375 0.046875 1.28125q0.046875 0.1875 0.203125 0.3125q0.171875 0.109375 0.421875 0.109375q0.328125 0 0.953125 -0.234375l0.203125 1.84375q-0.828125 0.359375 -1.875 0.359375q-0.65625 0 -1.171875 -0.21875q-0.515625 -0.21875 -0.765625 -0.546875q-0.234375 -0.34375 -0.3125 -0.9375q-0.078125 -0.40625 -0.078125 -1.671875l0 -3.921875l-1.09375 0l0 -1.890625l1.09375 0l0 -1.78125l2.375 -1.390625l0 3.171875l1.625 0z" fill-rule="nonzero"/></g></svg>