<?xml version="1.0" encoding="utf-8" ?>
<svg baseProfile="full" height="100%" version="1.1" viewBox="0 0 1674.000000 496.208584" width="100%" xmlns="http://www.w3.org/2000/svg" xmlns:ev="http://www.w3.org/2001/xml-events" xmlns:xlink="http://www.w3.org/1999/xlink"><defs /><g id="0_C" transform="translate(104 44.20858397106309) scale(1 4.0)"><path d="M 100 28 C 100 -13 0 -13 0 50 C 0 113 100 113 100 72 L 75 72 C 75 90 30 90 30 50 C 30 10 75 10 75 28 L 100 28" fill="#FFFF00" /></g><g id="1_A" transform="translate(208 44.20858397106309) scale(1 4.0)"><path d="M 0 100 L 33 0 L 66 0 L 100 100 L 75 100 L 66 75 L 33 75 L 25 100 L 0 100" fill="#CCFF00" /><path d="M 41 55 L 50 25 L 58 55 L 41 55" fill="white" /></g><g id="2_G" transform="translate(312 443.4963909596358) scale(1 0.007121930114272747)"><path d="M 100 28 C 100 -13 0 -13 0 50 C 0 113 100 113 100 72 L 100 48 L 55 48 L 55 72 L 75 72 C 75 90 30 90 30 50 C 30 10 75 5 75 28 L 100 28" fill="#FF9900" /></g><g id="2_T" transform="translate(312 442.7841979482085) scale(1 0.007121930114272747)"><path d="M 0 0 L 0 20 L 35 20 L 35 100 L 65 100 L 65 20 L 100 20 L 100 0 L 0 0" fill="#FF6600" /></g><g id="2_S" transform="translate(312 47.51707660607116) scale(1 3.9526712134213744)"><path d="M92 26 A43 20 0 1 0 43 46 A42 23 0 1 1 9 68" fill="white" stroke="#FF3300" stroke-width="18" /></g><g id="3_A" transform="translate(416 443.577013785639) scale(1 0.006315701854240959)"><path d="M 0 100 L 33 0 L 66 0 L 100 100 L 75 100 L 66 75 L 33 75 L 25 100 L 0 100" fill="#CCFF00" /><path d="M 41 55 L 50 25 L 58 55 L 41 55" fill="white" /></g><g id="3_G" transform="translate(416 442.9454436002149) scale(1 0.006315701854240959)"><path d="M 100 28 C 100 -13 0 -13 0 50 C 0 113 100 113 100 72 L 100 48 L 55 48 L 55 72 L 75 72 C 75 90 30 90 30 50 C 30 10 75 5 75 28 L 100 28" fill="#FF9900" /></g><g id="3_P" transform="translate(416 442.3138734147908) scale(1 0.006315701854240959)"><path d="M 0 0 L 80 0 C 105 0 105 50 80 50 L 20 50 L 20 100 L 0 100 L 0 0" fill="#FFCC00" /><path d="M 20 15 L 70 15 C 80 15 80 35 70 35 L 20 35 L 20 15" fill="white" /></g><g id="3_N" transform="translate(416 441.0507330439426) scale(1 0.012631403708481918)"><path d="M 0 100 L 0 0 L 20 0 L 80 75 L 80 0 L 100 0 L 100 100 L 80 100 L 20 25 L 20 100 L 0 100" fill="#CC00FF" /></g><g id="3_K" transform="translate(416 439.1560224876703) scale(1 0.018947105562722878)"><path d="M 0 0 L 20 0 L 20 40 L 75 0 L 100 0 L 50 50 L 100 100 L 75 100 L 30 65 L 20 75 L 20 100 L 0 100 L 0 0" fill="#6600FF" /></g><g id="3_I" transform="translate(416 436.62974174597394) scale(1 0.025262807416963837)"><path d="M 40 0 L 60 0 L 60 100 L 40 100 L 40 0" fill="#66FF00" /></g><g id="3_T" transform="translate(416 429.6824697063089) scale(1 0.06947272039665055)"><path d="M 0 0 L 0 20 L 35 20 L 35 100 L 65 100 L 65 20 L 100 20 L 100 0 L 0 0" fill="#FF6600" /></g><g id="3_R" transform="translate(416 417.6826361832511) scale(1 0.11999833523057822)"><path d="M 0 0 L 80 0 C 105 0 105 50 80 50 C 100 50 100 70 100 70 L 100 100 L 80 100 L 80 80 C 80 80 80 60 50 60 L 20 60 L 20 100 L 0 100 L 0 0" fill="#0000FF" /><path d="M 20 15 L 70 15 C 80 15 80 35 70 35 L 20 35 L 20 15" fill="white" /></g><g id="3_S" transform="translate(416 92.42399068984173) scale(1 3.252586454934094)"><path d="M92 26 A43 20 0 1 0 43 46 A42 23 0 1 1 9 68" fill="white" stroke="#FF3300" stroke-width="18" /></g><g id="4_I" transform="translate(520 443.46944553190326) scale(1 0.007391384391598342)"><path d="M 40 0 L 60 0 L 60 100 L 40 100 L 40 0" fill="#66FF00" /></g><g id="4_N" transform="translate(520 442.48392761302347) scale(1 0.00985517918879779)"><path d="M 0 100 L 0 0 L 20 0 L 80 75 L 80 0 L 100 0 L 100 100 L 80 100 L 20 25 L 20 100 L 0 100" fill="#CC00FF" /></g><g id="4_E" transform="translate(520 441.4984096941437) scale(1 0.00985517918879779)"><path d="M 0 0 L 100 0 L 100 20 L 20 20 L 20 40 L 90 40 L 90 60 L 20 60 L 20 80 L 100 80 L 100 100 L 0 100 L 0 0" fill="#FF0066" /></g><g id="4_H" transform="translate(520 440.5128917752639) scale(1 0.00985517918879779)"><path d="M 0 0 L 20 0 L 20 40 L 80 40 L 80 0 L 100 0 L 100 100 L 80 100 L 80 60 L 20 60 L 20 100 L 0 100 L 0 0" fill="#0066FF" /></g><g id="4_M" transform="translate(520 439.28099437666424) scale(1 0.012318973985997237)"><path d="M 0 0 L 20 0 L 50 35 L 80 0 L 100 0 L 100 100 L 80 100 L 80 30 L 50 65 L 20 30 L 20 100 L 0 100 L 0 0" fill="#00FF00" /></g><g id="4_K" transform="translate(520 438.0490969780645) scale(1 0.012318973985997237)"><path d="M 0 0 L 20 0 L 20 40 L 75 0 L 100 0 L 50 50 L 100 100 L 75 100 L 30 65 L 20 75 L 20 100 L 0 100 L 0 0" fill="#6600FF" /></g><g id="4_D" transform="translate(520 436.32444062002486) scale(1 0.017246563580396133)"><path d="M 0 0 L 60 0 C 110 0 110 100 60 100 L 0 100 L 0 0" fill="#FF0000" /><path d="M 20 15 L 40 15 C 85 15 85 85 40 85 L 20 85 L 20 15" fill="white" /></g><g id="4_A" transform="translate(520 434.10702530254537) scale(1 0.022174153174795024)"><path d="M 0 100 L 33 0 L 66 0 L 100 100 L 75 100 L 66 75 L 33 75 L 25 100 L 0 100" fill="#CCFF00" /><path d="M 41 55 L 50 25 L 58 55 L 41 55" fill="white" /></g><g id="4_V" transform="translate(520 431.8896099850659) scale(1 0.022174153174795024)"><path d="M 0 0 L 20 0 L 50 80 L 80 0 L 100 0 L 60 100 L 40 100 L 0 0" fill="#99FF00" /></g><g id="4_G" transform="translate(520 429.4258151878664) scale(1 0.024637947971994475)"><path d="M 100 28 C 100 -13 0 -13 0 50 C 0 113 100 113 100 72 L 100 48 L 55 48 L 55 72 L 75 72 C 75 90 30 90 30 50 C 30 10 75 5 75 28 L 100 28" fill="#FF9900" /></g><g id="4_Y" transform="translate(520 426.4692614312271) scale(1 0.02956553756639337)"><path d="M 0 0 L 20 0 L 50 45 L 80 0 L 100 0 L 60 60 L 60 100 L 40 100 L 40 60 L 0 0" fill="#00FFCC" /></g><g id="4_W" transform="translate(520 423.01994871514785) scale(1 0.03449312716079227)"><path d="M 0 0 L 20 0 L 30 70 L 50 30 L 70 70 L 80 0 L 100 0 L 90 100 L 70 100 L 50 65 L 30 100 L 10 100 L 0 0" fill="#00CCFF" /></g><g id="4_T" transform="translate(520 419.3242565193487) scale(1 0.03695692195799171)"><path d="M 0 0 L 0 20 L 35 20 L 35 100 L 65 100 L 65 20 L 100 20 L 100 0 L 0 0" fill="#FF6600" /></g><g id="4_Q" transform="translate(520 415.1358053641096) scale(1 0.041884511552390605)"><circle cx="50" cy="50" fill="#FF00CC" r="50" /><circle cx="50" cy="50" fill="white" r="32" /><path d="M 85 100 L 55 70 L 70 55 L 100 85 L 85 100" fill="#FF00CC" /></g><g id="4_R" transform="translate(520 408.72993889139104) scale(1 0.06405866472718563)"><path d="M 0 0 L 80 0 C 105 0 105 50 80 50 C 100 50 100 70 100 70 L 100 100 L 80 100 L 80 80 C 80 80 80 60 50 60 L 20 60 L 20 100 L 0 100 L 0 0" fill="#0000FF" /><path d="M 20 15 L 70 15 C 80 15 80 35 70 35 L 20 35 L 20 15" fill="white" /></g><g id="4_F" transform="translate(520 398.13562126343345) scale(1 0.10594317627957624)"><path d="M 0 0 L 100 0 L 100 20 L 20 20 L 20 40 L 80 40 L 80 60 L 20 60 L 20 100 L 0 100 L 0 0" fill="#00FF66" /></g><g id="4_S" transform="translate(520 383.84561143967665) scale(1 0.14290009823756794)"><path d="M92 26 A43 20 0 1 0 43 46 A42 23 0 1 1 9 68" fill="white" stroke="#FF3300" stroke-width="18" /></g><g id="4_P" transform="translate(520 362.90335566348136) scale(1 0.20942255776195304)"><path d="M 0 0 L 80 0 C 105 0 105 50 80 50 L 20 50 L 20 100 L 0 100 L 0 0" fill="#FFCC00" /><path d="M 20 15 L 70 15 C 80 15 80 35 70 35 L 20 35 L 20 15" fill="white" /></g><g id="4_L" transform="translate(520 306.97521376705384) scale(1 0.5592814189642746)"><path d="M 0 0 L 0 100 L 100 100 L 100 80 L 20 80 L 20 0 L 0 0" fill="#33FF00" /></g><g id="5_K" transform="translate(624 443.88425733400175) scale(1 0.0032432663706135094)"><path d="M 0 0 L 20 0 L 20 40 L 75 0 L 100 0 L 50 50 L 100 100 L 75 100 L 30 65 L 20 75 L 20 100 L 0 100 L 0 0" fill="#6600FF" /></g><g id="5_H" transform="translate(624 443.5599306969404) scale(1 0.0032432663706135094)"><path d="M 0 0 L 20 0 L 20 40 L 80 40 L 80 0 L 100 0 L 100 100 L 80 100 L 80 60 L 20 60 L 20 100 L 0 100 L 0 0" fill="#0066FF" /></g><g id="5_W" transform="translate(624 443.07344074134835) scale(1 0.0048648995559202645)"><path d="M 0 0 L 20 0 L 30 70 L 50 30 L 70 70 L 80 0 L 100 0 L 90 100 L 70 100 L 50 65 L 30 100 L 10 100 L 0 0" fill="#00CCFF" /></g><g id="5_F" transform="translate(624 442.26262414869495) scale(1 0.008108165926533774)"><path d="M 0 0 L 100 0 L 100 20 L 20 20 L 20 40 L 80 40 L 80 60 L 20 60 L 20 100 L 0 100 L 0 0" fill="#00FF66" /></g><g id="5_M" transform="translate(624 440.9653176004496) scale(1 0.012973065482454037)"><path d="M 0 0 L 20 0 L 50 35 L 80 0 L 100 0 L 100 100 L 80 100 L 80 30 L 50 65 L 20 30 L 20 100 L 0 100 L 0 0" fill="#00FF00" /></g><g id="5_N" transform="translate(624 439.34368441514283) scale(1 0.016216331853067548)"><path d="M 0 100 L 0 0 L 20 0 L 80 75 L 80 0 L 100 0 L 100 100 L 80 100 L 20 25 L 20 100 L 0 100" fill="#CC00FF" /></g><g id="5_I" transform="translate(624 437.39772459277475) scale(1 0.019459598223681058)"><path d="M 40 0 L 60 0 L 60 100 L 40 100 L 40 0" fill="#66FF00" /></g><g id="5_E" transform="translate(624 434.80311149628386) scale(1 0.025946130964908075)"><path d="M 0 0 L 100 0 L 100 20 L 20 20 L 20 40 L 90 40 L 90 60 L 20 60 L 20 80 L 100 80 L 100 100 L 0 100 L 0 0" fill="#FF0066" /></g><g id="5_P" transform="translate(624 431.0733551700784) scale(1 0.037297563262055355)"><path d="M 0 0 L 80 0 C 105 0 105 50 80 50 L 20 50 L 20 100 L 0 100 L 0 0" fill="#FFCC00" /><path d="M 20 15 L 70 15 C 80 15 80 35 70 35 L 20 35 L 20 15" fill="white" /></g><g id="5_V" transform="translate(624 427.01927220681154) scale(1 0.04054082963266886)"><path d="M 0 0 L 20 0 L 50 80 L 80 0 L 100 0 L 60 100 L 40 100 L 0 0" fill="#99FF00" /></g><g id="5_L" transform="translate(624 421.9922093323605) scale(1 0.05027062874450939)"><path d="M 0 0 L 0 100 L 100 100 L 100 80 L 20 80 L 20 0 L 0 0" fill="#33FF00" /></g><g id="5_Q" transform="translate(624 416.80298313937897) scale(1 0.05189226192981615)"><circle cx="50" cy="50" fill="#FF00CC" r="50" /><circle cx="50" cy="50" fill="white" r="32" /><path d="M 85 100 L 55 70 L 70 55 L 100 85 L 85 100" fill="#FF00CC" /></g><g id="5_T" transform="translate(624 410.4786137166826) scale(1 0.06324369422696344)"><path d="M 0 0 L 0 20 L 35 20 L 35 100 L 65 100 L 65 20 L 100 20 L 100 0 L 0 0" fill="#FF6600" /></g><g id="5_S" transform="translate(624 402.53261110867953) scale(1 0.07946002608003097)"><path d="M92 26 A43 20 0 1 0 43 46 A42 23 0 1 1 9 68" fill="white" stroke="#FF3300" stroke-width="18" /></g><g id="5_A" transform="translate(624 394.26228186361504) scale(1 0.08270329245064449)"><path d="M 0 100 L 33 0 L 66 0 L 100 100 L 75 100 L 66 75 L 33 75 L 25 100 L 0 100" fill="#CCFF00" /><path d="M 41 55 L 50 25 L 58 55 L 41 55" fill="white" /></g><g id="5_D" transform="translate(624 385.1811360258972) scale(1 0.09081145837717827)"><path d="M 0 0 L 60 0 C 110 0 110 100 60 100 L 0 100 L 0 0" fill="#FF0000" /><path d="M 20 15 L 40 15 C 85 15 85 85 40 85 L 20 85 L 20 15" fill="white" /></g><g id="5_R" transform="translate(624 374.96484695846465) scale(1 0.10216289067432555)"><path d="M 0 0 L 80 0 C 105 0 105 50 80 50 C 100 50 100 70 100 70 L 100 100 L 80 100 L 80 80 C 80 80 80 60 50 60 L 20 60 L 20 100 L 0 100 L 0 0" fill="#0000FF" /><path d="M 20 15 L 70 15 C 80 15 80 35 70 35 L 20 35 L 20 15" fill="white" /></g><g id="5_G" transform="translate(624 353.8836155494768) scale(1 0.2108123140898781)"><path d="M 100 28 C 100 -13 0 -13 0 50 C 0 113 100 113 100 72 L 100 48 L 55 48 L 55 72 L 75 72 C 75 90 30 90 30 50 C 30 10 75 5 75 28 L 100 28" fill="#FF9900" /></g><g id="6_N" transform="translate(728 443.63101425065884) scale(1 0.005775697204042398)"><path d="M 0 100 L 0 0 L 20 0 L 80 75 L 80 0 L 100 0 L 100 100 L 80 100 L 20 25 L 20 100 L 0 100" fill="#CC00FF" /></g><g id="6_M" transform="translate(728 442.86092129011985) scale(1 0.007700929605389863)"><path d="M 0 0 L 20 0 L 50 35 L 80 0 L 100 0 L 100 100 L 80 100 L 80 30 L 50 65 L 20 30 L 20 100 L 0 100 L 0 0" fill="#00FF00" /></g><g id="6_Y" transform="translate(728 442.09082832958086) scale(1 0.007700929605389863)"><path d="M 0 0 L 20 0 L 50 45 L 80 0 L 100 0 L 60 60 L 60 100 L 40 100 L 40 60 L 0 0" fill="#00FFCC" /></g><g id="6_H" transform="translate(728 441.32073536904187) scale(1 0.007700929605389863)"><path d="M 0 0 L 20 0 L 20 40 L 80 40 L 80 0 L 100 0 L 100 100 L 80 100 L 80 60 L 20 60 L 20 100 L 0 100 L 0 0" fill="#0066FF" /></g><g id="6_I" transform="translate(728 440.1655959282334) scale(1 0.011551394408084796)"><path d="M 40 0 L 60 0 L 60 100 L 40 100 L 40 0" fill="#66FF00" /></g><g id="6_W" transform="translate(728 438.62541000715544) scale(1 0.015401859210779726)"><path d="M 0 0 L 20 0 L 30 70 L 50 30 L 70 70 L 80 0 L 100 0 L 90 100 L 70 100 L 50 65 L 30 100 L 10 100 L 0 0" fill="#00CCFF" /></g><g id="6_V" transform="translate(728 436.5076543656732) scale(1 0.02117755641482212)"><path d="M 0 0 L 20 0 L 50 80 L 80 0 L 100 0 L 60 100 L 40 100 L 0 0" fill="#99FF00" /></g><g id="6_F" transform="translate(728 434.19737548405624) scale(1 0.023102788816169593)"><path d="M 0 0 L 100 0 L 100 20 L 20 20 L 20 40 L 80 40 L 80 60 L 20 60 L 20 100 L 0 100 L 0 0" fill="#00FF66" /></g><g id="6_E" transform="translate(728 431.6945733623046) scale(1 0.025028021217517057)"><path d="M 0 0 L 100 0 L 100 20 L 20 20 L 20 40 L 90 40 L 90 60 L 20 60 L 20 80 L 100 80 L 100 100 L 0 100 L 0 0" fill="#FF0066" /></g><g id="6_D" transform="translate(728 428.9992480004181) scale(1 0.026953253618864526)"><path d="M 0 0 L 60 0 C 110 0 110 100 60 100 L 0 100 L 0 0" fill="#FF0000" /><path d="M 20 15 L 40 15 C 85 15 85 85 40 85 L 20 85 L 20 15" fill="white" /></g><g id="6_Q" transform="translate(728 422.64598107597146) scale(1 0.06353266924446638)"><circle cx="50" cy="50" fill="#FF00CC" r="50" /><circle cx="50" cy="50" fill="white" r="32" /><path d="M 85 100 L 55 70 L 70 55 L 100 85 L 85 100" fill="#FF00CC" /></g><g id="6_A" transform="translate(728 415.52262119098583) scale(1 0.07123359884985624)"><path d="M 0 100 L 33 0 L 66 0 L 100 100 L 75 100 L 66 75 L 33 75 L 25 100 L 0 100" fill="#CCFF00" /><path d="M 41 55 L 50 25 L 58 55 L 41 55" fill="white" /></g><g id="6_L" transform="translate(728 408.20673806586547) scale(1 0.07315883125120372)"><path d="M 0 0 L 0 100 L 100 100 L 100 80 L 20 80 L 20 0 L 0 0" fill="#33FF00" /></g><g id="6_P" transform="translate(728 400.8908549407451) scale(1 0.07315883125120372)"><path d="M 0 0 L 80 0 C 105 0 105 50 80 50 L 20 50 L 20 100 L 0 100 L 0 0" fill="#FFCC00" /><path d="M 20 15 L 70 15 C 80 15 80 35 70 35 L 20 35 L 20 15" fill="white" /></g><g id="6_S" transform="translate(728 391.842262654412) scale(1 0.0904859228633309)"><path d="M92 26 A43 20 0 1 0 43 46 A42 23 0 1 1 9 68" fill="white" stroke="#FF3300" stroke-width="18" /></g><g id="6_R" transform="translate(728 381.63853092727044) scale(1 0.10203731727141568)"><path d="M 0 0 L 80 0 C 105 0 105 50 80 50 C 100 50 100 70 100 70 L 100 100 L 80 100 L 80 80 C 80 80 80 60 50 60 L 20 60 L 20 100 L 0 100 L 0 0" fill="#0000FF" /><path d="M 20 15 L 70 15 C 80 15 80 35 70 35 L 20 35 L 20 15" fill="white" /></g><g id="6_T" transform="translate(728 370.85722947972465) scale(1 0.1078130144754581)"><path d="M 0 0 L 0 20 L 35 20 L 35 100 L 65 100 L 65 20 L 100 20 L 100 0 L 0 0" fill="#FF6600" /></g><g id="6_G" transform="translate(728 336.97313921600926) scale(1 0.33884090263715394)"><path d="M 100 28 C 100 -13 0 -13 0 50 C 0 113 100 113 100 72 L 100 48 L 55 48 L 55 72 L 75 72 C 75 90 30 90 30 50 C 30 10 75 5 75 28 L 100 28" fill="#FF9900" /></g><g id="7_M" transform="translate(832 443.96499408448744) scale(1 0.002435898865756711)"><path d="M 0 0 L 20 0 L 50 35 L 80 0 L 100 0 L 100 100 L 80 100 L 80 30 L 50 65 L 20 30 L 20 100 L 0 100 L 0 0" fill="#00FF00" /></g><g id="7_Y" transform="translate(832 443.4778143113361) scale(1 0.004871797731513422)"><path d="M 0 0 L 20 0 L 50 45 L 80 0 L 100 0 L 60 60 L 60 100 L 40 100 L 40 60 L 0 0" fill="#00FFCC" /></g><g id="7_W" transform="translate(832 442.7470446516091) scale(1 0.007307696597270133)"><path d="M 0 0 L 20 0 L 30 70 L 50 30 L 70 70 L 80 0 L 100 0 L 90 100 L 70 100 L 50 65 L 30 100 L 10 100 L 0 0" fill="#00CCFF" /></g><g id="7_I" transform="translate(832 441.7726851053064) scale(1 0.009743595463026843)"><path d="M 40 0 L 60 0 L 60 100 L 40 100 L 40 0" fill="#66FF00" /></g><g id="7_F" transform="translate(832 440.06755589927667) scale(1 0.01705129206029698)"><path d="M 0 0 L 100 0 L 100 20 L 20 20 L 20 40 L 80 40 L 80 60 L 20 60 L 20 100 L 0 100 L 0 0" fill="#00FF66" /></g><g id="7_P" transform="translate(832 438.1188368066713) scale(1 0.019487190926053687)"><path d="M 0 0 L 80 0 C 105 0 105 50 80 50 L 20 50 L 20 100 L 0 100 L 0 0" fill="#FFCC00" /><path d="M 20 15 L 70 15 C 80 15 80 35 70 35 L 20 35 L 20 15" fill="white" /></g><g id="7_N" transform="translate(832 435.6829379409146) scale(1 0.02435898865756711)"><path d="M 0 100 L 0 0 L 20 0 L 80 75 L 80 0 L 100 0 L 100 100 L 80 100 L 20 25 L 20 100 L 0 100" fill="#CC00FF" /></g><g id="7_E" transform="translate(832 433.00344918858224) scale(1 0.026794887523323818)"><path d="M 0 0 L 100 0 L 100 20 L 20 20 L 20 40 L 90 40 L 90 60 L 20 60 L 20 80 L 100 80 L 100 100 L 0 100 L 0 0" fill="#FF0066" /></g><g id="7_D" transform="translate(832 428.8624211167958) scale(1 0.04141028071786408)"><path d="M 0 0 L 60 0 C 110 0 110 100 60 100 L 0 100 L 0 0" fill="#FF0000" /><path d="M 20 15 L 40 15 C 85 15 85 85 40 85 L 20 85 L 20 15" fill="white" /></g><g id="7_V" transform="translate(832 424.47780315843374) scale(1 0.04384617958362079)"><path d="M 0 0 L 20 0 L 50 80 L 80 0 L 100 0 L 60 100 L 40 100 L 0 0" fill="#99FF00" /></g><g id="7_L" transform="translate(832 418.38805599404196) scale(1 0.06089747164391777)"><path d="M 0 0 L 0 100 L 100 100 L 100 80 L 20 80 L 20 0 L 0 0" fill="#33FF00" /></g><g id="7_A" transform="translate(832 409.3752301907421) scale(1 0.0901282580329983)"><path d="M 0 100 L 33 0 L 66 0 L 100 100 L 75 100 L 66 75 L 33 75 L 25 100 L 0 100" fill="#CCFF00" /><path d="M 41 55 L 50 25 L 58 55 L 41 55" fill="white" /></g><g id="7_Q" transform="translate(832 399.3880448411396) scale(1 0.09987185349602516)"><circle cx="50" cy="50" fill="#FF00CC" r="50" /><circle cx="50" cy="50" fill="white" r="32" /><path d="M 85 100 L 55 70 L 70 55 L 100 85 L 85 100" fill="#FF00CC" /></g><g id="7_T" transform="translate(832 389.4008594915371) scale(1 0.09987185349602516)"><path d="M 0 0 L 0 20 L 35 20 L 35 100 L 65 100 L 65 20 L 100 20 L 100 0 L 0 0" fill="#FF6600" /></g><g id="7_R" transform="translate(832 378.4393145956319) scale(1 0.109615448959052)"><path d="M 0 0 L 80 0 C 105 0 105 50 80 50 C 100 50 100 70 100 70 L 100 100 L 80 100 L 80 80 C 80 80 80 60 50 60 L 20 60 L 20 100 L 0 100 L 0 0" fill="#0000FF" /><path d="M 20 15 L 70 15 C 80 15 80 35 70 35 L 20 35 L 20 15" fill="white" /></g><g id="7_S" transform="translate(832 362.849561854789) scale(1 0.1558975274084295)"><path d="M92 26 A43 20 0 1 0 43 46 A42 23 0 1 1 9 68" fill="white" stroke="#FF3300" stroke-width="18" /></g><g id="7_G" transform="translate(832 308.52901714841425) scale(1 0.5432054470637465)"><path d="M 100 28 C 100 -13 0 -13 0 50 C 0 113 100 113 100 72 L 100 48 L 55 48 L 55 72 L 75 72 C 75 90 30 90 30 50 C 30 10 75 5 75 28 L 100 28" fill="#FF9900" /></g><g id="8_H" transform="translate(936 443.6599550686397) scale(1 0.005486289024234142)"><path d="M 0 0 L 20 0 L 20 40 L 80 40 L 80 0 L 100 0 L 100 100 L 80 100 L 80 60 L 20 60 L 20 100 L 0 100 L 0 0" fill="#0066FF" /></g><g id="8_K" transform="translate(936 443.1113261662163) scale(1 0.005486289024234142)"><path d="M 0 0 L 20 0 L 20 40 L 75 0 L 100 0 L 50 50 L 100 100 L 75 100 L 30 65 L 20 75 L 20 100 L 0 100 L 0 0" fill="#6600FF" /></g><g id="8_M" transform="translate(936 442.56269726379287) scale(1 0.005486289024234142)"><path d="M 0 0 L 20 0 L 50 35 L 80 0 L 100 0 L 100 100 L 80 100 L 80 30 L 50 65 L 20 30 L 20 100 L 0 100 L 0 0" fill="#00FF00" /></g><g id="8_I" transform="translate(936 441.83119206056165) scale(1 0.007315052032312188)"><path d="M 40 0 L 60 0 L 60 100 L 40 100 L 40 0" fill="#66FF00" /></g><g id="8_W" transform="translate(936 440.91681055652265) scale(1 0.009143815040390236)"><path d="M 0 0 L 20 0 L 30 70 L 50 30 L 70 70 L 80 0 L 100 0 L 90 100 L 70 100 L 50 65 L 30 100 L 10 100 L 0 0" fill="#00CCFF" /></g><g id="8_F" transform="translate(936 439.636676450868) scale(1 0.01280134105654633)"><path d="M 0 0 L 100 0 L 100 20 L 20 20 L 20 40 L 80 40 L 80 60 L 20 60 L 20 100 L 0 100 L 0 0" fill="#00FF66" /></g><g id="8_Y" transform="translate(936 437.8079134427899) scale(1 0.018287630080780472)"><path d="M 0 0 L 20 0 L 50 45 L 80 0 L 100 0 L 60 60 L 60 100 L 40 100 L 40 60 L 0 0" fill="#00FFCC" /></g><g id="8_Q" transform="translate(936 435.24764523148065) scale(1 0.02560268211309266)"><circle cx="50" cy="50" fill="#FF00CC" r="50" /><circle cx="50" cy="50" fill="white" r="32" /><path d="M 85 100 L 55 70 L 70 55 L 100 85 L 85 100" fill="#FF00CC" /></g><g id="8_D" transform="translate(936 431.59011921532453) scale(1 0.036575260161560944)"><path d="M 0 0 L 60 0 C 110 0 110 100 60 100 L 0 100 L 0 0" fill="#FF0000" /><path d="M 20 15 L 40 15 C 85 15 85 85 40 85 L 20 85 L 20 15" fill="white" /></g><g id="8_N" transform="translate(936 427.7497168983607) scale(1 0.038404023169638986)"><path d="M 0 100 L 0 0 L 20 0 L 80 75 L 80 0 L 100 0 L 100 100 L 80 100 L 20 25 L 20 100 L 0 100" fill="#CC00FF" /></g><g id="8_E" transform="translate(936 423.54356197978115) scale(1 0.042061549185795084)"><path d="M 0 0 L 100 0 L 100 20 L 20 20 L 20 40 L 90 40 L 90 60 L 20 60 L 20 80 L 100 80 L 100 100 L 0 100 L 0 0" fill="#FF0066" /></g><g id="8_L" transform="translate(936 418.97165445958603) scale(1 0.045719075201951176)"><path d="M 0 0 L 0 100 L 100 100 L 100 80 L 20 80 L 20 0 L 0 0" fill="#33FF00" /></g><g id="8_T" transform="translate(936 414.0339943377753) scale(1 0.04937660121810727)"><path d="M 0 0 L 0 20 L 35 20 L 35 100 L 65 100 L 65 20 L 100 20 L 100 0 L 0 0" fill="#FF6600" /></g><g id="8_V" transform="translate(936 408.91345791515676) scale(1 0.05120536422618532)"><path d="M 0 0 L 20 0 L 50 80 L 80 0 L 100 0 L 60 100 L 40 100 L 0 0" fill="#99FF00" /></g><g id="8_P" transform="translate(936 402.8785399884992) scale(1 0.060349179266575556)"><path d="M 0 0 L 80 0 C 105 0 105 50 80 50 L 20 50 L 20 100 L 0 100 L 0 0" fill="#FFCC00" /><path d="M 20 15 L 70 15 C 80 15 80 35 70 35 L 20 35 L 20 15" fill="white" /></g><g id="8_R" transform="translate(936 396.2949931594183) scale(1 0.06583546829080969)"><path d="M 0 0 L 80 0 C 105 0 105 50 80 50 C 100 50 100 70 100 70 L 100 100 L 80 100 L 80 80 C 80 80 80 60 50 60 L 20 60 L 20 100 L 0 100 L 0 0" fill="#0000FF" /><path d="M 20 15 L 70 15 C 80 15 80 35 70 35 L 20 35 L 20 15" fill="white" /></g><g id="8_A" transform="translate(936 388.79706482629825) scale(1 0.07497928333119994)"><path d="M 0 100 L 33 0 L 66 0 L 100 100 L 75 100 L 66 75 L 33 75 L 25 100 L 0 100" fill="#CCFF00" /><path d="M 41 55 L 50 25 L 58 55 L 41 55" fill="white" /></g><g id="8_S" transform="translate(936 374.5327133632895) scale(1 0.14264351463008768)"><path d="M92 26 A43 20 0 1 0 43 46 A42 23 0 1 1 9 68" fill="white" stroke="#FF3300" stroke-width="18" /></g><g id="8_G" transform="translate(936 342.3464844211159) scale(1 0.3218622894217363)"><path d="M 100 28 C 100 -13 0 -13 0 50 C 0 113 100 113 100 72 L 100 48 L 55 48 L 55 72 L 75 72 C 75 90 30 90 30 50 C 30 10 75 5 75 28 L 100 28" fill="#FF9900" /></g><g id="9_W" transform="translate(1040 444.0475613453096) scale(1 0.0016102262575353008)"><path d="M 0 0 L 20 0 L 30 70 L 50 30 L 70 70 L 80 0 L 100 0 L 90 100 L 70 100 L 50 65 L 30 100 L 10 100 L 0 0" fill="#00CCFF" /></g><g id="9_F" transform="translate(1040 443.40347084229546) scale(1 0.006440905030141203)"><path d="M 0 0 L 100 0 L 100 20 L 20 20 L 20 40 L 80 40 L 80 60 L 20 60 L 20 100 L 0 100 L 0 0" fill="#00FF66" /></g><g id="9_H" transform="translate(1040 442.59835771352783) scale(1 0.008051131287676504)"><path d="M 0 0 L 20 0 L 20 40 L 80 40 L 80 0 L 100 0 L 100 100 L 80 100 L 80 60 L 20 60 L 20 100 L 0 100 L 0 0" fill="#0066FF" /></g><g id="9_K" transform="translate(1040 440.98813145599246) scale(1 0.016102262575353007)"><path d="M 0 0 L 20 0 L 20 40 L 75 0 L 100 0 L 50 50 L 100 100 L 75 100 L 30 65 L 20 75 L 20 100 L 0 100 L 0 0" fill="#6600FF" /></g><g id="9_I" transform="translate(1040 439.2168825727037) scale(1 0.01771248883288831)"><path d="M 40 0 L 60 0 L 60 100 L 40 100 L 40 0" fill="#66FF00" /></g><g id="9_V" transform="translate(1040 436.9625658121542) scale(1 0.02254316760549421)"><path d="M 0 0 L 20 0 L 50 80 L 80 0 L 100 0 L 60 100 L 40 100 L 0 0" fill="#99FF00" /></g><g id="9_Q" transform="translate(1040 434.5472264258513) scale(1 0.02415339386302951)"><circle cx="50" cy="50" fill="#FF00CC" r="50" /><circle cx="50" cy="50" fill="white" r="32" /><path d="M 85 100 L 55 70 L 70 55 L 100 85 L 85 100" fill="#FF00CC" /></g><g id="9_P" transform="translate(1040 432.13188703954836) scale(1 0.02415339386302951)"><path d="M 0 0 L 80 0 C 105 0 105 50 80 50 L 20 50 L 20 100 L 0 100 L 0 0" fill="#FFCC00" /><path d="M 20 15 L 70 15 C 80 15 80 35 70 35 L 20 35 L 20 15" fill="white" /></g><g id="9_L" transform="translate(1040 429.23347977598485) scale(1 0.02898407263563541)"><path d="M 0 0 L 0 100 L 100 100 L 100 80 L 20 80 L 20 0 L 0 0" fill="#33FF00" /></g><g id="9_R" transform="translate(1040 426.3350725124213) scale(1 0.02898407263563541)"><path d="M 0 0 L 80 0 C 105 0 105 50 80 50 C 100 50 100 70 100 70 L 100 100 L 80 100 L 80 80 C 80 80 80 60 50 60 L 20 60 L 20 100 L 0 100 L 0 0" fill="#0000FF" /><path d="M 20 15 L 70 15 C 80 15 80 35 70 35 L 20 35 L 20 15" fill="white" /></g><g id="9_E" transform="translate(1040 423.43666524885776) scale(1 0.02898407263563541)"><path d="M 0 0 L 100 0 L 100 20 L 20 20 L 20 40 L 90 40 L 90 60 L 20 60 L 20 80 L 100 80 L 100 100 L 0 100 L 0 0" fill="#FF0066" /></g><g id="9_D" transform="translate(1040 419.572122230773) scale(1 0.03864543018084722)"><path d="M 0 0 L 60 0 C 110 0 110 100 60 100 L 0 100 L 0 0" fill="#FF0000" /><path d="M 20 15 L 40 15 C 85 15 85 85 40 85 L 20 85 L 20 15" fill="white" /></g><g id="9_A" transform="translate(1040 414.58042083241355) scale(1 0.04991701398359432)"><path d="M 0 100 L 33 0 L 66 0 L 100 100 L 75 100 L 66 75 L 33 75 L 25 100 L 0 100" fill="#CCFF00" /><path d="M 41 55 L 50 25 L 58 55 L 41 55" fill="white" /></g><g id="9_S" transform="translate(1040 406.8513347962441) scale(1 0.07729086036169444)"><path d="M92 26 A43 20 0 1 0 43 46 A42 23 0 1 1 9 68" fill="white" stroke="#FF3300" stroke-width="18" /></g><g id="9_Y" transform="translate(1040 398.6391808828141) scale(1 0.08212153913430034)"><path d="M 0 0 L 20 0 L 50 45 L 80 0 L 100 0 L 60 60 L 60 100 L 40 100 L 40 60 L 0 0" fill="#00FFCC" /></g><g id="9_N" transform="translate(1040 387.367597080067) scale(1 0.11271583802747107)"><path d="M 0 100 L 0 0 L 20 0 L 80 75 L 80 0 L 100 0 L 100 100 L 80 100 L 20 25 L 20 100 L 0 100" fill="#CC00FF" /></g><g id="9_T" transform="translate(1040 372.7145381364957) scale(1 0.14653058943571237)"><path d="M 0 0 L 0 20 L 35 20 L 35 100 L 65 100 L 65 20 L 100 20 L 100 0 L 0 0" fill="#FF6600" /></g><g id="9_G" transform="translate(1040 354.5189814263469) scale(1 0.181955567101489)"><path d="M 100 28 C 100 -13 0 -13 0 50 C 0 113 100 113 100 72 L 100 48 L 55 48 L 55 72 L 75 72 C 75 90 30 90 30 50 C 30 10 75 5 75 28 L 100 28" fill="#FF9900" /></g><g id="10_A" transform="translate(1144 443.9888123788928) scale(1 0.0021977159217027877)"><path d="M 0 100 L 33 0 L 66 0 L 100 100 L 75 100 L 66 75 L 33 75 L 25 100 L 0 100" fill="#CCFF00" /><path d="M 41 55 L 50 25 L 58 55 L 41 55" fill="white" /></g><g id="10_L" transform="translate(1144 443.76904078672254) scale(1 0.0021977159217027877)"><path d="M 0 0 L 0 100 L 100 100 L 100 80 L 20 80 L 20 0 L 0 0" fill="#33FF00" /></g><g id="10_W" transform="translate(1144 443.329497602382) scale(1 0.004395431843405575)"><path d="M 0 0 L 20 0 L 30 70 L 50 30 L 70 70 L 80 0 L 100 0 L 90 100 L 70 100 L 50 65 L 30 100 L 10 100 L 0 0" fill="#00CCFF" /></g><g id="10_F" transform="translate(1144 442.88995441804144) scale(1 0.004395431843405575)"><path d="M 0 0 L 100 0 L 100 20 L 20 20 L 20 40 L 80 40 L 80 60 L 20 60 L 20 100 L 0 100 L 0 0" fill="#00FF66" /></g><g id="10_M" transform="translate(1144 442.4504112337009) scale(1 0.004395431843405575)"><path d="M 0 0 L 20 0 L 50 35 L 80 0 L 100 0 L 100 100 L 80 100 L 80 30 L 50 65 L 20 30 L 20 100 L 0 100 L 0 0" fill="#00FF00" /></g><g id="10_I" transform="translate(1144 442.0108680493603) scale(1 0.004395431843405575)"><path d="M 40 0 L 60 0 L 60 100 L 40 100 L 40 0" fill="#66FF00" /></g><g id="10_P" transform="translate(1144 441.35155327284946) scale(1 0.006593147765108363)"><path d="M 0 0 L 80 0 C 105 0 105 50 80 50 L 20 50 L 20 100 L 0 100 L 0 0" fill="#FFCC00" /><path d="M 20 15 L 70 15 C 80 15 80 35 70 35 L 20 35 L 20 15" fill="white" /></g><g id="10_V" transform="translate(1144 440.69223849633863) scale(1 0.006593147765108363)"><path d="M 0 0 L 20 0 L 50 80 L 80 0 L 100 0 L 60 100 L 40 100 L 0 0" fill="#99FF00" /></g><g id="10_R" transform="translate(1144 439.1538373511467) scale(1 0.015384011451919512)"><path d="M 0 0 L 80 0 C 105 0 105 50 80 50 C 100 50 100 70 100 70 L 100 100 L 80 100 L 80 80 C 80 80 80 60 50 60 L 20 60 L 20 100 L 0 100 L 0 0" fill="#0000FF" /><path d="M 20 15 L 70 15 C 80 15 80 35 70 35 L 20 35 L 20 15" fill="white" /></g><g id="10_H" transform="translate(1144 435.8572634685925) scale(1 0.03296573882554182)"><path d="M 0 0 L 20 0 L 20 40 L 80 40 L 80 0 L 100 0 L 100 100 L 80 100 L 80 60 L 20 60 L 20 100 L 0 100 L 0 0" fill="#0066FF" /></g><g id="10_S" transform="translate(1144 431.0222884408464) scale(1 0.04834975027746132)"><path d="M92 26 A43 20 0 1 0 43 46 A42 23 0 1 1 9 68" fill="white" stroke="#FF3300" stroke-width="18" /></g><g id="10_Q" transform="translate(1144 423.5500543070569) scale(1 0.07472234133789478)"><circle cx="50" cy="50" fill="#FF00CC" r="50" /><circle cx="50" cy="50" fill="white" r="32" /><path d="M 85 100 L 55 70 L 70 55 L 100 85 L 85 100" fill="#FF00CC" /></g><g id="10_T" transform="translate(1144 416.0778201732674) scale(1 0.07472234133789478)"><path d="M 0 0 L 0 20 L 35 20 L 35 100 L 65 100 L 65 20 L 100 20 L 100 0 L 0 0" fill="#FF6600" /></g><g id="10_G" transform="translate(1144 402.8915246430507) scale(1 0.13186295530216727)"><path d="M 100 28 C 100 -13 0 -13 0 50 C 0 113 100 113 100 72 L 100 48 L 55 48 L 55 72 L 75 72 C 75 90 30 90 30 50 C 30 10 75 5 75 28 L 100 28" fill="#FF9900" /></g><g id="10_D" transform="translate(1144 385.9691120459392) scale(1 0.16922412597111464)"><path d="M 0 0 L 60 0 C 110 0 110 100 60 100 L 0 100 L 0 0" fill="#FF0000" /><path d="M 20 15 L 40 15 C 85 15 85 85 40 85 L 20 85 L 20 15" fill="white" /></g><g id="10_E" transform="translate(1144 366.6292119349547) scale(1 0.1933990011098453)"><path d="M 0 0 L 100 0 L 100 20 L 20 20 L 20 40 L 90 40 L 90 60 L 20 60 L 20 80 L 100 80 L 100 100 L 0 100 L 0 0" fill="#FF0066" /></g><g id="10_Y" transform="translate(1144 346.8497686396296) scale(1 0.1977944329532509)"><path d="M 0 0 L 20 0 L 50 45 L 80 0 L 100 0 L 60 60 L 60 100 L 40 100 L 40 60 L 0 0" fill="#00FFCC" /></g><g id="10_N" transform="translate(1144 321.7958071322178) scale(1 0.25053961507411776)"><path d="M 0 100 L 0 0 L 20 0 L 80 75 L 80 0 L 100 0 L 100 100 L 80 100 L 20 25 L 20 100 L 0 100" fill="#CC00FF" /></g><g id="11_A" transform="translate(1248 443.801588408345) scale(1 0.004069955627180645)"><path d="M 0 100 L 33 0 L 66 0 L 100 100 L 75 100 L 66 75 L 33 75 L 25 100 L 0 100" fill="#CCFF00" /><path d="M 41 55 L 50 25 L 58 55 L 41 55" fill="white" /></g><g id="11_R" transform="translate(1248 443.39459284562696) scale(1 0.004069955627180645)"><path d="M 0 0 L 80 0 C 105 0 105 50 80 50 C 100 50 100 70 100 70 L 100 100 L 80 100 L 80 80 C 80 80 80 60 50 60 L 20 60 L 20 100 L 0 100 L 0 0" fill="#0000FF" /><path d="M 20 15 L 70 15 C 80 15 80 35 70 35 L 20 35 L 20 15" fill="white" /></g><g id="11_Q" transform="translate(1248 442.9875972829089) scale(1 0.004069955627180645)"><circle cx="50" cy="50" fill="#FF00CC" r="50" /><circle cx="50" cy="50" fill="white" r="32" /><path d="M 85 100 L 55 70 L 70 55 L 100 85 L 85 100" fill="#FF00CC" /></g><g id="11_V" transform="translate(1248 440.95261946931856) scale(1 0.02034977813590323)"><path d="M 0 0 L 20 0 L 50 80 L 80 0 L 100 0 L 60 100 L 40 100 L 0 0" fill="#99FF00" /></g><g id="11_I" transform="translate(1248 436.8826638421379) scale(1 0.04069955627180646)"><path d="M 40 0 L 60 0 L 60 100 L 40 100 L 40 0" fill="#66FF00" /></g><g id="11_K" transform="translate(1248 429.96373927593083) scale(1 0.06918924566207096)"><path d="M 0 0 L 20 0 L 20 40 L 75 0 L 100 0 L 50 50 L 100 100 L 75 100 L 30 65 L 20 75 L 20 100 L 0 100 L 0 0" fill="#6600FF" /></g><g id="11_G" transform="translate(1248 416.5328857062347) scale(1 0.1343085356969613)"><path d="M 100 28 C 100 -13 0 -13 0 50 C 0 113 100 113 100 72 L 100 48 L 55 48 L 55 72 L 75 72 C 75 90 30 90 30 50 C 30 10 75 5 75 28 L 100 28" fill="#FF9900" /></g><g id="11_P" transform="translate(1248 389.67117856684246) scale(1 0.2686170713939226)"><path d="M 0 0 L 80 0 C 105 0 105 50 80 50 L 20 50 L 20 100 L 0 100 L 0 0" fill="#FFCC00" /><path d="M 20 15 L 70 15 C 80 15 80 35 70 35 L 20 35 L 20 15" fill="white" /></g><g id="11_T" transform="translate(1248 329.02883972185083) scale(1 0.6064233884499162)"><path d="M 0 0 L 0 20 L 35 20 L 35 100 L 65 100 L 65 20 L 100 20 L 100 0 L 0 0" fill="#FF6600" /></g><g id="11_E" transform="translate(1248 217.51205553710116) scale(1 1.1151678418474968)"><path d="M 0 0 L 100 0 L 100 20 L 20 20 L 20 40 L 90 40 L 90 60 L 20 60 L 20 80 L 100 80 L 100 100 L 0 100 L 0 0" fill="#FF0066" /></g><g id="12_I" transform="translate(1352 434.8210733899466) scale(1 0.09387510581116505)"><path d="M 40 0 L 60 0 L 60 100 L 40 100 L 40 0" fill="#66FF00" /></g><g id="12_Y" transform="translate(1352 419.0105292533293) scale(1 0.1581054413661727)"><path d="M 0 0 L 20 0 L 50 45 L 80 0 L 100 0 L 60 60 L 60 100 L 40 100 L 40 60 L 0 0" fill="#00FFCC" /></g><g id="12_A" transform="translate(1352 401.7177466039042) scale(1 0.17292782649425137)"><path d="M 0 100 L 33 0 L 66 0 L 100 100 L 75 100 L 66 75 L 33 75 L 25 100 L 0 100" fill="#CCFF00" /><path d="M 41 55 L 50 25 L 58 55 L 41 55" fill="white" /></g><g id="12_L" transform="translate(1352 360.2150682452839) scale(1 0.4150267835862033)"><path d="M 0 0 L 0 100 L 100 100 L 100 80 L 20 80 L 20 0 L 0 0" fill="#33FF00" /></g><g id="12_Q" transform="translate(1352 169.0063000930688) scale(1 1.912087681522151)"><circle cx="50" cy="50" fill="#FF00CC" r="50" /><circle cx="50" cy="50" fill="white" r="32" /><path d="M 85 100 L 55 70 L 70 55 L 100 85 L 85 100" fill="#FF00CC" /></g><g id="13_T" transform="translate(1456 427.745935005842) scale(1 0.16462648965221083)"><path d="M 0 0 L 0 20 L 35 20 L 35 100 L 65 100 L 65 20 L 100 20 L 100 0 L 0 0" fill="#FF6600" /></g><g id="13_H" transform="translate(1456 397.5644119029367) scale(1 0.30181523102905317)"><path d="M 0 0 L 20 0 L 20 40 L 80 40 L 80 0 L 100 0 L 100 100 L 80 100 L 80 60 L 20 60 L 20 100 L 0 100 L 0 0" fill="#0066FF" /></g><g id="13_F" transform="translate(1456 307.01984259422073) scale(1 0.9054456930871596)"><path d="M 0 0 L 100 0 L 100 20 L 20 20 L 20 40 L 80 40 L 80 60 L 20 60 L 20 100 L 0 100 L 0 0" fill="#00FF66" /></g><g id="13_Y" transform="translate(1456 189.49482081472578) scale(1 1.1752502177949495)"><path d="M 0 0 L 20 0 L 50 45 L 80 0 L 100 0 L 60 60 L 60 100 L 40 100 L 40 60 L 0 0" fill="#00FFCC" /></g><g id="14_F" transform="translate(1560 44.20858397106309) scale(1 4.0)"><path d="M 0 0 L 100 0 L 100 20 L 20 20 L 20 40 L 80 40 L 80 60 L 20 60 L 20 100 L 0 100 L 0 0" fill="#00FF66" /></g><g id="axes" stroke="#000000" stroke-width="1.5"><path d="M 100 446.2085839710631 h 1568" /><path d="M 100 446.2085839710631 v -436.2085839710631" /><path d="M 100 446.2085839710631 h -5.0" /><text dominant-baseline="middle" fill="#000000" font-family="sans-serif" font-size="20pt" font-weight="normal" text-anchor="end" x="91.0" y="446.2085839710631">0.0</text><path d="M 100 358.9668671768505 h -5.0" /><text dominant-baseline="middle" fill="#000000" font-family="sans-serif" font-size="20pt" font-weight="normal" text-anchor="end" x="91.0" y="358.9668671768505">1.0</text><path d="M 100 271.7251503826378 h -5.0" /><text dominant-baseline="middle" fill="#000000" font-family="sans-serif" font-size="20pt" font-weight="normal" text-anchor="end" x="91.0" y="271.7251503826378">2.0</text><path d="M 100 184.4834335884252 h -5.0" /><text dominant-baseline="middle" fill="#000000" font-family="sans-serif" font-size="20pt" font-weight="normal" text-anchor="end" x="91.0" y="184.4834335884252">3.0</text><path d="M 100 97.2417167942126 h -5.0" /><text dominant-baseline="middle" fill="#000000" font-family="sans-serif" font-size="20pt" font-weight="normal" text-anchor="end" x="91.0" y="97.2417167942126">4.0</text><path d="M 100 10.0 h -5.0" /><text dominant-baseline="middle" fill="#000000" font-family="sans-serif" font-size="20pt" font-weight="normal" text-anchor="end" x="91.0" y="10.0">5.0</text><text dominant-baseline="hanging" fill="#000000" font-family="sans-serif" font-size="20pt" font-weight="normal" text-anchor="middle" x="154.0" y="456.2085839710631">0</text><text dominant-baseline="hanging" fill="#000000" font-family="sans-serif" font-size="20pt" font-weight="normal" text-anchor="middle" x="258.0" y="456.2085839710631">1</text><text dominant-baseline="hanging" fill="#000000" font-family="sans-serif" font-size="20pt" font-weight="normal" text-anchor="middle" x="362.0" y="456.2085839710631">2</text><text dominant-baseline="hanging" fill="#000000" font-family="sans-serif" font-size="20pt" font-weight="normal" text-anchor="middle" x="466.0" y="456.2085839710631">3</text><text dominant-baseline="hanging" fill="#000000" font-family="sans-serif" font-size="20pt" font-weight="normal" text-anchor="middle" x="570.0" y="456.2085839710631">4</text><text dominant-baseline="hanging" fill="#000000" font-family="sans-serif" font-size="20pt" font-weight="normal" text-anchor="middle" x="674.0" y="456.2085839710631">5</text><text dominant-baseline="hanging" fill="#000000" font-family="sans-serif" font-size="20pt" font-weight="normal" text-anchor="middle" x="778.0" y="456.2085839710631">6</text><text dominant-baseline="hanging" fill="#000000" font-family="sans-serif" font-size="20pt" font-weight="normal" text-anchor="middle" x="882.0" y="456.2085839710631">7</text><text dominant-baseline="hanging" fill="#000000" font-family="sans-serif" font-size="20pt" font-weight="normal" text-anchor="middle" x="986.0" y="456.2085839710631">8</text><text dominant-baseline="hanging" fill="#000000" font-family="sans-serif" font-size="20pt" font-weight="normal" text-anchor="middle" x="1090.0" y="456.2085839710631">9</text><text dominant-baseline="hanging" fill="#000000" font-family="sans-serif" font-size="20pt" font-weight="normal" text-anchor="middle" x="1194.0" y="456.2085839710631">10</text><text dominant-baseline="hanging" fill="#000000" font-family="sans-serif" font-size="20pt" font-weight="normal" text-anchor="middle" x="1298.0" y="456.2085839710631">11</text><text dominant-baseline="hanging" fill="#000000" font-family="sans-serif" font-size="20pt" font-weight="normal" text-anchor="middle" x="1402.0" y="456.2085839710631">12</text><text dominant-baseline="hanging" fill="#000000" font-family="sans-serif" font-size="20pt" font-weight="normal" text-anchor="middle" x="1506.0" y="456.2085839710631">13</text><text dominant-baseline="hanging" fill="#000000" font-family="sans-serif" font-size="20pt" font-weight="normal" text-anchor="middle" x="1610.0" y="456.2085839710631">14</text><text dominant-baseline="hanging" fill="#000000" font-family="sans-serif" font-size="28pt" font-weight="normal" text-anchor="middle" transform="rotate(-90, 0, 184.4834335884252)" x="0" y="184.4834335884252" /></g></svg>