<?xml version="1.0" encoding="utf-8" ?>
<svg baseProfile="full" height="100%" version="1.1" viewBox="0 0 2506.000000 496.208584" width="100%" xmlns="http://www.w3.org/2000/svg" xmlns:ev="http://www.w3.org/2001/xml-events" xmlns:xlink="http://www.w3.org/1999/xlink"><defs /><g id="0_C" transform="translate(104 44.20858397106309) scale(1 4.0)"><path d="M 100 28 C 100 -13 0 -13 0 50 C 0 113 100 113 100 72 L 75 72 C 75 90 30 90 30 50 C 30 10 75 10 75 28 L 100 28" fill="#FFFF00" /></g><g id="1_A" transform="translate(208 44.20858397106309) scale(1 4.0)"><path d="M 0 100 L 33 0 L 66 0 L 100 100 L 75 100 L 66 75 L 33 75 L 25 100 L 0 100" fill="#CCFF00" /><path d="M 41 55 L 50 25 L 58 55 L 41 55" fill="white" /></g><g id="2_S" transform="translate(312 443.44999557939144) scale(1 0.007585883916716545)"><path d="M92 26 A43 20 0 1 0 43 46 A42 23 0 1 1 9 68" fill="white" stroke="#FF3300" stroke-width="18" /></g><g id="2_R" transform="translate(312 45.94967834344453) scale(1 3.9750031723594694)"><path d="M 0 0 L 80 0 C 105 0 105 50 80 50 C 100 50 100 70 100 70 L 100 100 L 80 100 L 80 80 C 80 80 80 60 50 60 L 20 60 L 20 100 L 0 100 L 0 0" fill="#0000FF" /><path d="M 20 15 L 70 15 C 80 15 80 35 70 35 L 20 35 L 20 15" fill="white" /></g><g id="3_A" transform="translate(416 443.46987544151636) scale(1 0.0073870852954673735)"><path d="M 0 100 L 33 0 L 66 0 L 100 100 L 75 100 L 66 75 L 33 75 L 25 100 L 0 100" fill="#CCFF00" /><path d="M 41 55 L 50 25 L 58 55 L 41 55" fill="white" /></g><g id="3_R" transform="translate(416 442.73116691196964) scale(1 0.0073870852954673735)"><path d="M 0 0 L 80 0 C 105 0 105 50 80 50 C 100 50 100 70 100 70 L 100 100 L 80 100 L 80 80 C 80 80 80 60 50 60 L 20 60 L 20 100 L 0 100 L 0 0" fill="#0000FF" /><path d="M 20 15 L 70 15 C 80 15 80 35 70 35 L 20 35 L 20 15" fill="white" /></g><g id="3_E" transform="translate(416 441.9924583824229) scale(1 0.0073870852954673735)"><path d="M 0 0 L 100 0 L 100 20 L 20 20 L 20 40 L 90 40 L 90 60 L 20 60 L 20 80 L 100 80 L 100 100 L 0 100 L 0 0" fill="#FF0066" /></g><g id="3_G" transform="translate(416 441.2537498528761) scale(1 0.0073870852954673735)"><path d="M 100 28 C 100 -13 0 -13 0 50 C 0 113 100 113 100 72 L 100 48 L 55 48 L 55 72 L 75 72 C 75 90 30 90 30 50 C 30 10 75 5 75 28 L 100 28" fill="#FF9900" /></g><g id="3_S" transform="translate(416 440.5150413233294) scale(1 0.0073870852954673735)"><path d="M92 26 A43 20 0 1 0 43 46 A42 23 0 1 1 9 68" fill="white" stroke="#FF3300" stroke-width="18" /></g><g id="3_Y" transform="translate(416 439.7763327937827) scale(1 0.0073870852954673735)"><path d="M 0 0 L 20 0 L 50 45 L 80 0 L 100 0 L 60 60 L 60 100 L 40 100 L 40 60 L 0 0" fill="#00FFCC" /></g><g id="3_V" transform="translate(416 439.03762426423594) scale(1 0.0073870852954673735)"><path d="M 0 0 L 20 0 L 50 80 L 80 0 L 100 0 L 60 100 L 40 100 L 0 0" fill="#99FF00" /></g><g id="3_D" transform="translate(416 56.38660595902604) scale(1 3.8265101830520996)"><path d="M 0 0 L 60 0 C 110 0 110 100 60 100 L 0 100 L 0 0" fill="#FF0000" /><path d="M 20 15 L 40 15 C 85 15 85 85 40 85 L 20 85 L 20 15" fill="white" /></g><g id="4_W" transform="translate(520 443.48952414844274) scale(1 0.007190598226203319)"><path d="M 0 0 L 20 0 L 30 70 L 50 30 L 70 70 L 80 0 L 100 0 L 90 100 L 70 100 L 50 65 L 30 100 L 10 100 L 0 0" fill="#00CCFF" /></g><g id="4_D" transform="translate(520 442.0514045032021) scale(1 0.014381196452406639)"><path d="M 0 0 L 60 0 C 110 0 110 100 60 100 L 0 100 L 0 0" fill="#FF0000" /><path d="M 20 15 L 40 15 C 85 15 85 85 40 85 L 20 85 L 20 15" fill="white" /></g><g id="4_F" transform="translate(520 440.61328485796145) scale(1 0.014381196452406639)"><path d="M 0 0 L 100 0 L 100 20 L 20 20 L 20 40 L 80 40 L 80 60 L 20 60 L 20 100 L 0 100 L 0 0" fill="#00FF66" /></g><g id="4_R" transform="translate(520 438.45610539010045) scale(1 0.021571794678609958)"><path d="M 0 0 L 80 0 C 105 0 105 50 80 50 C 100 50 100 70 100 70 L 100 100 L 80 100 L 80 80 C 80 80 80 60 50 60 L 20 60 L 20 100 L 0 100 L 0 0" fill="#0000FF" /><path d="M 20 15 L 70 15 C 80 15 80 35 70 35 L 20 35 L 20 15" fill="white" /></g><g id="4_P" transform="translate(520 436.29892592223945) scale(1 0.021571794678609958)"><path d="M 0 0 L 80 0 C 105 0 105 50 80 50 L 20 50 L 20 100 L 0 100 L 0 0" fill="#FFCC00" /><path d="M 20 15 L 70 15 C 80 15 80 35 70 35 L 20 35 L 20 15" fill="white" /></g><g id="4_G" transform="translate(520 433.4226866317581) scale(1 0.028762392904813278)"><path d="M 100 28 C 100 -13 0 -13 0 50 C 0 113 100 113 100 72 L 100 48 L 55 48 L 55 72 L 75 72 C 75 90 30 90 30 50 C 30 10 75 5 75 28 L 100 28" fill="#FF9900" /></g><g id="4_L" transform="translate(520 66.70217709538883) scale(1 3.667205095363693)"><path d="M 0 0 L 0 100 L 100 100 L 100 80 L 20 80 L 20 0 L 0 0" fill="#33FF00" /></g><g id="5_A" transform="translate(624 443.4902573509499) scale(1 0.00718326620113202)"><path d="M 0 100 L 33 0 L 66 0 L 100 100 L 75 100 L 66 75 L 33 75 L 25 100 L 0 100" fill="#CCFF00" /><path d="M 41 55 L 50 25 L 58 55 L 41 55" fill="white" /></g><g id="5_R" transform="translate(624 442.7719307308367) scale(1 0.00718326620113202)"><path d="M 0 0 L 80 0 C 105 0 105 50 80 50 C 100 50 100 70 100 70 L 100 100 L 80 100 L 80 80 C 80 80 80 60 50 60 L 20 60 L 20 100 L 0 100 L 0 0" fill="#0000FF" /><path d="M 20 15 L 70 15 C 80 15 80 35 70 35 L 20 35 L 20 15" fill="white" /></g><g id="5_D" transform="translate(624 442.0536041107235) scale(1 0.00718326620113202)"><path d="M 0 0 L 60 0 C 110 0 110 100 60 100 L 0 100 L 0 0" fill="#FF0000" /><path d="M 20 15 L 40 15 C 85 15 85 85 40 85 L 20 85 L 20 15" fill="white" /></g><g id="5_E" transform="translate(624 441.3352774906103) scale(1 0.00718326620113202)"><path d="M 0 0 L 100 0 L 100 20 L 20 20 L 20 40 L 90 40 L 90 60 L 20 60 L 20 80 L 100 80 L 100 100 L 0 100 L 0 0" fill="#FF0066" /></g><g id="5_H" transform="translate(624 440.6169508704971) scale(1 0.00718326620113202)"><path d="M 0 0 L 20 0 L 20 40 L 80 40 L 80 0 L 100 0 L 100 100 L 80 100 L 80 60 L 20 60 L 20 100 L 0 100 L 0 0" fill="#0066FF" /></g><g id="5_I" transform="translate(624 439.8986242503839) scale(1 0.00718326620113202)"><path d="M 40 0 L 60 0 L 60 100 L 40 100 L 40 0" fill="#66FF00" /></g><g id="5_V" transform="translate(624 439.1802976302707) scale(1 0.00718326620113202)"><path d="M 0 0 L 20 0 L 50 80 L 80 0 L 100 0 L 60 100 L 40 100 L 0 0" fill="#99FF00" /></g><g id="5_G" transform="translate(624 437.74364439004427) scale(1 0.01436653240226404)"><path d="M 100 28 C 100 -13 0 -13 0 50 C 0 113 100 113 100 72 L 100 48 L 55 48 L 55 72 L 75 72 C 75 90 30 90 30 50 C 30 10 75 5 75 28 L 100 28" fill="#FF9900" /></g><g id="5_L" transform="translate(624 436.30699114981786) scale(1 0.01436653240226404)"><path d="M 0 0 L 0 100 L 100 100 L 100 80 L 20 80 L 20 0 L 0 0" fill="#33FF00" /></g><g id="5_Y" transform="translate(624 434.15201128947825) scale(1 0.021549798603396057)"><path d="M 0 0 L 20 0 L 50 45 L 80 0 L 100 0 L 60 60 L 60 100 L 40 100 L 40 60 L 0 0" fill="#00FFCC" /></g><g id="5_S" transform="translate(624 67.08710841163207) scale(1 3.670649028778462)"><path d="M92 26 A43 20 0 1 0 43 46 A42 23 0 1 1 9 68" fill="white" stroke="#FF3300" stroke-width="18" /></g><g id="6_R" transform="translate(728 443.4949653476587) scale(1 0.007136186234044137)"><path d="M 0 0 L 80 0 C 105 0 105 50 80 50 C 100 50 100 70 100 70 L 100 100 L 80 100 L 80 80 C 80 80 80 60 50 60 L 20 60 L 20 100 L 0 100 L 0 0" fill="#0000FF" /><path d="M 20 15 L 70 15 C 80 15 80 35 70 35 L 20 35 L 20 15" fill="white" /></g><g id="6_D" transform="translate(728 442.7813467242543) scale(1 0.007136186234044137)"><path d="M 0 0 L 60 0 C 110 0 110 100 60 100 L 0 100 L 0 0" fill="#FF0000" /><path d="M 20 15 L 40 15 C 85 15 85 85 40 85 L 20 85 L 20 15" fill="white" /></g><g id="6_L" transform="translate(728 442.0677281008499) scale(1 0.007136186234044137)"><path d="M 0 0 L 0 100 L 100 100 L 100 80 L 20 80 L 20 0 L 0 0" fill="#33FF00" /></g><g id="6_C" transform="translate(728 440.64049085404105) scale(1 0.014272372468088273)"><path d="M 100 28 C 100 -13 0 -13 0 50 C 0 113 100 113 100 72 L 75 72 C 75 90 30 90 30 50 C 30 10 75 10 75 28 L 100 28" fill="#FFFF00" /></g><g id="6_I" transform="translate(728 439.2132536072322) scale(1 0.014272372468088273)"><path d="M 40 0 L 60 0 L 60 100 L 40 100 L 40 0" fill="#66FF00" /></g><g id="6_P" transform="translate(728 437.7860163604234) scale(1 0.014272372468088273)"><path d="M 0 0 L 80 0 C 105 0 105 50 80 50 L 20 50 L 20 100 L 0 100 L 0 0" fill="#FFCC00" /><path d="M 20 15 L 70 15 C 80 15 80 35 70 35 L 20 35 L 20 15" fill="white" /></g><g id="6_T" transform="translate(728 436.35877911361456) scale(1 0.014272372468088273)"><path d="M 0 0 L 0 20 L 35 20 L 35 100 L 65 100 L 65 20 L 100 20 L 100 0 L 0 0" fill="#FF6600" /></g><g id="6_V" transform="translate(728 434.93154186680573) scale(1 0.014272372468088273)"><path d="M 0 0 L 20 0 L 50 80 L 80 0 L 100 0 L 60 100 L 40 100 L 0 0" fill="#99FF00" /></g><g id="6_Y" transform="translate(728 432.7906859965925) scale(1 0.02140855870213241)"><path d="M 0 0 L 20 0 L 50 45 L 80 0 L 100 0 L 60 60 L 60 100 L 40 100 L 40 60 L 0 0" fill="#00FFCC" /></g><g id="6_H" transform="translate(728 69.5588066837459) scale(1 3.6323187931284657)"><path d="M 0 0 L 20 0 L 20 40 L 80 40 L 80 0 L 100 0 L 100 100 L 80 100 L 80 60 L 20 60 L 20 100 L 0 100 L 0 0" fill="#0066FF" /></g><g id="7_G" transform="translate(832 443.4920247245853) scale(1 0.007165592464777729)"><path d="M 100 28 C 100 -13 0 -13 0 50 C 0 113 100 113 100 72 L 100 48 L 55 48 L 55 72 L 75 72 C 75 90 30 90 30 50 C 30 10 75 5 75 28 L 100 28" fill="#FF9900" /></g><g id="7_L" transform="translate(832 442.7754654781075) scale(1 0.007165592464777729)"><path d="M 0 0 L 0 100 L 100 100 L 100 80 L 20 80 L 20 0 L 0 0" fill="#33FF00" /></g><g id="7_M" transform="translate(832 442.05890623162975) scale(1 0.007165592464777729)"><path d="M 0 0 L 20 0 L 50 35 L 80 0 L 100 0 L 100 100 L 80 100 L 80 30 L 50 65 L 20 30 L 20 100 L 0 100 L 0 0" fill="#00FF00" /></g><g id="7_F" transform="translate(832 441.34234698515195) scale(1 0.007165592464777729)"><path d="M 0 0 L 100 0 L 100 20 L 20 20 L 20 40 L 80 40 L 80 60 L 20 60 L 20 100 L 0 100 L 0 0" fill="#00FF66" /></g><g id="7_S" transform="translate(832 440.6257877386742) scale(1 0.007165592464777729)"><path d="M92 26 A43 20 0 1 0 43 46 A42 23 0 1 1 9 68" fill="white" stroke="#FF3300" stroke-width="18" /></g><g id="7_T" transform="translate(832 439.9092284921964) scale(1 0.007165592464777729)"><path d="M 0 0 L 0 20 L 35 20 L 35 100 L 65 100 L 65 20 L 100 20 L 100 0 L 0 0" fill="#FF6600" /></g><g id="7_W" transform="translate(832 439.19266924571866) scale(1 0.007165592464777729)"><path d="M 0 0 L 20 0 L 30 70 L 50 30 L 70 70 L 80 0 L 100 0 L 90 100 L 70 100 L 50 65 L 30 100 L 10 100 L 0 0" fill="#00CCFF" /></g><g id="7_V" transform="translate(832 438.47610999924086) scale(1 0.007165592464777729)"><path d="M 0 0 L 20 0 L 50 80 L 80 0 L 100 0 L 60 100 L 40 100 L 0 0" fill="#99FF00" /></g><g id="7_D" transform="translate(832 437.0429915062854) scale(1 0.014331184929555457)"><path d="M 0 0 L 60 0 C 110 0 110 100 60 100 L 0 100 L 0 0" fill="#FF0000" /><path d="M 20 15 L 40 15 C 85 15 85 85 40 85 L 20 85 L 20 15" fill="white" /></g><g id="7_Y" transform="translate(832 433.4601952738965) scale(1 0.03582796232388865)"><path d="M 0 0 L 20 0 L 50 45 L 80 0 L 100 0 L 60 60 L 60 100 L 40 100 L 40 60 L 0 0" fill="#00FFCC" /></g><g id="7_C" transform="translate(832 68.0149795702323) scale(1 3.654452157036642)"><path d="M 100 28 C 100 -13 0 -13 0 50 C 0 113 100 113 100 72 L 75 72 C 75 90 30 90 30 50 C 30 10 75 10 75 28 L 100 28" fill="#FFFF00" /></g><g id="8_F" transform="translate(936 443.48238054734435) scale(1 0.007262034237187691)"><path d="M 0 0 L 100 0 L 100 20 L 20 20 L 20 40 L 80 40 L 80 60 L 20 60 L 20 100 L 0 100 L 0 0" fill="#00FF66" /></g><g id="8_G" transform="translate(936 442.0299736999068) scale(1 0.014524068474375382)"><path d="M 100 28 C 100 -13 0 -13 0 50 C 0 113 100 113 100 72 L 100 48 L 55 48 L 55 72 L 75 72 C 75 90 30 90 30 50 C 30 10 75 5 75 28 L 100 28" fill="#FF9900" /></g><g id="8_T" transform="translate(936 440.57756685246926) scale(1 0.014524068474375382)"><path d="M 0 0 L 0 20 L 35 20 L 35 100 L 65 100 L 65 20 L 100 20 L 100 0 L 0 0" fill="#FF6600" /></g><g id="8_Y" transform="translate(936 439.1251600050317) scale(1 0.014524068474375382)"><path d="M 0 0 L 20 0 L 50 45 L 80 0 L 100 0 L 60 60 L 60 100 L 40 100 L 40 60 L 0 0" fill="#00FFCC" /></g><g id="8_V" transform="translate(936 437.6727531575942) scale(1 0.014524068474375382)"><path d="M 0 0 L 20 0 L 50 80 L 80 0 L 100 0 L 60 100 L 40 100 L 0 0" fill="#99FF00" /></g><g id="8_D" transform="translate(936 435.4941428864379) scale(1 0.021786102711563077)"><path d="M 0 0 L 60 0 C 110 0 110 100 60 100 L 0 100 L 0 0" fill="#FF0000" /><path d="M 20 15 L 40 15 C 85 15 85 85 40 85 L 20 85 L 20 15" fill="white" /></g><g id="8_S" transform="translate(936 62.951786518709355) scale(1 3.7254235636772854)"><path d="M92 26 A43 20 0 1 0 43 46 A42 23 0 1 1 9 68" fill="white" stroke="#FF3300" stroke-width="18" /></g><g id="9_A" transform="translate(1040 443.48680832482626) scale(1 0.007217756462368408)"><path d="M 0 100 L 33 0 L 66 0 L 100 100 L 75 100 L 66 75 L 33 75 L 25 100 L 0 100" fill="#CCFF00" /><path d="M 41 55 L 50 25 L 58 55 L 41 55" fill="white" /></g><g id="9_N" transform="translate(1040 442.7650326785894) scale(1 0.007217756462368408)"><path d="M 0 100 L 0 0 L 20 0 L 80 75 L 80 0 L 100 0 L 100 100 L 80 100 L 20 25 L 20 100 L 0 100" fill="#CC00FF" /></g><g id="9_Q" transform="translate(1040 442.0432570323526) scale(1 0.007217756462368408)"><circle cx="50" cy="50" fill="#FF00CC" r="50" /><circle cx="50" cy="50" fill="white" r="32" /><path d="M 85 100 L 55 70 L 70 55 L 100 85 L 85 100" fill="#FF00CC" /></g><g id="9_I" transform="translate(1040 441.32148138611575) scale(1 0.007217756462368408)"><path d="M 40 0 L 60 0 L 60 100 L 40 100 L 40 0" fill="#66FF00" /></g><g id="9_F" transform="translate(1040 440.5997057398789) scale(1 0.007217756462368408)"><path d="M 0 0 L 100 0 L 100 20 L 20 20 L 20 40 L 80 40 L 80 60 L 20 60 L 20 100 L 0 100 L 0 0" fill="#00FF66" /></g><g id="9_W" transform="translate(1040 439.8779300936421) scale(1 0.007217756462368408)"><path d="M 0 0 L 20 0 L 30 70 L 50 30 L 70 70 L 80 0 L 100 0 L 90 100 L 70 100 L 50 65 L 30 100 L 10 100 L 0 0" fill="#00CCFF" /></g><g id="9_Y" transform="translate(1040 439.1561544474052) scale(1 0.007217756462368408)"><path d="M 0 0 L 20 0 L 50 45 L 80 0 L 100 0 L 60 60 L 60 100 L 40 100 L 40 60 L 0 0" fill="#00FFCC" /></g><g id="9_G" transform="translate(1040 434.1037249237473) scale(1 0.05052429523657886)"><path d="M 100 28 C 100 -13 0 -13 0 50 C 0 113 100 113 100 72 L 100 48 L 55 48 L 55 72 L 75 72 C 75 90 30 90 30 50 C 30 10 75 5 75 28 L 100 28" fill="#FF9900" /></g><g id="9_S" transform="translate(1040 65.27636969672164) scale(1 3.6882735522702568)"><path d="M92 26 A43 20 0 1 0 43 46 A42 23 0 1 1 9 68" fill="white" stroke="#FF3300" stroke-width="18" /></g><g id="10_A" transform="translate(1144 443.49330514768013) scale(1 0.007152788233829715)"><path d="M 0 100 L 33 0 L 66 0 L 100 100 L 75 100 L 66 75 L 33 75 L 25 100 L 0 100" fill="#CCFF00" /><path d="M 41 55 L 50 25 L 58 55 L 41 55" fill="white" /></g><g id="10_D" transform="translate(1144 442.7780263242972) scale(1 0.007152788233829715)"><path d="M 0 0 L 60 0 C 110 0 110 100 60 100 L 0 100 L 0 0" fill="#FF0000" /><path d="M 20 15 L 40 15 C 85 15 85 85 40 85 L 20 85 L 20 15" fill="white" /></g><g id="10_L" transform="translate(1144 442.0627475009142) scale(1 0.007152788233829715)"><path d="M 0 0 L 0 100 L 100 100 L 100 80 L 20 80 L 20 0 L 0 0" fill="#33FF00" /></g><g id="10_V" transform="translate(1144 441.3474686775312) scale(1 0.007152788233829715)"><path d="M 0 0 L 20 0 L 50 80 L 80 0 L 100 0 L 60 100 L 40 100 L 0 0" fill="#99FF00" /></g><g id="10_W" transform="translate(1144 439.9169110307653) scale(1 0.01430557646765943)"><path d="M 0 0 L 20 0 L 30 70 L 50 30 L 70 70 L 80 0 L 100 0 L 90 100 L 70 100 L 50 65 L 30 100 L 10 100 L 0 0" fill="#00CCFF" /></g><g id="10_Y" transform="translate(1144 438.48635338399936) scale(1 0.01430557646765943)"><path d="M 0 0 L 20 0 L 50 45 L 80 0 L 100 0 L 60 60 L 60 100 L 40 100 L 40 60 L 0 0" fill="#00FFCC" /></g><g id="10_G" transform="translate(1144 435.6252380904674) scale(1 0.02861115293531886)"><path d="M 100 28 C 100 -13 0 -13 0 50 C 0 113 100 113 100 72 L 100 48 L 55 48 L 55 72 L 75 72 C 75 90 30 90 30 50 C 30 10 75 5 75 28 L 100 28" fill="#FF9900" /></g><g id="10_S" transform="translate(1144 432.76412279693557) scale(1 0.02861115293531886)"><path d="M92 26 A43 20 0 1 0 43 46 A42 23 0 1 1 9 68" fill="white" stroke="#FF3300" stroke-width="18" /></g><g id="10_T" transform="translate(1144 68.68720169500307) scale(1 3.6407692110193253)"><path d="M 0 0 L 0 20 L 35 20 L 35 100 L 65 100 L 65 20 L 100 20 L 100 0 L 0 0" fill="#FF6600" /></g><g id="11_R" transform="translate(1248 443.4896243044788) scale(1 0.007189596665842711)"><path d="M 0 0 L 80 0 C 105 0 105 50 80 50 C 100 50 100 70 100 70 L 100 100 L 80 100 L 80 80 C 80 80 80 60 50 60 L 20 60 L 20 100 L 0 100 L 0 0" fill="#0000FF" /><path d="M 20 15 L 70 15 C 80 15 80 35 70 35 L 20 35 L 20 15" fill="white" /></g><g id="11_N" transform="translate(1248 442.7706646378945) scale(1 0.007189596665842711)"><path d="M 0 100 L 0 0 L 20 0 L 80 75 L 80 0 L 100 0 L 100 100 L 80 100 L 20 25 L 20 100 L 0 100" fill="#CC00FF" /></g><g id="11_I" transform="translate(1248 442.05170497131024) scale(1 0.007189596665842711)"><path d="M 40 0 L 60 0 L 60 100 L 40 100 L 40 0" fill="#66FF00" /></g><g id="11_P" transform="translate(1248 441.332745304726) scale(1 0.007189596665842711)"><path d="M 0 0 L 80 0 C 105 0 105 50 80 50 L 20 50 L 20 100 L 0 100 L 0 0" fill="#FFCC00" /><path d="M 20 15 L 70 15 C 80 15 80 35 70 35 L 20 35 L 20 15" fill="white" /></g><g id="11_Y" transform="translate(1248 440.61378563814174) scale(1 0.007189596665842711)"><path d="M 0 0 L 20 0 L 50 45 L 80 0 L 100 0 L 60 60 L 60 100 L 40 100 L 40 60 L 0 0" fill="#00FFCC" /></g><g id="11_C" transform="translate(1248 439.17586630497317) scale(1 0.014379193331685422)"><path d="M 100 28 C 100 -13 0 -13 0 50 C 0 113 100 113 100 72 L 75 72 C 75 90 30 90 30 50 C 30 10 75 10 75 28 L 100 28" fill="#FFFF00" /></g><g id="11_T" transform="translate(1248 437.7379469718046) scale(1 0.014379193331685422)"><path d="M 0 0 L 0 20 L 35 20 L 35 100 L 65 100 L 65 20 L 100 20 L 100 0 L 0 0" fill="#FF6600" /></g><g id="11_V" transform="translate(1248 436.3000276386361) scale(1 0.014379193331685422)"><path d="M 0 0 L 20 0 L 50 80 L 80 0 L 100 0 L 60 100 L 40 100 L 0 0" fill="#99FF00" /></g><g id="11_G" transform="translate(1248 434.1431486388833) scale(1 0.02156878999752813)"><path d="M 100 28 C 100 -13 0 -13 0 50 C 0 113 100 113 100 72 L 100 48 L 55 48 L 55 72 L 75 72 C 75 90 30 90 30 50 C 30 10 75 5 75 28 L 100 28" fill="#FF9900" /></g><g id="11_S" transform="translate(1248 66.75475901432083) scale(1 3.6738838962456253)"><path d="M92 26 A43 20 0 1 0 43 46 A42 23 0 1 1 9 68" fill="white" stroke="#FF3300" stroke-width="18" /></g><g id="12_A" transform="translate(1352 443.49292832023275) scale(1 0.00715655650830337)"><path d="M 0 100 L 33 0 L 66 0 L 100 100 L 75 100 L 66 75 L 33 75 L 25 100 L 0 100" fill="#CCFF00" /><path d="M 41 55 L 50 25 L 58 55 L 41 55" fill="white" /></g><g id="12_R" transform="translate(1352 442.7772726694024) scale(1 0.00715655650830337)"><path d="M 0 0 L 80 0 C 105 0 105 50 80 50 C 100 50 100 70 100 70 L 100 100 L 80 100 L 80 80 C 80 80 80 60 50 60 L 20 60 L 20 100 L 0 100 L 0 0" fill="#0000FF" /><path d="M 20 15 L 70 15 C 80 15 80 35 70 35 L 20 35 L 20 15" fill="white" /></g><g id="12_N" transform="translate(1352 442.06161701857206) scale(1 0.00715655650830337)"><path d="M 0 100 L 0 0 L 20 0 L 80 75 L 80 0 L 100 0 L 100 100 L 80 100 L 20 25 L 20 100 L 0 100" fill="#CC00FF" /></g><g id="12_G" transform="translate(1352 441.3459613677417) scale(1 0.00715655650830337)"><path d="M 100 28 C 100 -13 0 -13 0 50 C 0 113 100 113 100 72 L 100 48 L 55 48 L 55 72 L 75 72 C 75 90 30 90 30 50 C 30 10 75 5 75 28 L 100 28" fill="#FF9900" /></g><g id="12_I" transform="translate(1352 440.6303057169114) scale(1 0.00715655650830337)"><path d="M 40 0 L 60 0 L 60 100 L 40 100 L 40 0" fill="#66FF00" /></g><g id="12_Y" transform="translate(1352 439.91465006608104) scale(1 0.00715655650830337)"><path d="M 0 0 L 20 0 L 50 45 L 80 0 L 100 0 L 60 60 L 60 100 L 40 100 L 40 60 L 0 0" fill="#00FFCC" /></g><g id="12_L" transform="translate(1352 438.4833387644204) scale(1 0.01431311301660674)"><path d="M 0 0 L 0 100 L 100 100 L 100 80 L 20 80 L 20 0 L 0 0" fill="#33FF00" /></g><g id="12_P" transform="translate(1352 437.0520274627597) scale(1 0.01431311301660674)"><path d="M 0 0 L 80 0 C 105 0 105 50 80 50 L 20 50 L 20 100 L 0 100 L 0 0" fill="#FFCC00" /><path d="M 20 15 L 70 15 C 80 15 80 35 70 35 L 20 35 L 20 15" fill="white" /></g><g id="12_W" transform="translate(1352 435.62071616109904) scale(1 0.01431311301660674)"><path d="M 0 0 L 20 0 L 30 70 L 50 30 L 70 70 L 80 0 L 100 0 L 90 100 L 70 100 L 50 65 L 30 100 L 10 100 L 0 0" fill="#00CCFF" /></g><g id="12_S" transform="translate(1352 433.473749208608) scale(1 0.021469669524910112)"><path d="M92 26 A43 20 0 1 0 43 46 A42 23 0 1 1 9 68" fill="white" stroke="#FF3300" stroke-width="18" /></g><g id="12_C" transform="translate(1352 68.48936728513615) scale(1 3.649843819234719)"><path d="M 100 28 C 100 -13 0 -13 0 50 C 0 113 100 113 100 72 L 75 72 C 75 90 30 90 30 50 C 30 10 75 10 75 28 L 100 28" fill="#FFFF00" /></g><g id="13_R" transform="translate(1456 443.4929508266709) scale(1 0.007156331443922173)"><path d="M 0 0 L 80 0 C 105 0 105 50 80 50 C 100 50 100 70 100 70 L 100 100 L 80 100 L 80 80 C 80 80 80 60 50 60 L 20 60 L 20 100 L 0 100 L 0 0" fill="#0000FF" /><path d="M 20 15 L 70 15 C 80 15 80 35 70 35 L 20 35 L 20 15" fill="white" /></g><g id="13_N" transform="translate(1456 442.7773176822787) scale(1 0.007156331443922173)"><path d="M 0 100 L 0 0 L 20 0 L 80 75 L 80 0 L 100 0 L 100 100 L 80 100 L 20 25 L 20 100 L 0 100" fill="#CC00FF" /></g><g id="13_Q" transform="translate(1456 442.06168453788644) scale(1 0.007156331443922173)"><circle cx="50" cy="50" fill="#FF00CC" r="50" /><circle cx="50" cy="50" fill="white" r="32" /><path d="M 85 100 L 55 70 L 70 55 L 100 85 L 85 100" fill="#FF00CC" /></g><g id="13_F" transform="translate(1456 441.34605139349424) scale(1 0.007156331443922173)"><path d="M 0 0 L 100 0 L 100 20 L 20 20 L 20 40 L 80 40 L 80 60 L 20 60 L 20 100 L 0 100 L 0 0" fill="#00FF66" /></g><g id="13_T" transform="translate(1456 440.63041824910204) scale(1 0.007156331443922173)"><path d="M 0 0 L 0 20 L 35 20 L 35 100 L 65 100 L 65 20 L 100 20 L 100 0 L 0 0" fill="#FF6600" /></g><g id="13_G" transform="translate(1456 438.4835188159253) scale(1 0.021468994331766522)"><path d="M 100 28 C 100 -13 0 -13 0 50 C 0 113 100 113 100 72 L 100 48 L 55 48 L 55 72 L 75 72 C 75 90 30 90 30 50 C 30 10 75 5 75 28 L 100 28" fill="#FF9900" /></g><g id="13_P" transform="translate(1456 436.3366193827487) scale(1 0.021468994331766522)"><path d="M 0 0 L 80 0 C 105 0 105 50 80 50 L 20 50 L 20 100 L 0 100 L 0 0" fill="#FFCC00" /><path d="M 20 15 L 70 15 C 80 15 80 35 70 35 L 20 35 L 20 15" fill="white" /></g><g id="13_Y" transform="translate(1456 432.7584536607876) scale(1 0.03578165721961087)"><path d="M 0 0 L 20 0 L 50 45 L 80 0 L 100 0 L 60 60 L 60 100 L 40 100 L 40 60 L 0 0" fill="#00FFCC" /></g><g id="13_H" transform="translate(1456 68.50118316514897) scale(1 3.642572704956386)"><path d="M 0 0 L 20 0 L 20 40 L 80 40 L 80 0 L 100 0 L 100 100 L 80 100 L 80 60 L 20 60 L 20 100 L 0 100 L 0 0" fill="#0066FF" /></g><g id="14_R" transform="translate(1560 443.4686093485742) scale(1 0.007399746224888757)"><path d="M 0 0 L 80 0 C 105 0 105 50 80 50 C 100 50 100 70 100 70 L 100 100 L 80 100 L 80 80 C 80 80 80 60 50 60 L 20 60 L 20 100 L 0 100 L 0 0" fill="#0000FF" /><path d="M 20 15 L 70 15 C 80 15 80 35 70 35 L 20 35 L 20 15" fill="white" /></g><g id="14_G" transform="translate(1560 442.7286347260853) scale(1 0.007399746224888757)"><path d="M 100 28 C 100 -13 0 -13 0 50 C 0 113 100 113 100 72 L 100 48 L 55 48 L 55 72 L 75 72 C 75 90 30 90 30 50 C 30 10 75 5 75 28 L 100 28" fill="#FF9900" /></g><g id="14_W" transform="translate(1560 441.98866010359643) scale(1 0.007399746224888757)"><path d="M 0 0 L 20 0 L 30 70 L 50 30 L 70 70 L 80 0 L 100 0 L 90 100 L 70 100 L 50 65 L 30 100 L 10 100 L 0 0" fill="#00CCFF" /></g><g id="14_L" transform="translate(1560 440.5087108586187) scale(1 0.014799492449777515)"><path d="M 0 0 L 0 100 L 100 100 L 100 80 L 20 80 L 20 0 L 0 0" fill="#33FF00" /></g><g id="14_S" transform="translate(1560 439.02876161364094) scale(1 0.014799492449777515)"><path d="M92 26 A43 20 0 1 0 43 46 A42 23 0 1 1 9 68" fill="white" stroke="#FF3300" stroke-width="18" /></g><g id="14_Y" transform="translate(1560 55.72190716440332) scale(1 3.8330685444923764)"><path d="M 0 0 L 20 0 L 50 45 L 80 0 L 100 0 L 60 60 L 60 100 L 40 100 L 40 60 L 0 0" fill="#00FFCC" /></g><g id="15_R" transform="translate(1664 443.47586198132916) scale(1 0.007327219897339449)"><path d="M 0 0 L 80 0 C 105 0 105 50 80 50 C 100 50 100 70 100 70 L 100 100 L 80 100 L 80 80 C 80 80 80 60 50 60 L 20 60 L 20 100 L 0 100 L 0 0" fill="#0000FF" /><path d="M 20 15 L 70 15 C 80 15 80 35 70 35 L 20 35 L 20 15" fill="white" /></g><g id="15_N" transform="translate(1664 442.7431399915952) scale(1 0.007327219897339449)"><path d="M 0 100 L 0 0 L 20 0 L 80 75 L 80 0 L 100 0 L 100 100 L 80 100 L 20 25 L 20 100 L 0 100" fill="#CC00FF" /></g><g id="15_D" transform="translate(1664 442.0104180018613) scale(1 0.007327219897339449)"><path d="M 0 0 L 60 0 C 110 0 110 100 60 100 L 0 100 L 0 0" fill="#FF0000" /><path d="M 20 15 L 40 15 C 85 15 85 85 40 85 L 20 85 L 20 15" fill="white" /></g><g id="15_E" transform="translate(1664 441.2776960121273) scale(1 0.007327219897339449)"><path d="M 0 0 L 100 0 L 100 20 L 20 20 L 20 40 L 90 40 L 90 60 L 20 60 L 20 80 L 100 80 L 100 100 L 0 100 L 0 0" fill="#FF0066" /></g><g id="15_K" transform="translate(1664 440.5449740223934) scale(1 0.007327219897339449)"><path d="M 0 0 L 20 0 L 20 40 L 75 0 L 100 0 L 50 50 L 100 100 L 75 100 L 30 65 L 20 75 L 20 100 L 0 100 L 0 0" fill="#6600FF" /></g><g id="15_F" transform="translate(1664 439.81225203265944) scale(1 0.007327219897339449)"><path d="M 0 0 L 100 0 L 100 20 L 20 20 L 20 40 L 80 40 L 80 60 L 20 60 L 20 100 L 0 100 L 0 0" fill="#00FF66" /></g><g id="15_P" transform="translate(1664 439.0795300429255) scale(1 0.007327219897339449)"><path d="M 0 0 L 80 0 C 105 0 105 50 80 50 L 20 50 L 20 100 L 0 100 L 0 0" fill="#FFCC00" /><path d="M 20 15 L 70 15 C 80 15 80 35 70 35 L 20 35 L 20 15" fill="white" /></g><g id="15_S" transform="translate(1664 437.6140860634576) scale(1 0.014654439794678897)"><path d="M92 26 A43 20 0 1 0 43 46 A42 23 0 1 1 9 68" fill="white" stroke="#FF3300" stroke-width="18" /></g><g id="15_Y" transform="translate(1664 59.529539360742035) scale(1 3.780845467027156)"><path d="M 0 0 L 20 0 L 50 45 L 80 0 L 100 0 L 60 60 L 60 100 L 40 100 L 40 60 L 0 0" fill="#00FFCC" /></g><g id="16_N" transform="translate(1768 443.4626192825248) scale(1 0.007459646885382456)"><path d="M 0 100 L 0 0 L 20 0 L 80 75 L 80 0 L 100 0 L 100 100 L 80 100 L 20 25 L 20 100 L 0 100" fill="#CC00FF" /></g><g id="16_S" transform="translate(1768 442.71665459398656) scale(1 0.007459646885382456)"><path d="M92 26 A43 20 0 1 0 43 46 A42 23 0 1 1 9 68" fill="white" stroke="#FF3300" stroke-width="18" /></g><g id="16_V" transform="translate(1768 441.97068990544835) scale(1 0.007459646885382456)"><path d="M 0 0 L 20 0 L 50 80 L 80 0 L 100 0 L 60 100 L 40 100 L 0 0" fill="#99FF00" /></g><g id="16_R" transform="translate(1768 440.4787605283719) scale(1 0.014919293770764912)"><path d="M 0 0 L 80 0 C 105 0 105 50 80 50 C 100 50 100 70 100 70 L 100 100 L 80 100 L 80 80 C 80 80 80 60 50 60 L 20 60 L 20 100 L 0 100 L 0 0" fill="#0000FF" /><path d="M 20 15 L 70 15 C 80 15 80 35 70 35 L 20 35 L 20 15" fill="white" /></g><g id="16_Y" transform="translate(1768 52.57712248848418) scale(1 3.8790163803988773)"><path d="M 0 0 L 20 0 L 50 45 L 80 0 L 100 0 L 60 60 L 60 100 L 40 100 L 40 60 L 0 0" fill="#00FFCC" /></g><g id="17_N" transform="translate(1872 443.47191958334747) scale(1 0.007366643877156228)"><path d="M 0 100 L 0 0 L 20 0 L 80 75 L 80 0 L 100 0 L 100 100 L 80 100 L 20 25 L 20 100 L 0 100" fill="#CC00FF" /></g><g id="17_D" transform="translate(1872 442.73525519563185) scale(1 0.007366643877156228)"><path d="M 0 0 L 60 0 C 110 0 110 100 60 100 L 0 100 L 0 0" fill="#FF0000" /><path d="M 20 15 L 40 15 C 85 15 85 85 40 85 L 20 85 L 20 15" fill="white" /></g><g id="17_T" transform="translate(1872 441.99859080791623) scale(1 0.007366643877156228)"><path d="M 0 0 L 0 20 L 35 20 L 35 100 L 65 100 L 65 20 L 100 20 L 100 0 L 0 0" fill="#FF6600" /></g><g id="17_W" transform="translate(1872 441.2619264202006) scale(1 0.007366643877156228)"><path d="M 0 0 L 20 0 L 30 70 L 50 30 L 70 70 L 80 0 L 100 0 L 90 100 L 70 100 L 50 65 L 30 100 L 10 100 L 0 0" fill="#00CCFF" /></g><g id="17_R" transform="translate(1872 439.78859764476937) scale(1 0.014733287754312456)"><path d="M 0 0 L 80 0 C 105 0 105 50 80 50 C 100 50 100 70 100 70 L 100 100 L 80 100 L 80 80 C 80 80 80 60 50 60 L 20 60 L 20 100 L 0 100 L 0 0" fill="#0000FF" /><path d="M 20 15 L 70 15 C 80 15 80 35 70 35 L 20 35 L 20 15" fill="white" /></g><g id="17_G" transform="translate(1872 438.3152688693381) scale(1 0.014733287754312456)"><path d="M 100 28 C 100 -13 0 -13 0 50 C 0 113 100 113 100 72 L 100 48 L 55 48 L 55 72 L 75 72 C 75 90 30 90 30 50 C 30 10 75 5 75 28 L 100 28" fill="#FF9900" /></g><g id="17_Y" transform="translate(1872 57.45978042036114) scale(1 3.80855488448977)"><path d="M 0 0 L 20 0 L 50 45 L 80 0 L 100 0 L 60 60 L 60 100 L 40 100 L 40 60 L 0 0" fill="#00FFCC" /></g><g id="18_F" transform="translate(1976 443.4780467024113) scale(1 0.0073053726865179676)"><path d="M 0 0 L 100 0 L 100 20 L 20 20 L 20 40 L 80 40 L 80 60 L 20 60 L 20 100 L 0 100 L 0 0" fill="#00FF66" /></g><g id="18_P" transform="translate(1976 442.7475094337595) scale(1 0.0073053726865179676)"><path d="M 0 0 L 80 0 C 105 0 105 50 80 50 L 20 50 L 20 100 L 0 100 L 0 0" fill="#FFCC00" /><path d="M 20 15 L 70 15 C 80 15 80 35 70 35 L 20 35 L 20 15" fill="white" /></g><g id="18_W" transform="translate(1976 442.0169721651077) scale(1 0.0073053726865179676)"><path d="M 0 0 L 20 0 L 30 70 L 50 30 L 70 70 L 80 0 L 100 0 L 90 100 L 70 100 L 50 65 L 30 100 L 10 100 L 0 0" fill="#00CCFF" /></g><g id="18_A" transform="translate(1976 439.0948230905005) scale(1 0.02922149074607187)"><path d="M 0 100 L 33 0 L 66 0 L 100 100 L 75 100 L 66 75 L 33 75 L 25 100 L 0 100" fill="#CCFF00" /><path d="M 41 55 L 50 25 L 58 55 L 41 55" fill="white" /></g><g id="18_Y" transform="translate(1976 436.17267401589334) scale(1 0.02922149074607187)"><path d="M 0 0 L 20 0 L 50 45 L 80 0 L 100 0 L 60 60 L 60 100 L 40 100 L 40 60 L 0 0" fill="#00FFCC" /></g><g id="18_G" transform="translate(1976 60.67651792886983) scale(1 3.7549615608702354)"><path d="M 100 28 C 100 -13 0 -13 0 50 C 0 113 100 113 100 72 L 100 48 L 55 48 L 55 72 L 75 72 C 75 90 30 90 30 50 C 30 10 75 5 75 28 L 100 28" fill="#FF9900" /></g><g id="19_L" transform="translate(2080 442.73069968871005) scale(1 0.014778842823530196)"><path d="M 0 0 L 0 100 L 100 100 L 100 80 L 20 80 L 20 0 L 0 0" fill="#33FF00" /></g><g id="19_F" transform="translate(2080 437.5581047004745) scale(1 0.05172594988235568)"><path d="M 0 0 L 100 0 L 100 20 L 20 20 L 20 40 L 80 40 L 80 60 L 20 60 L 20 100 L 0 100 L 0 0" fill="#00FF66" /></g><g id="19_M" transform="translate(2080 56.263959853395534) scale(1 3.81294144847079)"><path d="M 0 0 L 20 0 L 50 35 L 80 0 L 100 0 L 100 100 L 80 100 L 80 30 L 50 65 L 20 30 L 20 100 L 0 100 L 0 0" fill="#00FF00" /></g><g id="20_D" transform="translate(2184 44.20858397106309) scale(1 4.0)"><path d="M 0 0 L 60 0 C 110 0 110 100 60 100 L 0 100 L 0 0" fill="#FF0000" /><path d="M 20 15 L 40 15 C 85 15 85 85 40 85 L 20 85 L 20 15" fill="white" /></g><g id="21_L" transform="translate(2288 443.47245780953915) scale(1 0.007361261615239399)"><path d="M 0 0 L 0 100 L 100 100 L 100 80 L 20 80 L 20 0 L 0 0" fill="#33FF00" /></g><g id="21_P" transform="translate(2288 442.7363316480152) scale(1 0.007361261615239399)"><path d="M 0 0 L 80 0 C 105 0 105 50 80 50 L 20 50 L 20 100 L 0 100 L 0 0" fill="#FFCC00" /><path d="M 20 15 L 70 15 C 80 15 80 35 70 35 L 20 35 L 20 15" fill="white" /></g><g id="21_I" transform="translate(2288 440.5279531634434) scale(1 0.0220837848457182)"><path d="M 40 0 L 60 0 L 60 100 L 40 100 L 40 0" fill="#66FF00" /></g><g id="21_Y" transform="translate(2288 437.5834485173476) scale(1 0.029445046460957598)"><path d="M 0 0 L 20 0 L 50 45 L 80 0 L 100 0 L 60 60 L 60 100 L 40 100 L 40 60 L 0 0" fill="#00FFCC" /></g><g id="21_V" transform="translate(2288 57.742349170994544) scale(1 3.7984109934635306)"><path d="M 0 0 L 20 0 L 50 80 L 80 0 L 100 0 L 60 100 L 40 100 L 0 0" fill="#99FF00" /></g><g id="22_W" transform="translate(2392 44.20858397106309) scale(1 4.0)"><path d="M 0 0 L 20 0 L 30 70 L 50 30 L 70 70 L 80 0 L 100 0 L 90 100 L 70 100 L 50 65 L 30 100 L 10 100 L 0 0" fill="#00CCFF" /></g><g id="axes" stroke="#000000" stroke-width="1.5"><path d="M 100 446.2085839710631 h 2400" /><path d="M 100 446.2085839710631 v -436.2085839710631" /><path d="M 100 446.2085839710631 h -5.0" /><text dominant-baseline="middle" fill="#000000" font-family="sans-serif" font-size="20pt" font-weight="normal" text-anchor="end" x="91.0" y="446.2085839710631">0.0</text><path d="M 100 358.9668671768505 h -5.0" /><text dominant-baseline="middle" fill="#000000" font-family="sans-serif" font-size="20pt" font-weight="normal" text-anchor="end" x="91.0" y="358.9668671768505">1.0</text><path d="M 100 271.7251503826378 h -5.0" /><text dominant-baseline="middle" fill="#000000" font-family="sans-serif" font-size="20pt" font-weight="normal" text-anchor="end" x="91.0" y="271.7251503826378">2.0</text><path d="M 100 184.4834335884252 h -5.0" /><text dominant-baseline="middle" fill="#000000" font-family="sans-serif" font-size="20pt" font-weight="normal" text-anchor="end" x="91.0" y="184.4834335884252">3.0</text><path d="M 100 97.2417167942126 h -5.0" /><text dominant-baseline="middle" fill="#000000" font-family="sans-serif" font-size="20pt" font-weight="normal" text-anchor="end" x="91.0" y="97.2417167942126">4.0</text><path d="M 100 10.0 h -5.0" /><text dominant-baseline="middle" fill="#000000" font-family="sans-serif" font-size="20pt" font-weight="normal" text-anchor="end" x="91.0" y="10.0">5.0</text><text dominant-baseline="hanging" fill="#000000" font-family="sans-serif" font-size="20pt" font-weight="normal" text-anchor="middle" x="154.0" y="456.2085839710631">0</text><text dominant-baseline="hanging" fill="#000000" font-family="sans-serif" font-size="20pt" font-weight="normal" text-anchor="middle" x="258.0" y="456.2085839710631">1</text><text dominant-baseline="hanging" fill="#000000" font-family="sans-serif" font-size="20pt" font-weight="normal" text-anchor="middle" x="362.0" y="456.2085839710631">2</text><text dominant-baseline="hanging" fill="#000000" font-family="sans-serif" font-size="20pt" font-weight="normal" text-anchor="middle" x="466.0" y="456.2085839710631">3</text><text dominant-baseline="hanging" fill="#000000" font-family="sans-serif" font-size="20pt" font-weight="normal" text-anchor="middle" x="570.0" y="456.2085839710631">4</text><text dominant-baseline="hanging" fill="#000000" font-family="sans-serif" font-size="20pt" font-weight="normal" text-anchor="middle" x="674.0" y="456.2085839710631">5</text><text dominant-baseline="hanging" fill="#000000" font-family="sans-serif" font-size="20pt" font-weight="normal" text-anchor="middle" x="778.0" y="456.2085839710631">6</text><text dominant-baseline="hanging" fill="#000000" font-family="sans-serif" font-size="20pt" font-weight="normal" text-anchor="middle" x="882.0" y="456.2085839710631">7</text><text dominant-baseline="hanging" fill="#000000" font-family="sans-serif" font-size="20pt" font-weight="normal" text-anchor="middle" x="986.0" y="456.2085839710631">8</text><text dominant-baseline="hanging" fill="#000000" font-family="sans-serif" font-size="20pt" font-weight="normal" text-anchor="middle" x="1090.0" y="456.2085839710631">9</text><text dominant-baseline="hanging" fill="#000000" font-family="sans-serif" font-size="20pt" font-weight="normal" text-anchor="middle" x="1194.0" y="456.2085839710631">10</text><text dominant-baseline="hanging" fill="#000000" font-family="sans-serif" font-size="20pt" font-weight="normal" text-anchor="middle" x="1298.0" y="456.2085839710631">11</text><text dominant-baseline="hanging" fill="#000000" font-family="sans-serif" font-size="20pt" font-weight="normal" text-anchor="middle" x="1402.0" y="456.2085839710631">12</text><text dominant-baseline="hanging" fill="#000000" font-family="sans-serif" font-size="20pt" font-weight="normal" text-anchor="middle" x="1506.0" y="456.2085839710631">13</text><text dominant-baseline="hanging" fill="#000000" font-family="sans-serif" font-size="20pt" font-weight="normal" text-anchor="middle" x="1610.0" y="456.2085839710631">14</text><text dominant-baseline="hanging" fill="#000000" font-family="sans-serif" font-size="20pt" font-weight="normal" text-anchor="middle" x="1714.0" y="456.2085839710631">15</text><text dominant-baseline="hanging" fill="#000000" font-family="sans-serif" font-size="20pt" font-weight="normal" text-anchor="middle" x="1818.0" y="456.2085839710631">16</text><text dominant-baseline="hanging" fill="#000000" font-family="sans-serif" font-size="20pt" font-weight="normal" text-anchor="middle" x="1922.0" y="456.2085839710631">17</text><text dominant-baseline="hanging" fill="#000000" font-family="sans-serif" font-size="20pt" font-weight="normal" text-anchor="middle" x="2026.0" y="456.2085839710631">18</text><text dominant-baseline="hanging" fill="#000000" font-family="sans-serif" font-size="20pt" font-weight="normal" text-anchor="middle" x="2130.0" y="456.2085839710631">19</text><text dominant-baseline="hanging" fill="#000000" font-family="sans-serif" font-size="20pt" font-weight="normal" text-anchor="middle" x="2234.0" y="456.2085839710631">20</text><text dominant-baseline="hanging" fill="#000000" font-family="sans-serif" font-size="20pt" font-weight="normal" text-anchor="middle" x="2338.0" y="456.2085839710631">21</text><text dominant-baseline="hanging" fill="#000000" font-family="sans-serif" font-size="20pt" font-weight="normal" text-anchor="middle" x="2442.0" y="456.2085839710631">22</text><text dominant-baseline="hanging" fill="#000000" font-family="sans-serif" font-size="28pt" font-weight="normal" text-anchor="middle" transform="rotate(-90, 0, 184.4834335884252)" x="0" y="184.4834335884252" /></g></svg>