<svg xmlns="http://www.w3.org/2000/svg" xmlns:ev="http://www.w3.org/2001/xml-events" xmlns:xlink="http://www.w3.org/1999/xlink" baseProfile="full" height="100%" version="1.1" viewBox="0 0 1778.000000 583.450301" width="100%"><defs/><g id="0_C" transform="translate(104 44.20858397106309) scale(1 4.0)"><path d="M 100 28 C 100 -13 0 -13 0 50 C 0 113 100 113 100 72 L 75 72 C 75 90 30 90 30 50 C 30 10 75 10 75 28 L 100 28" fill="green"/></g><g id="1_A" transform="translate(208 62.5533522406306) scale(1 3.8165523173043248)"><path d="M 0 100 L 33 0 L 66 0 L 100 100 L 75 100 L 66 75 L 33 75 L 25 100 L 0 100" fill="black"/><path d="M 41 55 L 50 25 L 58 55 L 41 55" fill="white"/></g><g id="1_V" transform="translate(208 448.2085839710631) scale(1 0.006934362061206906)"><path d="M 0 0 L 20 0 L 50 80 L 80 0 L 100 0 L 60 100 L 40 100 L 0 0" fill="black"/></g><g id="1_S" transform="translate(208 448.9020201771838) scale(1 0.013349939300232504)"><path d="M92 26 A43 20 0 1 0 43 46 A42 23 0 1 1 9 68" fill="white" stroke="green" stroke-width="18"/></g><g id="1_-" transform="translate(208 450.237014107207) scale(1 0.013781698889533133)"><path d="M 12.5 40 H 87.5 V 60 H 12.5 V 40" fill="black"/></g><g id="2_S" transform="translate(312 63.95793015387295) scale(1 3.802506538171902)"><path d="M92 26 A43 20 0 1 0 43 46 A42 23 0 1 1 9 68" fill="white" stroke="green" stroke-width="18"/></g><g id="2_G" transform="translate(312 448.2085839710631) scale(1 0.0013028228818114653)"><path d="M 100 28 C 100 -13 0 -13 0 50 C 0 113 100 113 100 72 L 100 48 L 55 48 L 55 72 L 75 72 C 75 90 30 90 30 50 C 30 10 75 5 75 28 L 100 28" fill="green"/></g><g id="2_H" transform="translate(312 448.33886625924424) scale(1 0.0013028228818114653)"><path d="M 0 0 L 20 0 L 20 40 L 80 40 L 80 0 L 100 0 L 100 100 L 80 100 L 80 60 L 20 60 L 20 100 L 0 100 L 0 0" fill="blue"/></g><g id="2_L" transform="translate(312 448.4691485474254) scale(1 0.0022697777490157597)"><path d="M 0 0 L 0 100 L 100 100 L 100 80 L 20 80 L 20 0 L 0 0" fill="black"/></g><g id="2_F" transform="translate(312 448.69612632232696) scale(1 0.006392166879205673)"><path d="M 0 0 L 100 0 L 100 20 L 20 20 L 20 40 L 80 40 L 80 60 L 20 60 L 20 100 L 0 100 L 0 0" fill="black"/></g><g id="2_-" transform="translate(312 449.3353430102475) scale(1 0.007449581848626656)"><path d="M 12.5 40 H 87.5 V 60 H 12.5 V 40" fill="black"/></g><g id="2_R" transform="translate(312 450.08030119511017) scale(1 0.007940533338110728)"><path d="M 0 0 L 80 0 C 105 0 105 50 80 50 C 100 50 100 70 100 70 L 100 100 L 80 100 L 80 80 C 80 80 80 60 50 60 L 20 60 L 20 100 L 0 100 L 0 0" fill="blue"/><path d="M 20 15 L 70 15 C 80 15 80 35 70 35 L 20 35 L 20 15" fill="white"/></g><g id="2_E" transform="translate(312 450.8743545289213) scale(1 0.007940533338110728)"><path d="M 0 0 L 100 0 L 100 20 L 20 20 L 20 40 L 90 40 L 90 60 L 20 60 L 20 80 L 100 80 L 100 100 L 0 100 L 0 0" fill="red"/></g><g id="2_V" transform="translate(312 451.66840786273235) scale(1 0.01009738964155398)"><path d="M 0 0 L 20 0 L 50 80 L 80 0 L 100 0 L 60 100 L 40 100 L 0 0" fill="black"/></g><g id="2_A" transform="translate(312 452.6781468268877) scale(1 0.011540483551181605)"><path d="M 0 100 L 33 0 L 66 0 L 100 100 L 75 100 L 66 75 L 33 75 L 25 100 L 0 100" fill="black"/><path d="M 41 55 L 50 25 L 58 55 L 41 55" fill="white"/></g><g id="2_W" transform="translate(312 453.8321951820059) scale(1 0.013349939300232504)"><path d="M 0 0 L 20 0 L 30 70 L 50 30 L 70 70 L 80 0 L 100 0 L 90 100 L 70 100 L 50 65 L 30 100 L 10 100 L 0 0" fill="black"/></g><g id="2_T" transform="translate(312 455.1671891120292) scale(1 0.01583520458362909)"><path d="M 0 0 L 0 20 L 35 20 L 35 100 L 65 100 L 65 20 L 100 20 L 100 0 L 0 0" fill="green"/></g><g id="2_I" transform="translate(312 456.7507095703921) scale(1 0.01806824305710612)"><path d="M 40 0 L 60 0 L 60 100 L 40 100 L 40 0" fill="black"/></g><g id="3_R" transform="translate(416 442.8803667683811) scale(1 0.013282172026819628)"><path d="M 0 0 L 80 0 C 105 0 105 50 80 50 C 100 50 100 70 100 70 L 100 100 L 80 100 L 80 80 C 80 80 80 60 50 60 L 20 60 L 20 100 L 0 100 L 0 0" fill="blue"/><path d="M 20 15 L 70 15 C 80 15 80 35 70 35 L 20 35 L 20 15" fill="white"/></g><g id="3_G" transform="translate(416 425.96997147832246) scale(1 0.16910395290058636)"><path d="M 100 28 C 100 -13 0 -13 0 50 C 0 113 100 113 100 72 L 100 48 L 55 48 L 55 72 L 75 72 C 75 90 30 90 30 50 C 30 10 75 5 75 28 L 100 28" fill="green"/></g><g id="3_S" transform="translate(416 150.69728677645327) scale(1 2.752726847018693)"><path d="M92 26 A43 20 0 1 0 43 46 A42 23 0 1 1 9 68" fill="white" stroke="green" stroke-width="18"/></g><g id="3_Q" transform="translate(416 448.2085839710631) scale(1 0.0013028228818114653)"><circle cx="50" cy="50" fill="purple" r="50"/><circle cx="50" cy="50" fill="white" r="32"/><path d="M 85 100 L 55 70 L 70 55 L 100 85 L 85 100" fill="purple"/></g><g id="3_H" transform="translate(416 448.33886625924424) scale(1 0.0013028228818114653)"><path d="M 0 0 L 20 0 L 20 40 L 80 40 L 80 0 L 100 0 L 100 100 L 80 100 L 80 60 L 20 60 L 20 100 L 0 100 L 0 0" fill="blue"/></g><g id="3_W" transform="translate(416 448.4691485474254) scale(1 0.0013028228818114653)"><path d="M 0 0 L 20 0 L 30 70 L 50 30 L 70 70 L 80 0 L 100 0 L 90 100 L 70 100 L 50 65 L 30 100 L 10 100 L 0 0" fill="black"/></g><g id="3_I" transform="translate(416 448.59943083560654) scale(1 0.0022697777490157597)"><path d="M 40 0 L 60 0 L 60 100 L 40 100 L 40 0" fill="black"/></g><g id="3_D" transform="translate(416 448.8264086105081) scale(1 0.004564460960831255)"><path d="M 0 0 L 60 0 C 110 0 110 100 60 100 L 0 100 L 0 0" fill="red"/><path d="M 20 15 L 40 15 C 85 15 85 85 40 85 L 20 85 L 20 15" fill="white"/></g><g id="3_M" transform="translate(416 449.28285470659125) scale(1 0.005819607638788212)"><path d="M 0 0 L 20 0 L 50 35 L 80 0 L 100 0 L 100 100 L 80 100 L 80 30 L 50 65 L 20 30 L 20 100 L 0 100 L 0 0" fill="black"/></g><g id="3_T" transform="translate(416 449.86481547047003) scale(1 0.01009738964155398)"><path d="M 0 0 L 0 20 L 35 20 L 35 100 L 65 100 L 65 20 L 100 20 L 100 0 L 0 0" fill="green"/></g><g id="3_E" transform="translate(416 450.87455443462545) scale(1 0.011540483551181605)"><path d="M 0 0 L 100 0 L 100 20 L 20 20 L 20 40 L 90 40 L 90 60 L 20 60 L 20 80 L 100 80 L 100 100 L 0 100 L 0 0" fill="red"/></g><g id="3_L" transform="translate(416 452.0286027897436) scale(1 0.012186518515542576)"><path d="M 0 0 L 0 100 L 100 100 L 100 80 L 20 80 L 20 0 L 0 0" fill="black"/></g><g id="3_V" transform="translate(416 453.24725464129784) scale(1 0.012186518515542576)"><path d="M 0 0 L 20 0 L 50 80 L 80 0 L 100 0 L 60 100 L 40 100 L 0 0" fill="black"/></g><g id="3_K" transform="translate(416 454.4659064928521) scale(1 0.012788442137488646)"><path d="M 0 0 L 20 0 L 20 40 L 75 0 L 100 0 L 50 50 L 100 100 L 75 100 L 30 65 L 20 75 L 20 100 L 0 100 L 0 0" fill="blue"/></g><g id="3_A" transform="translate(416 455.744750706601) scale(1 0.013174533685152387)"><path d="M 0 100 L 33 0 L 66 0 L 100 100 L 75 100 L 66 75 L 33 75 L 25 100 L 0 100" fill="black"/><path d="M 41 55 L 50 25 L 58 55 L 41 55" fill="white"/></g><g id="3_N" transform="translate(416 457.06220407511626) scale(1 0.016193740172479976)"><path d="M 0 100 L 0 0 L 20 0 L 80 75 L 80 0 L 100 0 L 100 100 L 80 100 L 20 25 L 20 100 L 0 100" fill="purple"/></g><g id="3_-" transform="translate(416 458.68157809236425) scale(1 0.018164604347558982)"><path d="M 12.5 40 H 87.5 V 60 H 12.5 V 40" fill="black"/></g><g id="4_G" transform="translate(520 441.8684103763634) scale(1 0.02340173594699734)"><path d="M 100 28 C 100 -13 0 -13 0 50 C 0 113 100 113 100 72 L 100 48 L 55 48 L 55 72 L 75 72 C 75 90 30 90 30 50 C 30 10 75 5 75 28 L 100 28" fill="green"/></g><g id="4_A" transform="translate(520 437.43148100517607) scale(1 0.04436929371187317)"><path d="M 0 100 L 33 0 L 66 0 L 100 100 L 75 100 L 66 75 L 33 75 L 25 100 L 0 100" fill="black"/><path d="M 41 55 L 50 25 L 58 55 L 41 55" fill="white"/></g><g id="4_L" transform="translate(520 429.61990222598564) scale(1 0.07811578779190433)"><path d="M 0 0 L 0 100 L 100 100 L 100 80 L 20 80 L 20 0 L 0 0" fill="black"/></g><g id="4_-" transform="translate(520 373.76439430231727) scale(1 0.558555079236683)"><path d="M 12.5 40 H 87.5 V 60 H 12.5 V 40" fill="black"/></g><g id="4_P" transform="translate(520 241.74810080724552) scale(1 1.3201629349507182)"><path d="M 0 0 L 80 0 C 105 0 105 50 80 50 L 20 50 L 20 100 L 0 100 L 0 0" fill="black"/><path d="M 20 15 L 70 15 C 80 15 80 35 70 35 L 20 35 L 20 15" fill="white"/></g><g id="4_N" transform="translate(520 448.2085839710631) scale(1 0.0022697777490157597)"><path d="M 0 100 L 0 0 L 20 0 L 80 75 L 80 0 L 100 0 L 100 100 L 80 100 L 20 25 L 20 100 L 0 100" fill="purple"/></g><g id="4_K" transform="translate(520 448.43556174596466) scale(1 0.004564460960831255)"><path d="M 0 0 L 20 0 L 20 40 L 75 0 L 100 0 L 50 50 L 100 100 L 75 100 L 30 65 L 20 75 L 20 100 L 0 100 L 0 0" fill="blue"/></g><g id="4_M" transform="translate(520 448.8920078420478) scale(1 0.0052123186220151855)"><path d="M 0 0 L 20 0 L 50 35 L 80 0 L 100 0 L 100 100 L 80 100 L 80 30 L 50 65 L 20 30 L 20 100 L 0 100 L 0 0" fill="black"/></g><g id="4_W" transform="translate(520 449.4132397042493) scale(1 0.0052123186220151855)"><path d="M 0 0 L 20 0 L 30 70 L 50 30 L 70 70 L 80 0 L 100 0 L 90 100 L 70 100 L 50 65 L 30 100 L 10 100 L 0 0" fill="black"/></g><g id="4_I" transform="translate(520 449.93447156645084) scale(1 0.006392166879205673)"><path d="M 40 0 L 60 0 L 60 100 L 40 100 L 40 0" fill="black"/></g><g id="4_Q" transform="translate(520 450.5736882543714) scale(1 0.008858111745062862)"><circle cx="50" cy="50" fill="purple" r="50"/><circle cx="50" cy="50" fill="white" r="32"/><path d="M 85 100 L 55 70 L 70 55 L 100 85 L 85 100" fill="purple"/></g><g id="4_H" transform="translate(520 451.4594994288777) scale(1 0.009288139175326227)"><path d="M 0 0 L 20 0 L 20 40 L 80 40 L 80 0 L 100 0 L 100 100 L 80 100 L 80 60 L 20 60 L 20 100 L 0 100 L 0 0" fill="blue"/></g><g id="4_T" transform="translate(520 452.3883133464103) scale(1 0.009700846319913529)"><path d="M 0 0 L 0 20 L 35 20 L 35 100 L 65 100 L 65 20 L 100 20 L 100 0 L 0 0" fill="green"/></g><g id="4_F" transform="translate(520 453.3583979784017) scale(1 0.01009738964155398)"><path d="M 0 0 L 100 0 L 100 20 L 20 20 L 20 40 L 80 40 L 80 60 L 20 60 L 20 100 L 0 100 L 0 0" fill="black"/></g><g id="4_E" transform="translate(520 454.36813694255704) scale(1 0.011199576443130849)"><path d="M 0 0 L 100 0 L 100 20 L 20 20 L 20 40 L 90 40 L 90 60 L 20 60 L 20 80 L 100 80 L 100 100 L 0 100 L 0 0" fill="red"/></g><g id="4_V" transform="translate(520 455.48809458687015) scale(1 0.016685315150754023)"><path d="M 0 0 L 20 0 L 50 80 L 80 0 L 100 0 L 60 100 L 40 100 L 0 0" fill="black"/></g><g id="4_Y" transform="translate(520 457.15662610194556) scale(1 0.018403636231013997)"><path d="M 0 0 L 20 0 L 50 45 L 80 0 L 100 0 L 60 60 L 60 100 L 40 100 L 40 60 L 0 0" fill="green"/></g><g id="4_D" transform="translate(520 458.99698972504694) scale(1 0.01878047177843042)"><path d="M 0 0 L 60 0 C 110 0 110 100 60 100 L 0 100 L 0 0" fill="red"/><path d="M 20 15 L 40 15 C 85 15 85 85 40 85 L 20 85 L 20 15" fill="white"/></g><g id="4_S" transform="translate(520 460.87503690289) scale(1 0.01886388782575276)"><path d="M92 26 A43 20 0 1 0 43 46 A42 23 0 1 1 9 68" fill="white" stroke="green" stroke-width="18"/></g><g id="4_R" transform="translate(520 462.76142568546527) scale(1 0.019249795090099508)"><path d="M 0 0 L 80 0 C 105 0 105 50 80 50 C 100 50 100 70 100 70 L 100 100 L 80 100 L 80 80 C 80 80 80 60 50 60 L 20 60 L 20 100 L 0 100 L 0 0" fill="blue"/><path d="M 20 15 L 70 15 C 80 15 80 35 70 35 L 20 35 L 20 15" fill="white"/></g><g id="5_D" transform="translate(624 443.6082733817805) scale(1 0.006003105892825525)"><path d="M 0 0 L 60 0 C 110 0 110 100 60 100 L 0 100 L 0 0" fill="red"/><path d="M 20 15 L 40 15 C 85 15 85 85 40 85 L 20 85 L 20 15" fill="white"/></g><g id="5_S" transform="translate(624 440.40805791749875) scale(1 0.03200215464281787)"><path d="M92 26 A43 20 0 1 0 43 46 A42 23 0 1 1 9 68" fill="white" stroke="green" stroke-width="18"/></g><g id="5_E" transform="translate(624 435.9345423680021) scale(1 0.04473515549496675)"><path d="M 0 0 L 100 0 L 100 20 L 20 20 L 20 40 L 90 40 L 90 60 L 20 60 L 20 80 L 100 80 L 100 100 L 0 100 L 0 0" fill="red"/></g><g id="5_G" transform="translate(624 419.02414707794344) scale(1 0.16910395290058636)"><path d="M 100 28 C 100 -13 0 -13 0 50 C 0 113 100 113 100 72 L 100 48 L 55 48 L 55 72 L 75 72 C 75 90 30 90 30 50 C 30 10 75 5 75 28 L 100 28" fill="green"/></g><g id="5_R" transform="translate(624 394.2449298679326) scale(1 0.2477921721001083)"><path d="M 0 0 L 80 0 C 105 0 105 50 80 50 C 100 50 100 70 100 70 L 100 100 L 80 100 L 80 80 C 80 80 80 60 50 60 L 20 60 L 20 100 L 0 100 L 0 0" fill="blue"/><path d="M 20 15 L 70 15 C 80 15 80 35 70 35 L 20 35 L 20 15" fill="white"/></g><g id="5_-" transform="translate(624 352.187878503793) scale(1 0.4205705136413964)"><path d="M 12.5 40 H 87.5 V 60 H 12.5 V 40" fill="black"/></g><g id="5_Q" transform="translate(624 307.0732242021235) scale(1 0.4511465430166942)"><circle cx="50" cy="50" fill="purple" r="50"/><circle cx="50" cy="50" fill="white" r="32"/><path d="M 85 100 L 55 70 L 70 55 L 100 85 L 85 100" fill="purple"/></g><g id="5_Y" transform="translate(624 448.2085839710631) scale(1 0.00011092623508704)"><path d="M 0 0 L 20 0 L 50 45 L 80 0 L 100 0 L 60 60 L 60 100 L 40 100 L 40 60 L 0 0" fill="green"/></g><g id="5_M" transform="translate(624 448.2196765945718) scale(1 0.003109961332918349)"><path d="M 0 0 L 20 0 L 50 35 L 80 0 L 100 0 L 100 100 L 80 100 L 80 30 L 50 65 L 20 30 L 20 100 L 0 100 L 0 0" fill="black"/></g><g id="5_I" transform="translate(624 448.53067272786365) scale(1 0.007449581848626656)"><path d="M 40 0 L 60 0 L 60 100 L 40 100 L 40 0" fill="black"/></g><g id="5_F" transform="translate(624 449.2756309127263) scale(1 0.008858111745062862)"><path d="M 0 0 L 100 0 L 100 20 L 20 20 L 20 40 L 80 40 L 80 60 L 20 60 L 20 100 L 0 100 L 0 0" fill="black"/></g><g id="5_P" transform="translate(624 450.16144208723256) scale(1 0.010478780741988547)"><path d="M 0 0 L 80 0 C 105 0 105 50 80 50 L 20 50 L 20 100 L 0 100 L 0 0" fill="black"/><path d="M 20 15 L 70 15 C 80 15 80 35 70 35 L 20 35 L 20 15" fill="white"/></g><g id="5_A" transform="translate(624 451.20932016143144) scale(1 0.010845911990949277)"><path d="M 0 100 L 33 0 L 66 0 L 100 100 L 75 100 L 66 75 L 33 75 L 25 100 L 0 100" fill="black"/><path d="M 41 55 L 50 25 L 58 55 L 41 55" fill="white"/></g><g id="5_N" transform="translate(624 452.29391136052635) scale(1 0.013874126146152061)"><path d="M 0 100 L 0 0 L 20 0 L 80 75 L 80 0 L 100 0 L 100 100 L 80 100 L 20 25 L 20 100 L 0 100" fill="purple"/></g><g id="5_H" transform="translate(624 453.6813239751416) scale(1 0.013874126146152061)"><path d="M 0 0 L 20 0 L 20 40 L 80 40 L 80 0 L 100 0 L 100 100 L 80 100 L 80 60 L 20 60 L 20 100 L 0 100 L 0 0" fill="blue"/></g><g id="5_T" transform="translate(624 455.0687365897568) scale(1 0.013874126146152061)"><path d="M 0 0 L 0 20 L 35 20 L 35 100 L 65 100 L 65 20 L 100 20 L 100 0 L 0 0" fill="green"/></g><g id="5_L" transform="translate(624 456.45614920437197) scale(1 0.016406502185737838)"><path d="M 0 0 L 0 100 L 100 100 L 100 80 L 20 80 L 20 0 L 0 0" fill="black"/></g><g id="5_K" transform="translate(624 458.09679942294576) scale(1 0.016685315150754023)"><path d="M 0 0 L 20 0 L 20 40 L 75 0 L 100 0 L 50 50 L 100 100 L 75 100 L 30 65 L 20 75 L 20 100 L 0 100 L 0 0" fill="blue"/></g><g id="5_W" transform="translate(624 459.7653309380212) scale(1 0.01739087030019469)"><path d="M 0 0 L 20 0 L 30 70 L 50 30 L 70 70 L 80 0 L 100 0 L 90 100 L 70 100 L 50 65 L 30 100 L 10 100 L 0 0" fill="black"/></g><g id="5_V" transform="translate(624 461.5044179680406) scale(1 0.017967310220678566)"><path d="M 0 0 L 20 0 L 50 80 L 80 0 L 100 0 L 60 100 L 40 100 L 0 0" fill="black"/></g><g id="6_S" transform="translate(728 438.4523686545493) scale(1 0.057562153165137894)"><path d="M92 26 A43 20 0 1 0 43 46 A42 23 0 1 1 9 68" fill="white" stroke="green" stroke-width="18"/></g><g id="6_L" transform="translate(728 428.84112923444155) scale(1 0.09611239420107699)"><path d="M 0 0 L 0 100 L 100 100 L 100 80 L 20 80 L 20 0 L 0 0" fill="black"/></g><g id="6_G" transform="translate(728 414.06946033802444) scale(1 0.14771668896417142)"><path d="M 100 28 C 100 -13 0 -13 0 50 C 0 113 100 113 100 72 L 100 48 L 55 48 L 55 72 L 75 72 C 75 90 30 90 30 50 C 30 10 75 5 75 28 L 100 28" fill="green"/></g><g id="6_-" transform="translate(728 365.063431527382) scale(1 0.4900602881064242)"><path d="M 12.5 40 H 87.5 V 60 H 12.5 V 40" fill="black"/></g><g id="6_T" transform="translate(728 293.92909858369717) scale(1 0.7113433294368487)"><path d="M 0 0 L 0 20 L 35 20 L 35 100 L 65 100 L 65 20 L 100 20 L 100 0 L 0 0" fill="green"/></g><g id="6_R" transform="translate(728 448.2085839710631) scale(1 0.0013056161495785673)"><path d="M 0 0 L 80 0 C 105 0 105 50 80 50 C 100 50 100 70 100 70 L 100 100 L 80 100 L 80 80 C 80 80 80 60 50 60 L 20 60 L 20 100 L 0 100 L 0 0" fill="blue"/><path d="M 20 15 L 70 15 C 80 15 80 35 70 35 L 20 35 L 20 15" fill="white"/></g><g id="6_H" transform="translate(728 448.33914558602095) scale(1 0.003109961332918349)"><path d="M 0 0 L 20 0 L 20 40 L 80 40 L 80 0 L 100 0 L 100 100 L 80 100 L 80 60 L 20 60 L 20 100 L 0 100 L 0 0" fill="blue"/></g><g id="6_M" transform="translate(728 448.6501417193128) scale(1 0.004564460960831255)"><path d="M 0 0 L 20 0 L 50 35 L 80 0 L 100 0 L 100 100 L 80 100 L 80 30 L 50 65 L 20 30 L 20 100 L 0 100 L 0 0" fill="black"/></g><g id="6_K" transform="translate(728 449.1065878153959) scale(1 0.0052123186220151855)"><path d="M 0 0 L 20 0 L 20 40 L 75 0 L 100 0 L 50 50 L 100 100 L 75 100 L 30 65 L 20 75 L 20 100 L 0 100 L 0 0" fill="blue"/></g><g id="6_Y" transform="translate(728 449.6278196775974) scale(1 0.006934362061206906)"><path d="M 0 0 L 20 0 L 50 45 L 80 0 L 100 0 L 60 60 L 60 100 L 40 100 L 40 60 L 0 0" fill="green"/></g><g id="6_F" transform="translate(728 450.3212558837181) scale(1 0.01009738964155398)"><path d="M 0 0 L 100 0 L 100 20 L 20 20 L 20 40 L 80 40 L 80 60 L 20 60 L 20 100 L 0 100 L 0 0" fill="black"/></g><g id="6_Q" transform="translate(728 451.3309948478735) scale(1 0.011545733954890225)"><circle cx="50" cy="50" fill="purple" r="50"/><circle cx="50" cy="50" fill="white" r="32"/><path d="M 85 100 L 55 70 L 70 55 L 100 85 L 85 100" fill="purple"/></g><g id="6_W" transform="translate(728 452.48556824336254) scale(1 0.011869271728752306)"><path d="M 0 0 L 20 0 L 30 70 L 50 30 L 70 70 L 80 0 L 100 0 L 90 100 L 70 100 L 50 65 L 30 100 L 10 100 L 0 0" fill="black"/></g><g id="6_N" transform="translate(728 453.6724954162378) scale(1 0.012788442137488646)"><path d="M 0 100 L 0 0 L 20 0 L 80 75 L 80 0 L 100 0 L 100 100 L 80 100 L 20 25 L 20 100 L 0 100" fill="purple"/></g><g id="6_A" transform="translate(728 454.95133962998665) scale(1 0.014916170579818117)"><path d="M 0 100 L 33 0 L 66 0 L 100 100 L 75 100 L 66 75 L 33 75 L 25 100 L 0 100" fill="black"/><path d="M 41 55 L 50 25 L 58 55 L 41 55" fill="white"/></g><g id="6_E" transform="translate(728 456.44295668796843) scale(1 0.01524780523565519)"><path d="M 0 0 L 100 0 L 100 20 L 20 20 L 20 40 L 90 40 L 90 60 L 20 60 L 20 80 L 100 80 L 100 100 L 0 100 L 0 0" fill="red"/></g><g id="6_D" transform="translate(728 457.967737211534) scale(1 0.015450464056358549)"><path d="M 0 0 L 60 0 C 110 0 110 100 60 100 L 0 100 L 0 0" fill="red"/><path d="M 20 15 L 40 15 C 85 15 85 85 40 85 L 20 85 L 20 15" fill="white"/></g><g id="6_I" transform="translate(728 459.5127836171698) scale(1 0.015817500378476113)"><path d="M 40 0 L 60 0 L 60 100 L 40 100 L 40 0" fill="black"/></g><g id="6_V" transform="translate(728 461.0945336550174) scale(1 0.01796084318779354)"><path d="M 0 0 L 20 0 L 50 80 L 80 0 L 100 0 L 60 100 L 40 100 L 0 0" fill="black"/></g><g id="6_P" transform="translate(728 462.8906179737968) scale(1 0.018265040777791588)"><path d="M 0 0 L 80 0 C 105 0 105 50 80 50 L 20 50 L 20 100 L 0 100 L 0 0" fill="black"/><path d="M 20 15 L 70 15 C 80 15 80 35 70 35 L 20 35 L 20 15" fill="white"/></g><g id="7_-" transform="translate(832 442.0592685350986) scale(1 0.021493154359644797)"><path d="M 12.5 40 H 87.5 V 60 H 12.5 V 40" fill="black"/></g><g id="7_A" transform="translate(832 437.8042567992859) scale(1 0.04255011735812736)"><path d="M 0 100 L 33 0 L 66 0 L 100 100 L 75 100 L 66 75 L 33 75 L 25 100 L 0 100" fill="black"/><path d="M 41 55 L 50 25 L 58 55 L 41 55" fill="white"/></g><g id="7_G" transform="translate(832 132.58868034536715) scale(1 3.0521557645391875)"><path d="M 100 28 C 100 -13 0 -13 0 50 C 0 113 100 113 100 72 L 100 48 L 55 48 L 55 72 L 75 72 C 75 90 30 90 30 50 C 30 10 75 5 75 28 L 100 28" fill="green"/></g><g id="7_H" transform="translate(832 448.2085839710631) scale(1 0.0013028228818114653)"><path d="M 0 0 L 20 0 L 20 40 L 80 40 L 80 0 L 100 0 L 100 100 L 80 100 L 80 60 L 20 60 L 20 100 L 0 100 L 0 0" fill="blue"/></g><g id="7_I" transform="translate(832 448.33886625924424) scale(1 0.0013028228818114653)"><path d="M 40 0 L 60 0 L 60 100 L 40 100 L 40 0" fill="black"/></g><g id="7_L" transform="translate(832 448.4691485474254) scale(1 0.0013028228818114653)"><path d="M 0 0 L 0 100 L 100 100 L 100 80 L 20 80 L 20 0 L 0 0" fill="black"/></g><g id="7_T" transform="translate(832 448.59943083560654) scale(1 0.0022697777490157597)"><path d="M 0 0 L 0 20 L 35 20 L 35 100 L 65 100 L 65 20 L 100 20 L 100 0 L 0 0" fill="green"/></g><g id="7_W" transform="translate(832 448.8264086105081) scale(1 0.003109961332918349)"><path d="M 0 0 L 20 0 L 30 70 L 50 30 L 70 70 L 80 0 L 100 0 L 90 100 L 70 100 L 50 65 L 30 100 L 10 100 L 0 0" fill="black"/></g><g id="7_Y" transform="translate(832 449.13740474379995) scale(1 0.0038678194688171784)"><path d="M 0 0 L 20 0 L 50 45 L 80 0 L 100 0 L 60 60 L 60 100 L 40 100 L 40 60 L 0 0" fill="green"/></g><g id="7_V" transform="translate(832 449.5241866906817) scale(1 0.0038678194688171784)"><path d="M 0 0 L 20 0 L 50 80 L 80 0 L 100 0 L 60 100 L 40 100 L 0 0" fill="black"/></g><g id="7_Q" transform="translate(832 449.91096863756337) scale(1 0.004564460960831255)"><circle cx="50" cy="50" fill="purple" r="50"/><circle cx="50" cy="50" fill="white" r="32"/><path d="M 85 100 L 55 70 L 70 55 L 100 85 L 85 100" fill="purple"/></g><g id="7_K" transform="translate(832 450.3674147336465) scale(1 0.0052123186220151855)"><path d="M 0 0 L 20 0 L 20 40 L 75 0 L 100 0 L 50 50 L 100 100 L 75 100 L 30 65 L 20 75 L 20 100 L 0 100 L 0 0" fill="blue"/></g><g id="7_R" transform="translate(832 450.888646595848) scale(1 0.007449581848626656)"><path d="M 0 0 L 80 0 C 105 0 105 50 80 50 C 100 50 100 70 100 70 L 100 100 L 80 100 L 80 80 C 80 80 80 60 50 60 L 20 60 L 20 100 L 0 100 L 0 0" fill="blue"/><path d="M 20 15 L 70 15 C 80 15 80 35 70 35 L 20 35 L 20 15" fill="white"/></g><g id="7_P" transform="translate(832 451.6336047807107) scale(1 0.008858111745062862)"><path d="M 0 0 L 80 0 C 105 0 105 50 80 50 L 20 50 L 20 100 L 0 100 L 0 0" fill="black"/><path d="M 20 15 L 70 15 C 80 15 80 35 70 35 L 20 35 L 20 15" fill="white"/></g><g id="7_S" transform="translate(832 452.51941595521697) scale(1 0.014362490492091384)"><path d="M92 26 A43 20 0 1 0 43 46 A42 23 0 1 1 9 68" fill="white" stroke="green" stroke-width="18"/></g><g id="7_N" transform="translate(832 453.9556650044261) scale(1 0.014820891049393225)"><path d="M 0 100 L 0 0 L 20 0 L 80 75 L 80 0 L 100 0 L 100 100 L 80 100 L 20 25 L 20 100 L 0 100" fill="purple"/></g><g id="7_E" transform="translate(832 455.4377541093654) scale(1 0.01652741587788233)"><path d="M 0 0 L 100 0 L 100 20 L 20 20 L 20 40 L 90 40 L 90 60 L 20 60 L 20 80 L 100 80 L 100 100 L 0 100 L 0 0" fill="red"/></g><g id="7_D" transform="translate(832 457.09049569715364) scale(1 0.01712492927199988)"><path d="M 0 0 L 60 0 C 110 0 110 100 60 100 L 0 100 L 0 0" fill="red"/><path d="M 20 15 L 40 15 C 85 15 85 85 40 85 L 20 85 L 20 15" fill="white"/></g><g id="8_I" transform="translate(936 444.1711001502605) scale(1 0.00037483820802610926)"><path d="M 40 0 L 60 0 L 60 100 L 40 100 L 40 0" fill="black"/></g><g id="8_L" transform="translate(936 434.2511897212911) scale(1 0.09919910428969393)"><path d="M 0 0 L 0 100 L 100 100 L 100 80 L 20 80 L 20 0 L 0 0" fill="black"/></g><g id="8_T" transform="translate(936 419.9663701759915) scale(1 0.14284819545299596)"><path d="M 0 0 L 0 20 L 35 20 L 35 100 L 65 100 L 65 20 L 100 20 L 100 0 L 0 0" fill="green"/></g><g id="8_V" transform="translate(936 394.8530392112844) scale(1 0.25113330964707087)"><path d="M 0 0 L 20 0 L 50 80 L 80 0 L 100 0 L 60 100 L 40 100 L 0 0" fill="black"/></g><g id="8_A" transform="translate(936 369.460442746138) scale(1 0.2539259646514639)"><path d="M 0 100 L 33 0 L 66 0 L 100 100 L 75 100 L 66 75 L 33 75 L 25 100 L 0 100" fill="black"/><path d="M 41 55 L 50 25 L 58 55 L 41 55" fill="white"/></g><g id="8_-" transform="translate(936 304.9564624143396) scale(1 0.6450398033179837)"><path d="M 12.5 40 H 87.5 V 60 H 12.5 V 40" fill="black"/></g><g id="8_K" transform="translate(936 448.2085839710631) scale(1 0.003109961332918349)"><path d="M 0 0 L 20 0 L 20 40 L 75 0 L 100 0 L 50 50 L 100 100 L 75 100 L 30 65 L 20 75 L 20 100 L 0 100 L 0 0" fill="blue"/></g><g id="8_W" transform="translate(936 448.51958010435493) scale(1 0.008858111745062862)"><path d="M 0 0 L 20 0 L 30 70 L 50 30 L 70 70 L 80 0 L 100 0 L 90 100 L 70 100 L 50 65 L 30 100 L 10 100 L 0 0" fill="black"/></g><g id="8_R" transform="translate(936 449.4053912788612) scale(1 0.012492748890629615)"><path d="M 0 0 L 80 0 C 105 0 105 50 80 50 C 100 50 100 70 100 70 L 100 100 L 80 100 L 80 80 C 80 80 80 60 50 60 L 20 60 L 20 100 L 0 100 L 0 0" fill="blue"/><path d="M 20 15 L 70 15 C 80 15 80 35 70 35 L 20 35 L 20 15" fill="white"/></g><g id="8_Q" transform="translate(936 450.6546661679242) scale(1 0.013616520370976298)"><circle cx="50" cy="50" fill="purple" r="50"/><circle cx="50" cy="50" fill="white" r="32"/><path d="M 85 100 L 55 70 L 70 55 L 100 85 L 85 100" fill="purple"/></g><g id="8_F" transform="translate(936 452.0163182050218) scale(1 0.015038019576655666)"><path d="M 0 0 L 100 0 L 100 20 L 20 20 L 20 40 L 80 40 L 80 60 L 20 60 L 20 100 L 0 100 L 0 0" fill="black"/></g><g id="8_H" transform="translate(936 453.52012016268736) scale(1 0.01524780523565519)"><path d="M 0 0 L 20 0 L 20 40 L 80 40 L 80 0 L 100 0 L 100 100 L 80 100 L 80 60 L 20 60 L 20 100 L 0 100 L 0 0" fill="blue"/></g><g id="8_M" transform="translate(936 455.0449006862529) scale(1 0.016843447820489073)"><path d="M 0 0 L 20 0 L 50 35 L 80 0 L 100 0 L 100 100 L 80 100 L 80 30 L 50 65 L 20 30 L 20 100 L 0 100 L 0 0" fill="black"/></g><g id="8_E" transform="translate(936 456.72924546830177) scale(1 0.01724887211775503)"><path d="M 0 0 L 100 0 L 100 20 L 20 20 L 20 40 L 90 40 L 90 60 L 20 60 L 20 80 L 100 80 L 100 100 L 0 100 L 0 0" fill="red"/></g><g id="8_P" transform="translate(936 458.4541326800773) scale(1 0.01762171514394841)"><path d="M 0 0 L 80 0 C 105 0 105 50 80 50 L 20 50 L 20 100 L 0 100 L 0 0" fill="black"/><path d="M 20 15 L 70 15 C 80 15 80 35 70 35 L 20 35 L 20 15" fill="white"/></g><g id="8_G" transform="translate(936 460.2163041944721) scale(1 0.018040216716739284)"><path d="M 100 28 C 100 -13 0 -13 0 50 C 0 113 100 113 100 72 L 100 48 L 55 48 L 55 72 L 75 72 C 75 90 30 90 30 50 C 30 10 75 5 75 28 L 100 28" fill="green"/></g><g id="8_N" transform="translate(936 462.0203258661461) scale(1 0.01825647876006684)"><path d="M 0 100 L 0 0 L 20 0 L 80 75 L 80 0 L 100 0 L 100 100 L 80 100 L 20 25 L 20 100 L 0 100" fill="purple"/></g><g id="8_S" transform="translate(936 463.84597374215275) scale(1 0.01871787406142151)"><path d="M92 26 A43 20 0 1 0 43 46 A42 23 0 1 1 9 68" fill="white" stroke="green" stroke-width="18"/></g><g id="8_D" transform="translate(936 465.7177611482949) scale(1 0.019284243156870662)"><path d="M 0 0 L 60 0 C 110 0 110 100 60 100 L 0 100 L 0 0" fill="red"/><path d="M 20 15 L 40 15 C 85 15 85 85 40 85 L 20 85 L 20 15" fill="white"/></g><g id="8_Y" transform="translate(936 467.64618546398196) scale(1 0.01928986367499563)"><path d="M 0 0 L 20 0 L 50 45 L 80 0 L 100 0 L 60 60 L 60 100 L 40 100 L 40 60 L 0 0" fill="green"/></g><g id="9_P" transform="translate(1040 442.99651864878336) scale(1 0.01212065322279715)"><path d="M 0 0 L 80 0 C 105 0 105 50 80 50 L 20 50 L 20 100 L 0 100 L 0 0" fill="black"/><path d="M 20 15 L 70 15 C 80 15 80 35 70 35 L 20 35 L 20 15" fill="white"/></g><g id="9_-" transform="translate(1040 439.5213404361933) scale(1 0.0347517821259006)"><path d="M 12.5 40 H 87.5 V 60 H 12.5 V 40" fill="black"/></g><g id="9_T" transform="translate(1040 430.2598869070561) scale(1 0.09261453529137205)"><path d="M 0 0 L 0 20 L 35 20 L 35 100 L 65 100 L 65 20 L 100 20 L 100 0 L 0 0" fill="green"/></g><g id="9_G" transform="translate(1040 419.6254902893198) scale(1 0.10634396617736278)"><path d="M 100 28 C 100 -13 0 -13 0 50 C 0 113 100 113 100 72 L 100 48 L 55 48 L 55 72 L 75 72 C 75 90 30 90 30 50 C 30 10 75 5 75 28 L 100 28" fill="green"/></g><g id="9_V" transform="translate(1040 402.46178481725144) scale(1 0.1716370547206837)"><path d="M 0 0 L 20 0 L 50 80 L 80 0 L 100 0 L 60 100 L 40 100 L 0 0" fill="black"/></g><g id="9_S" transform="translate(1040 374.35043381738484) scale(1 0.2811135099986663)"><path d="M92 26 A43 20 0 1 0 43 46 A42 23 0 1 1 9 68" fill="white" stroke="green" stroke-width="18"/></g><g id="9_A" transform="translate(1040 316.80177229845583) scale(1 0.5754866151892903)"><path d="M 0 100 L 33 0 L 66 0 L 100 100 L 75 100 L 66 75 L 33 75 L 25 100 L 0 100" fill="black"/><path d="M 41 55 L 50 25 L 58 55 L 41 55" fill="white"/></g><g id="9_E" transform="translate(1040 448.2085839710631) scale(1 0.000831147290914936)"><path d="M 0 0 L 100 0 L 100 20 L 20 20 L 20 40 L 90 40 L 90 60 L 20 60 L 20 80 L 100 80 L 100 100 L 0 100 L 0 0" fill="red"/></g><g id="9_M" transform="translate(1040 448.2916987001546) scale(1 0.0013028228818114653)"><path d="M 0 0 L 20 0 L 50 35 L 80 0 L 100 0 L 100 100 L 80 100 L 80 30 L 50 65 L 20 30 L 20 100 L 0 100 L 0 0" fill="black"/></g><g id="9_Y" transform="translate(1040 448.42198098833575) scale(1 0.0013028228818114653)"><path d="M 0 0 L 20 0 L 50 45 L 80 0 L 100 0 L 60 60 L 60 100 L 40 100 L 40 60 L 0 0" fill="green"/></g><g id="9_I" transform="translate(1040 448.5522632765169) scale(1 0.0022697777490157597)"><path d="M 40 0 L 60 0 L 60 100 L 40 100 L 40 0" fill="black"/></g><g id="9_K" transform="translate(1040 448.77924105141847) scale(1 0.0022697777490157597)"><path d="M 0 0 L 20 0 L 20 40 L 75 0 L 100 0 L 50 50 L 100 100 L 75 100 L 30 65 L 20 75 L 20 100 L 0 100 L 0 0" fill="blue"/></g><g id="9_R" transform="translate(1040 449.00621882632004) scale(1 0.007449581848626656)"><path d="M 0 0 L 80 0 C 105 0 105 50 80 50 C 100 50 100 70 100 70 L 100 100 L 80 100 L 80 80 C 80 80 80 60 50 60 L 20 60 L 20 100 L 0 100 L 0 0" fill="blue"/><path d="M 20 15 L 70 15 C 80 15 80 35 70 35 L 20 35 L 20 15" fill="white"/></g><g id="9_H" transform="translate(1040 449.7511770111827) scale(1 0.007940533338110728)"><path d="M 0 0 L 20 0 L 20 40 L 80 40 L 80 0 L 100 0 L 100 100 L 80 100 L 80 60 L 20 60 L 20 100 L 0 100 L 0 0" fill="blue"/></g><g id="9_F" transform="translate(1040 450.5452303449938) scale(1 0.008409429156387347)"><path d="M 0 0 L 100 0 L 100 20 L 20 20 L 20 40 L 80 40 L 80 60 L 20 60 L 20 100 L 0 100 L 0 0" fill="black"/></g><g id="9_W" transform="translate(1040 451.3861732606325) scale(1 0.008858111745062862)"><path d="M 0 0 L 20 0 L 30 70 L 50 30 L 70 70 L 80 0 L 100 0 L 90 100 L 70 100 L 50 65 L 30 100 L 10 100 L 0 0" fill="black"/></g><g id="9_D" transform="translate(1040 452.2719844351388) scale(1 0.011715544903731816)"><path d="M 0 0 L 60 0 C 110 0 110 100 60 100 L 0 100 L 0 0" fill="red"/><path d="M 20 15 L 40 15 C 85 15 85 85 40 85 L 20 85 L 20 15" fill="white"/></g><g id="9_N" transform="translate(1040 453.443538925512) scale(1 0.014503481949260379)"><path d="M 0 100 L 0 0 L 20 0 L 80 75 L 80 0 L 100 0 L 100 100 L 80 100 L 20 25 L 20 100 L 0 100" fill="purple"/></g><g id="9_L" transform="translate(1040 454.893887120438) scale(1 0.016737126651216256)"><path d="M 0 0 L 0 100 L 100 100 L 100 80 L 20 80 L 20 0 L 0 0" fill="black"/></g><g id="9_Q" transform="translate(1040 456.56759978555965) scale(1 0.018335481340032187)"><circle cx="50" cy="50" fill="purple" r="50"/><circle cx="50" cy="50" fill="white" r="32"/><path d="M 85 100 L 55 70 L 70 55 L 100 85 L 85 100" fill="purple"/></g><g id="10_H" transform="translate(1144 440.45378617662436) scale(1 0.037547977944387204)"><path d="M 0 0 L 20 0 L 20 40 L 80 40 L 80 0 L 100 0 L 100 100 L 80 100 L 80 60 L 20 60 L 20 100 L 0 100 L 0 0" fill="blue"/></g><g id="10_S" transform="translate(1144 433.9094965369087) scale(1 0.06544289639715654)"><path d="M92 26 A43 20 0 1 0 43 46 A42 23 0 1 1 9 68" fill="white" stroke="green" stroke-width="18"/></g><g id="10_Q" transform="translate(1144 427.2047528351414) scale(1 0.06704743701767303)"><circle cx="50" cy="50" fill="purple" r="50"/><circle cx="50" cy="50" fill="white" r="32"/><path d="M 85 100 L 55 70 L 70 55 L 100 85 L 85 100" fill="purple"/></g><g id="10_-" transform="translate(1144 409.1728329491644) scale(1 0.1803191988597702)"><path d="M 12.5 40 H 87.5 V 60 H 12.5 V 40" fill="black"/></g><g id="10_E" transform="translate(1144 389.8973067234702) scale(1 0.19275526225694206)"><path d="M 0 0 L 100 0 L 100 20 L 20 20 L 20 40 L 90 40 L 90 60 L 20 60 L 20 80 L 100 80 L 100 100 L 0 100 L 0 0" fill="red"/></g><g id="10_R" transform="translate(1144 370.4648887336121) scale(1 0.19432417989858086)"><path d="M 0 0 L 80 0 C 105 0 105 50 80 50 C 100 50 100 70 100 70 L 100 100 L 80 100 L 80 80 C 80 80 80 60 50 60 L 20 60 L 20 100 L 0 100 L 0 0" fill="blue"/><path d="M 20 15 L 70 15 C 80 15 80 35 70 35 L 20 35 L 20 15" fill="white"/></g><g id="10_T" transform="translate(1144 323.7379960212524) scale(1 0.467268927123597)"><path d="M 0 0 L 0 20 L 35 20 L 35 100 L 65 100 L 65 20 L 100 20 L 100 0 L 0 0" fill="green"/></g><g id="10_N" transform="translate(1144 448.2085839710631) scale(1 0.0005922039926158964)"><path d="M 0 100 L 0 0 L 20 0 L 80 75 L 80 0 L 100 0 L 100 100 L 80 100 L 20 25 L 20 100 L 0 100" fill="purple"/></g><g id="10_W" transform="translate(1144 448.26780437032465) scale(1 0.0013028228818114653)"><path d="M 0 0 L 20 0 L 30 70 L 50 30 L 70 70 L 80 0 L 100 0 L 90 100 L 70 100 L 50 65 L 30 100 L 10 100 L 0 0" fill="black"/></g><g id="10_M" transform="translate(1144 448.3980866585058) scale(1 0.0022697777490157597)"><path d="M 0 0 L 20 0 L 50 35 L 80 0 L 100 0 L 100 100 L 80 100 L 80 30 L 50 65 L 20 30 L 20 100 L 0 100 L 0 0" fill="black"/></g><g id="10_F" transform="translate(1144 448.62506443340743) scale(1 0.0022697777490157597)"><path d="M 0 0 L 100 0 L 100 20 L 20 20 L 20 40 L 80 40 L 80 60 L 20 60 L 20 100 L 0 100 L 0 0" fill="black"/></g><g id="10_A" transform="translate(1144 448.852042208309) scale(1 0.0038678194688171784)"><path d="M 0 100 L 33 0 L 66 0 L 100 100 L 75 100 L 66 75 L 33 75 L 25 100 L 0 100" fill="black"/><path d="M 41 55 L 50 25 L 58 55 L 41 55" fill="white"/></g><g id="10_L" transform="translate(1144 449.2388241551907) scale(1 0.0052123186220151855)"><path d="M 0 0 L 0 100 L 100 100 L 100 80 L 20 80 L 20 0 L 0 0" fill="black"/></g><g id="10_D" transform="translate(1144 449.76005601739223) scale(1 0.013781698889533133)"><path d="M 0 0 L 60 0 C 110 0 110 100 60 100 L 0 100 L 0 0" fill="red"/><path d="M 20 15 L 40 15 C 85 15 85 85 40 85 L 20 85 L 20 15" fill="white"/></g><g id="10_G" transform="translate(1144 451.13822590634555) scale(1 0.013781698889533133)"><path d="M 100 28 C 100 -13 0 -13 0 50 C 0 113 100 113 100 72 L 100 48 L 55 48 L 55 72 L 75 72 C 75 90 30 90 30 50 C 30 10 75 5 75 28 L 100 28" fill="green"/></g><g id="10_P" transform="translate(1144 452.5163957952988) scale(1 0.013874126146152061)"><path d="M 0 0 L 80 0 C 105 0 105 50 80 50 L 20 50 L 20 100 L 0 100 L 0 0" fill="black"/><path d="M 20 15 L 70 15 C 80 15 80 35 70 35 L 20 35 L 20 15" fill="white"/></g><g id="10_Y" transform="translate(1144 453.90380840991406) scale(1 0.014362490492091384)"><path d="M 0 0 L 20 0 L 50 45 L 80 0 L 100 0 L 60 60 L 60 100 L 40 100 L 40 60 L 0 0" fill="green"/></g><g id="10_K" transform="translate(1144 455.34005745912316) scale(1 0.01605870684728463)"><path d="M 0 0 L 20 0 L 20 40 L 75 0 L 100 0 L 50 50 L 100 100 L 75 100 L 30 65 L 20 75 L 20 100 L 0 100 L 0 0" fill="blue"/></g><g id="11_Q" transform="translate(1248 443.8188389114983) scale(1 0.003897450595647898)"><circle cx="50" cy="50" fill="purple" r="50"/><circle cx="50" cy="50" fill="white" r="32"/><path d="M 85 100 L 55 70 L 70 55 L 100 85 L 85 100" fill="purple"/></g><g id="11_-" transform="translate(1248 426.4518109075194) scale(1 0.17367028003978902)"><path d="M 12.5 40 H 87.5 V 60 H 12.5 V 40" fill="black"/></g><g id="11_T" transform="translate(1248 408.11093064354407) scale(1 0.18340880263975332)"><path d="M 0 0 L 0 20 L 35 20 L 35 100 L 65 100 L 65 20 L 100 20 L 100 0 L 0 0" fill="green"/></g><g id="11_E" transform="translate(1248 354.7396956644718) scale(1 0.5337123497907224)"><path d="M 0 0 L 100 0 L 100 20 L 20 20 L 20 40 L 90 40 L 90 60 L 20 60 L 20 80 L 100 80 L 100 100 L 0 100 L 0 0" fill="red"/></g><g id="11_Y" transform="translate(1248 274.4237454361104) scale(1 0.8031595022836145)"><path d="M 0 0 L 20 0 L 50 45 L 80 0 L 100 0 L 60 60 L 60 100 L 40 100 L 40 60 L 0 0" fill="green"/></g><g id="11_R" transform="translate(1248 448.2085839710631) scale(1 0.0013028228818114653)"><path d="M 0 0 L 80 0 C 105 0 105 50 80 50 C 100 50 100 70 100 70 L 100 100 L 80 100 L 80 80 C 80 80 80 60 50 60 L 20 60 L 20 100 L 0 100 L 0 0" fill="blue"/><path d="M 20 15 L 70 15 C 80 15 80 35 70 35 L 20 35 L 20 15" fill="white"/></g><g id="11_K" transform="translate(1248 448.33886625924424) scale(1 0.0013028228818114653)"><path d="M 0 0 L 20 0 L 20 40 L 75 0 L 100 0 L 50 50 L 100 100 L 75 100 L 30 65 L 20 75 L 20 100 L 0 100 L 0 0" fill="blue"/></g><g id="11_N" transform="translate(1248 448.4691485474254) scale(1 0.0038678194688171784)"><path d="M 0 100 L 0 0 L 20 0 L 80 75 L 80 0 L 100 0 L 100 100 L 80 100 L 20 25 L 20 100 L 0 100" fill="purple"/></g><g id="11_D" transform="translate(1248 448.85593049430713) scale(1 0.004564460960831255)"><path d="M 0 0 L 60 0 C 110 0 110 100 60 100 L 0 100 L 0 0" fill="red"/><path d="M 20 15 L 40 15 C 85 15 85 85 40 85 L 20 85 L 20 15" fill="white"/></g><g id="11_A" transform="translate(1248 449.3123765903902) scale(1 0.0052123186220151855)"><path d="M 0 100 L 33 0 L 66 0 L 100 100 L 75 100 L 66 75 L 33 75 L 25 100 L 0 100" fill="black"/><path d="M 41 55 L 50 25 L 58 55 L 41 55" fill="white"/></g><g id="11_G" transform="translate(1248 449.83360845259176) scale(1 0.006392166879205673)"><path d="M 100 28 C 100 -13 0 -13 0 50 C 0 113 100 113 100 72 L 100 48 L 55 48 L 55 72 L 75 72 C 75 90 30 90 30 50 C 30 10 75 5 75 28 L 100 28" fill="green"/></g><g id="11_L" transform="translate(1248 450.4728251405123) scale(1 0.008435955640429616)"><path d="M 0 0 L 0 100 L 100 100 L 100 80 L 20 80 L 20 0 L 0 0" fill="black"/></g><g id="11_S" transform="translate(1248 451.3164207045553) scale(1 0.01009738964155398)"><path d="M92 26 A43 20 0 1 0 43 46 A42 23 0 1 1 9 68" fill="white" stroke="green" stroke-width="18"/></g><g id="11_I" transform="translate(1248 452.32615966871066) scale(1 0.012186518515542576)"><path d="M 40 0 L 60 0 L 60 100 L 40 100 L 40 0" fill="black"/></g><g id="11_F" transform="translate(1248 453.54481152026494) scale(1 0.014219804772445312)"><path d="M 0 0 L 100 0 L 100 20 L 20 20 L 20 40 L 80 40 L 80 60 L 20 60 L 20 100 L 0 100 L 0 0" fill="black"/></g><g id="11_V" transform="translate(1248 454.96679199750946) scale(1 0.01601766060872545)"><path d="M 0 0 L 20 0 L 50 80 L 80 0 L 100 0 L 60 100 L 40 100 L 0 0" fill="black"/></g><g id="11_H" transform="translate(1248 456.568558058382) scale(1 0.016406502185737838)"><path d="M 0 0 L 20 0 L 20 40 L 80 40 L 80 0 L 100 0 L 100 100 L 80 100 L 80 60 L 20 60 L 20 100 L 0 100 L 0 0" fill="blue"/></g><g id="11_P" transform="translate(1248 458.2092082769558) scale(1 0.01846948368178425)"><path d="M 0 0 L 80 0 C 105 0 105 50 80 50 L 20 50 L 20 100 L 0 100 L 0 0" fill="black"/><path d="M 20 15 L 70 15 C 80 15 80 35 70 35 L 20 35 L 20 15" fill="white"/></g><g id="11_W" transform="translate(1248 460.0561566451342) scale(1 0.01891043914766618)"><path d="M 0 0 L 20 0 L 30 70 L 50 30 L 70 70 L 80 0 L 100 0 L 90 100 L 70 100 L 50 65 L 30 100 L 10 100 L 0 0" fill="black"/></g><g id="12_N" transform="translate(1352 441.543859103569) scale(1 0.026647248674941046)"><path d="M 0 100 L 0 0 L 20 0 L 80 75 L 80 0 L 100 0 L 100 100 L 80 100 L 20 25 L 20 100 L 0 100" fill="purple"/></g><g id="12_-" transform="translate(1352 424.7345241302028) scale(1 0.16809334973366208)"><path d="M 12.5 40 H 87.5 V 60 H 12.5 V 40" fill="black"/></g><g id="12_A" transform="translate(1352 379.81244214002925) scale(1 0.44922081990173557)"><path d="M 0 100 L 33 0 L 66 0 L 100 100 L 75 100 L 66 75 L 33 75 L 25 100 L 0 100" fill="black"/><path d="M 41 55 L 50 25 L 58 55 L 41 55" fill="white"/></g><g id="12_G" transform="translate(1352 328.8329537785944) scale(1 0.5097948836143485)"><path d="M 100 28 C 100 -13 0 -13 0 50 C 0 113 100 113 100 72 L 100 48 L 55 48 L 55 72 L 75 72 C 75 90 30 90 30 50 C 30 10 75 5 75 28 L 100 28" fill="green"/></g><g id="12_Q" transform="translate(1352 256.2693198710802) scale(1 0.7256363390751421)"><circle cx="50" cy="50" fill="purple" r="50"/><circle cx="50" cy="50" fill="white" r="32"/><path d="M 85 100 L 55 70 L 70 55 L 100 85 L 85 100" fill="purple"/></g><g id="12_D" transform="translate(1352 448.2085839710631) scale(1 0.007449581848626656)"><path d="M 0 0 L 60 0 C 110 0 110 100 60 100 L 0 100 L 0 0" fill="red"/><path d="M 20 15 L 40 15 C 85 15 85 85 40 85 L 20 85 L 20 15" fill="white"/></g><g id="12_S" transform="translate(1352 448.95354215592573) scale(1 0.009700846319913529)"><path d="M92 26 A43 20 0 1 0 43 46 A42 23 0 1 1 9 68" fill="white" stroke="green" stroke-width="18"/></g><g id="12_I" transform="translate(1352 449.9236267879171) scale(1 0.011199576443130849)"><path d="M 40 0 L 60 0 L 60 100 L 40 100 L 40 0" fill="black"/></g><g id="12_E" transform="translate(1352 451.0435844322302) scale(1 0.012215854067363474)"><path d="M 0 0 L 100 0 L 100 20 L 20 20 L 20 40 L 90 40 L 90 60 L 20 60 L 20 80 L 100 80 L 100 100 L 0 100 L 0 0" fill="red"/></g><g id="12_K" transform="translate(1352 452.26516983896653) scale(1 0.015182601690616953)"><path d="M 0 0 L 20 0 L 20 40 L 75 0 L 100 0 L 50 50 L 100 100 L 75 100 L 30 65 L 20 75 L 20 100 L 0 100 L 0 0" fill="blue"/></g><g id="12_P" transform="translate(1352 453.78343000802823) scale(1 0.01524780523565519)"><path d="M 0 0 L 80 0 C 105 0 105 50 80 50 L 20 50 L 20 100 L 0 100 L 0 0" fill="black"/><path d="M 20 15 L 70 15 C 80 15 80 35 70 35 L 20 35 L 20 15" fill="white"/></g><g id="13_-" transform="translate(1456 444.1954441969362) scale(1 0.00013139774126893605)"><path d="M 12.5 40 H 87.5 V 60 H 12.5 V 40" fill="black"/></g><g id="13_N" transform="translate(1456 442.95447873772014) scale(1 0.012409654592160525)"><path d="M 0 100 L 0 0 L 20 0 L 80 75 L 80 0 L 100 0 L 100 100 L 80 100 L 20 25 L 20 100 L 0 100" fill="purple"/></g><g id="13_L" transform="translate(1456 440.2568632479337) scale(1 0.026976154897864372)"><path d="M 0 0 L 0 100 L 100 100 L 100 80 L 20 80 L 20 0 L 0 0" fill="black"/></g><g id="13_Q" transform="translate(1456 430.24831910252954) scale(1 0.10008544145404204)"><circle cx="50" cy="50" fill="purple" r="50"/><circle cx="50" cy="50" fill="white" r="32"/><path d="M 85 100 L 55 70 L 70 55 L 100 85 L 85 100" fill="purple"/></g><g id="13_F" transform="translate(1456 362.23575008432783) scale(1 0.6801256901820171)"><path d="M 0 0 L 100 0 L 100 20 L 20 20 L 20 40 L 80 40 L 80 60 L 20 60 L 20 100 L 0 100 L 0 0" fill="black"/></g><g id="13_Y" transform="translate(1456 230.95276860516373) scale(1 1.312829814791641)"><path d="M 0 0 L 20 0 L 50 45 L 80 0 L 100 0 L 60 60 L 60 100 L 40 100 L 40 60 L 0 0" fill="green"/></g><g id="13_D" transform="translate(1456 448.2085839710631) scale(1 0.003109961332918349)"><path d="M 0 0 L 60 0 C 110 0 110 100 60 100 L 0 100 L 0 0" fill="red"/><path d="M 20 15 L 40 15 C 85 15 85 85 40 85 L 20 85 L 20 15" fill="white"/></g><g id="13_S" transform="translate(1456 448.51958010435493) scale(1 0.003109961332918349)"><path d="M92 26 A43 20 0 1 0 43 46 A42 23 0 1 1 9 68" fill="white" stroke="green" stroke-width="18"/></g><g id="13_T" transform="translate(1456 448.83057623764677) scale(1 0.003109961332918349)"><path d="M 0 0 L 0 20 L 35 20 L 35 100 L 65 100 L 65 20 L 100 20 L 100 0 L 0 0" fill="green"/></g><g id="13_E" transform="translate(1456 449.1415723709386) scale(1 0.006934362061206906)"><path d="M 0 0 L 100 0 L 100 20 L 20 20 L 20 40 L 90 40 L 90 60 L 20 60 L 20 80 L 100 80 L 100 100 L 0 100 L 0 0" fill="red"/></g><g id="13_H" transform="translate(1456 449.8350085770593) scale(1 0.016292458327855038)"><path d="M 0 0 L 20 0 L 20 40 L 80 40 L 80 0 L 100 0 L 100 100 L 80 100 L 80 60 L 20 60 L 20 100 L 0 100 L 0 0" fill="blue"/></g><g id="14_F" transform="translate(1560 422.7620058902793) scale(1 0.21446578080783818)"><path d="M 0 0 L 100 0 L 100 20 L 20 20 L 20 40 L 80 40 L 80 60 L 20 60 L 20 100 L 0 100 L 0 0" fill="black"/></g><g id="14_T" transform="translate(1560 379.3098338615922) scale(1 0.434521720286871)"><path d="M 0 0 L 0 20 L 35 20 L 35 100 L 65 100 L 65 20 L 100 20 L 100 0 L 0 0" fill="green"/></g><g id="14_-" transform="translate(1560 161.22860379694816) scale(1 2.1808123006464406)"><path d="M 12.5 40 H 87.5 V 60 H 12.5 V 40" fill="black"/></g><g id="14_S" transform="translate(1560 448.2085839710631) scale(1 0.0013028228818114653)"><path d="M92 26 A43 20 0 1 0 43 46 A42 23 0 1 1 9 68" fill="white" stroke="green" stroke-width="18"/></g><g id="14_E" transform="translate(1560 448.33886625924424) scale(1 0.003109961332918349)"><path d="M 0 0 L 100 0 L 100 20 L 20 20 L 20 40 L 90 40 L 90 60 L 20 60 L 20 80 L 100 80 L 100 100 L 0 100 L 0 0" fill="red"/></g><g id="14_P" transform="translate(1560 448.6498623925361) scale(1 0.0038678194688171784)"><path d="M 0 0 L 80 0 C 105 0 105 50 80 50 L 20 50 L 20 100 L 0 100 L 0 0" fill="black"/><path d="M 20 15 L 70 15 C 80 15 80 35 70 35 L 20 35 L 20 15" fill="white"/></g><g id="14_N" transform="translate(1560 449.0366443394178) scale(1 0.008409429156387347)"><path d="M 0 100 L 0 0 L 20 0 L 80 75 L 80 0 L 100 0 L 100 100 L 80 100 L 20 25 L 20 100 L 0 100" fill="purple"/></g><g id="14_H" transform="translate(1560 449.87758725505654) scale(1 0.01652741587788233)"><path d="M 0 0 L 20 0 L 20 40 L 80 40 L 80 0 L 100 0 L 100 100 L 80 100 L 80 60 L 20 60 L 20 100 L 0 100 L 0 0" fill="blue"/></g><g id="15_F" transform="translate(1664 44.20858397106309) scale(1 4.0)"><path d="M 0 0 L 100 0 L 100 20 L 20 20 L 20 40 L 80 40 L 80 60 L 20 60 L 20 100 L 0 100 L 0 0" fill="black"/></g><g id="axes" stroke="#000000" stroke-width="1.5"><path d="M 100 446.2085839710631 h 1672"/><path d="M 100 533.4503007652758 v -523.4503007652758"/><path d="M 100 533.4503007652758 h -5.0"/><text dominant-baseline="middle" fill="#000000" font-family="sans-serif" font-size="20pt" font-weight="normal" text-anchor="end" x="91.0" y="533.4503007652758">-1.0</text><path d="M 100 446.2085839710631 h -5.0"/><text dominant-baseline="middle" fill="#000000" font-family="sans-serif" font-size="20pt" font-weight="normal" text-anchor="end" x="91.0" y="446.2085839710631">0.0</text><path d="M 100 358.9668671768505 h -5.0"/><text dominant-baseline="middle" fill="#000000" font-family="sans-serif" font-size="20pt" font-weight="normal" text-anchor="end" x="91.0" y="358.9668671768505">1.0</text><path d="M 100 271.7251503826378 h -5.0"/><text dominant-baseline="middle" fill="#000000" font-family="sans-serif" font-size="20pt" font-weight="normal" text-anchor="end" x="91.0" y="271.7251503826378">2.0</text><path d="M 100 184.4834335884252 h -5.0"/><text dominant-baseline="middle" fill="#000000" font-family="sans-serif" font-size="20pt" font-weight="normal" text-anchor="end" x="91.0" y="184.4834335884252">3.0</text><path d="M 100 97.2417167942126 h -5.0"/><text dominant-baseline="middle" fill="#000000" font-family="sans-serif" font-size="20pt" font-weight="normal" text-anchor="end" x="91.0" y="97.2417167942126">4.0</text><path d="M 100 10.0 h -5.0"/><text dominant-baseline="middle" fill="#000000" font-family="sans-serif" font-size="20pt" font-weight="normal" text-anchor="end" x="91.0" y="10.0">5.0</text><text dominant-baseline="hanging" fill="#000000" font-family="sans-serif" font-size="20pt" font-weight="normal" text-anchor="middle" x="154.0" y="543.4503007652758">C</text><text dominant-baseline="hanging" fill="#000000" font-family="sans-serif" font-size="20pt" font-weight="normal" text-anchor="middle" x="258.0" y="543.4503007652758">A</text><text dominant-baseline="hanging" fill="#000000" font-family="sans-serif" font-size="20pt" font-weight="normal" text-anchor="middle" x="362.0" y="543.4503007652758">S</text><text dominant-baseline="hanging" fill="#000000" font-family="sans-serif" font-size="20pt" font-weight="normal" text-anchor="middle" x="466.0" y="543.4503007652758">S</text><text dominant-baseline="hanging" fill="#000000" font-family="sans-serif" font-size="20pt" font-weight="normal" text-anchor="middle" x="570.0" y="543.4503007652758">P</text><text dominant-baseline="hanging" fill="#000000" font-family="sans-serif" font-size="20pt" font-weight="normal" text-anchor="middle" x="674.0" y="543.4503007652758">Q</text><text dominant-baseline="hanging" fill="#000000" font-family="sans-serif" font-size="20pt" font-weight="normal" text-anchor="middle" x="778.0" y="543.4503007652758">T</text><text dominant-baseline="hanging" fill="#000000" font-family="sans-serif" font-size="20pt" font-weight="normal" text-anchor="middle" x="882.0" y="543.4503007652758">G</text><text dominant-baseline="hanging" fill="#000000" font-family="sans-serif" font-size="20pt" font-weight="normal" text-anchor="middle" x="986.0" y="543.4503007652758">V</text><text dominant-baseline="hanging" fill="#000000" font-family="sans-serif" font-size="20pt" font-weight="normal" text-anchor="middle" x="1090.0" y="543.4503007652758">A</text><text dominant-baseline="hanging" fill="#000000" font-family="sans-serif" font-size="20pt" font-weight="normal" text-anchor="middle" x="1194.0" y="543.4503007652758">R</text><text dominant-baseline="hanging" fill="#000000" font-family="sans-serif" font-size="20pt" font-weight="normal" text-anchor="middle" x="1298.0" y="543.4503007652758">Y</text><text dominant-baseline="hanging" fill="#000000" font-family="sans-serif" font-size="20pt" font-weight="normal" text-anchor="middle" x="1402.0" y="543.4503007652758">G</text><text dominant-baseline="hanging" fill="#000000" font-family="sans-serif" font-size="20pt" font-weight="normal" text-anchor="middle" x="1506.0" y="543.4503007652758">Y</text><text dominant-baseline="hanging" fill="#000000" font-family="sans-serif" font-size="20pt" font-weight="normal" text-anchor="middle" x="1610.0" y="543.4503007652758">T</text><text dominant-baseline="hanging" fill="#000000" font-family="sans-serif" font-size="20pt" font-weight="normal" text-anchor="middle" x="1714.0" y="543.4503007652758">F</text><text dominant-baseline="hanging" fill="#000000" font-family="sans-serif" font-size="28pt" font-weight="normal" text-anchor="middle" transform="rotate(-90, 0, 271.7251503826378)" x="0" y="271.7251503826378"/></g></svg>