<svg xmlns="http://www.w3.org/2000/svg" xmlns:ev="http://www.w3.org/2001/xml-events" xmlns:xlink="http://www.w3.org/1999/xlink" baseProfile="full" height="100%" version="1.1" viewBox="0 0 1778.000000 583.450301" width="100%"><defs/><g id="0_C" transform="translate(104 44.20858397106309) scale(1 4.0)"><path d="M 100 28 C 100 -13 0 -13 0 50 C 0 113 100 113 100 72 L 75 72 C 75 90 30 90 30 50 C 30 10 75 10 75 28 L 100 28" fill="green"/></g><g id="1_A" transform="translate(208 56.40365810450845) scale(1 3.878049258665546)"><path d="M 0 100 L 33 0 L 66 0 L 100 100 L 75 100 L 66 75 L 33 75 L 25 100 L 0 100" fill="black"/><path d="M 41 55 L 50 25 L 58 55 L 41 55" fill="white"/></g><g id="1_-" transform="translate(208 448.2085839710631) scale(1 0.017068989065148386)"><path d="M 12.5 40 H 87.5 V 60 H 12.5 V 40" fill="black"/></g><g id="2_S" transform="translate(312 56.40365810450845) scale(1 3.878049258665546)"><path d="M92 26 A43 20 0 1 0 43 46 A42 23 0 1 1 9 68" fill="white" stroke="green" stroke-width="18"/></g><g id="2_I" transform="translate(312 448.2085839710631) scale(1 0.01867888020631985)"><path d="M 40 0 L 60 0 L 60 100 L 40 100 L 40 0" fill="black"/></g><g id="2_W" transform="translate(312 450.0764719916951) scale(1 0.01867888020631985)"><path d="M 0 0 L 20 0 L 30 70 L 50 30 L 70 70 L 80 0 L 100 0 L 90 100 L 70 100 L 50 65 L 30 100 L 10 100 L 0 0" fill="black"/></g><g id="3_R" transform="translate(416 439.68219815916376) scale(1 0.04526385811899354)"><path d="M 0 0 L 80 0 C 105 0 105 50 80 50 C 100 50 100 70 100 70 L 100 100 L 80 100 L 80 80 C 80 80 80 60 50 60 L 20 60 L 20 100 L 0 100 L 0 0" fill="blue"/><path d="M 20 15 L 70 15 C 80 15 80 35 70 35 L 20 35 L 20 15" fill="white"/></g><g id="3_G" transform="translate(416 430.27877670723007) scale(1 0.09403421451933691)"><path d="M 100 28 C 100 -13 0 -13 0 50 C 0 113 100 113 100 72 L 100 48 L 55 48 L 55 72 L 75 72 C 75 90 30 90 30 50 C 30 10 75 5 75 28 L 100 28" fill="green"/></g><g id="3_S" transform="translate(416 137.37088042378014) scale(1 2.9290789628344998)"><path d="M92 26 A43 20 0 1 0 43 46 A42 23 0 1 1 9 68" fill="white" stroke="green" stroke-width="18"/></g><g id="3_A" transform="translate(416 448.2085839710631) scale(1 0.017068989065148386)"><path d="M 0 100 L 33 0 L 66 0 L 100 100 L 75 100 L 66 75 L 33 75 L 25 100 L 0 100" fill="black"/><path d="M 41 55 L 50 25 L 58 55 L 41 55" fill="white"/></g><g id="3_L" transform="translate(416 449.9154828775779) scale(1 0.01867888020631985)"><path d="M 0 0 L 0 100 L 100 100 L 100 80 L 20 80 L 20 0 L 0 0" fill="black"/></g><g id="3_M" transform="translate(416 451.7833708982099) scale(1 0.01867888020631985)"><path d="M 0 0 L 20 0 L 50 35 L 80 0 L 100 0 L 100 100 L 80 100 L 80 30 L 50 65 L 20 30 L 20 100 L 0 100 L 0 0" fill="black"/></g><g id="4_A" transform="translate(520 439.68219815916376) scale(1 0.04526385811899354)"><path d="M 0 100 L 33 0 L 66 0 L 100 100 L 75 100 L 66 75 L 33 75 L 25 100 L 0 100" fill="black"/><path d="M 41 55 L 50 25 L 58 55 L 41 55" fill="white"/></g><g id="4_G" transform="translate(520 430.27877670723007) scale(1 0.09403421451933691)"><path d="M 100 28 C 100 -13 0 -13 0 50 C 0 113 100 113 100 72 L 100 48 L 55 48 L 55 72 L 75 72 C 75 90 30 90 30 50 C 30 10 75 5 75 28 L 100 28" fill="green"/></g><g id="4_-" transform="translate(520 387.7583716772004) scale(1 0.4252040503002968)"><path d="M 12.5 40 H 87.5 V 60 H 12.5 V 40" fill="black"/></g><g id="4_P" transform="translate(520 205.46813148006814) scale(1 1.8229024019713225)"><path d="M 0 0 L 80 0 C 105 0 105 50 80 50 L 20 50 L 20 100 L 0 100 L 0 0" fill="black"/><path d="M 20 15 L 70 15 C 80 15 80 35 70 35 L 20 35 L 20 15" fill="white"/></g><g id="4_L" transform="translate(520 448.2085839710631) scale(1 0.00780122796174019)"><path d="M 0 0 L 0 100 L 100 100 L 100 80 L 20 80 L 20 0 L 0 0" fill="black"/></g><g id="4_Y" transform="translate(520 448.9887067672371) scale(1 0.017068989065148386)"><path d="M 0 0 L 20 0 L 50 45 L 80 0 L 100 0 L 60 60 L 60 100 L 40 100 L 40 60 L 0 0" fill="green"/></g><g id="4_S" transform="translate(520 450.69560567375197) scale(1 0.01867888020631985)"><path d="M92 26 A43 20 0 1 0 43 46 A42 23 0 1 1 9 68" fill="white" stroke="green" stroke-width="18"/></g><g id="5_E" transform="translate(624 439.68219815916376) scale(1 0.04526385811899354)"><path d="M 0 0 L 100 0 L 100 20 L 20 20 L 20 40 L 90 40 L 90 60 L 20 60 L 20 80 L 100 80 L 100 100 L 0 100 L 0 0" fill="red"/></g><g id="5_S" transform="translate(624 432.82219056687927) scale(1 0.06860007592284463)"><path d="M92 26 A43 20 0 1 0 43 46 A42 23 0 1 1 9 68" fill="white" stroke="green" stroke-width="18"/></g><g id="5_-" transform="translate(624 423.4187691149456) scale(1 0.09403421451933691)"><path d="M 12.5 40 H 87.5 V 60 H 12.5 V 40" fill="black"/></g><g id="5_R" transform="translate(624 405.36234793534976) scale(1 0.180564211795958)"><path d="M 0 0 L 80 0 C 105 0 105 50 80 50 C 100 50 100 70 100 70 L 100 100 L 80 100 L 80 80 C 80 80 80 60 50 60 L 20 60 L 20 100 L 0 100 L 0 0" fill="blue"/><path d="M 20 15 L 70 15 C 80 15 80 35 70 35 L 20 35 L 20 15" fill="white"/></g><g id="5_G" transform="translate(624 380.84459824131477) scale(1 0.24517749694035068)"><path d="M 100 28 C 100 -13 0 -13 0 50 C 0 113 100 113 100 72 L 100 48 L 55 48 L 55 72 L 75 72 C 75 90 30 90 30 50 C 30 10 75 5 75 28 L 100 28" fill="green"/></g><g id="5_Q" transform="translate(624 259.283999755771) scale(1 1.215605984855437)"><circle cx="50" cy="50" fill="purple" r="50"/><circle cx="50" cy="50" fill="white" r="32"/><path d="M 85 100 L 55 70 L 70 55 L 100 85 L 85 100" fill="purple"/></g><g id="5_D" transform="translate(624 448.2085839710631) scale(1 0.017068989065148386)"><path d="M 0 0 L 60 0 C 110 0 110 100 60 100 L 0 100 L 0 0" fill="red"/><path d="M 20 15 L 40 15 C 85 15 85 85 40 85 L 20 85 L 20 15" fill="white"/></g><g id="5_L" transform="translate(624 449.9154828775779) scale(1 0.01867888020631985)"><path d="M 0 0 L 0 100 L 100 100 L 100 80 L 20 80 L 20 0 L 0 0" fill="black"/></g><g id="5_Y" transform="translate(624 451.7833708982099) scale(1 0.01867888020631985)"><path d="M 0 0 L 20 0 L 50 45 L 80 0 L 100 0 L 60 60 L 60 100 L 40 100 L 40 60 L 0 0" fill="green"/></g><g id="5_V" transform="translate(624 453.6512589188419) scale(1 0.01867888020631985)"><path d="M 0 0 L 20 0 L 50 80 L 80 0 L 100 0 L 60 100 L 40 100 L 0 0" fill="black"/></g><g id="6_G" transform="translate(728 439.68219815916376) scale(1 0.04526385811899354)"><path d="M 100 28 C 100 -13 0 -13 0 50 C 0 113 100 113 100 72 L 100 48 L 55 48 L 55 72 L 75 72 C 75 90 30 90 30 50 C 30 10 75 5 75 28 L 100 28" fill="green"/></g><g id="6_S" transform="translate(728 432.82219056687927) scale(1 0.06860007592284463)"><path d="M92 26 A43 20 0 1 0 43 46 A42 23 0 1 1 9 68" fill="white" stroke="green" stroke-width="18"/></g><g id="6_L" transform="translate(728 417.80215099821055) scale(1 0.15020039568668705)"><path d="M 0 0 L 0 100 L 100 100 L 100 80 L 20 80 L 20 0 L 0 0" fill="black"/></g><g id="6_-" transform="translate(728 375.28174596818087) scale(1 0.4252040503002968)"><path d="M 12.5 40 H 87.5 V 60 H 12.5 V 40" fill="black"/></g><g id="6_T" transform="translate(728 243.9608881521118) scale(1 1.3132085781606908)"><path d="M 0 0 L 0 20 L 35 20 L 35 100 L 65 100 L 65 20 L 100 20 L 100 0 L 0 0" fill="green"/></g><g id="6_P" transform="translate(728 448.2085839710631) scale(1 0.00780122796174019)"><path d="M 0 0 L 80 0 C 105 0 105 50 80 50 L 20 50 L 20 100 L 0 100 L 0 0" fill="black"/><path d="M 20 15 L 70 15 C 80 15 80 35 70 35 L 20 35 L 20 15" fill="white"/></g><g id="6_Q" transform="translate(728 448.9887067672371) scale(1 0.017068989065148386)"><circle cx="50" cy="50" fill="purple" r="50"/><circle cx="50" cy="50" fill="white" r="32"/><path d="M 85 100 L 55 70 L 70 55 L 100 85 L 85 100" fill="purple"/></g><g id="6_R" transform="translate(728 450.69560567375197) scale(1 0.01867888020631985)"><path d="M 0 0 L 80 0 C 105 0 105 50 80 50 C 100 50 100 70 100 70 L 100 100 L 80 100 L 80 80 C 80 80 80 60 50 60 L 20 60 L 20 100 L 0 100 L 0 0" fill="blue"/><path d="M 20 15 L 70 15 C 80 15 80 35 70 35 L 20 35 L 20 15" fill="white"/></g><g id="6_W" transform="translate(728 452.5634936943839) scale(1 0.01867888020631985)"><path d="M 0 0 L 20 0 L 30 70 L 50 30 L 70 70 L 80 0 L 100 0 L 90 100 L 70 100 L 50 65 L 30 100 L 10 100 L 0 0" fill="black"/></g><g id="7_A" transform="translate(832 437.3485763787786) scale(1 0.06860007592284463)"><path d="M 0 100 L 33 0 L 66 0 L 100 100 L 75 100 L 66 75 L 33 75 L 25 100 L 0 100" fill="black"/><path d="M 41 55 L 50 25 L 58 55 L 41 55" fill="white"/></g><g id="7_G" transform="translate(832 109.43822565136787) scale(1 3.2791035072741073)"><path d="M 100 28 C 100 -13 0 -13 0 50 C 0 113 100 113 100 72 L 100 48 L 55 48 L 55 72 L 75 72 C 75 90 30 90 30 50 C 30 10 75 5 75 28 L 100 28" fill="green"/></g><g id="7_S" transform="translate(832 448.2085839710631) scale(1 0.00780122796174019)"><path d="M92 26 A43 20 0 1 0 43 46 A42 23 0 1 1 9 68" fill="white" stroke="green" stroke-width="18"/></g><g id="7_N" transform="translate(832 448.9887067672371) scale(1 0.01867888020631985)"><path d="M 0 100 L 0 0 L 20 0 L 80 75 L 80 0 L 100 0 L 100 100 L 80 100 L 20 25 L 20 100 L 0 100" fill="purple"/></g><g id="7_-" transform="translate(832 450.8565947878691) scale(1 0.01867888020631985)"><path d="M 12.5 40 H 87.5 V 60 H 12.5 V 40" fill="black"/></g><g id="8_I" transform="translate(936 432.07832856241936) scale(1 0.12130255408643748)"><path d="M 40 0 L 60 0 L 60 100 L 40 100 L 40 0" fill="black"/></g><g id="8_A" transform="translate(936 414.02190738282354) scale(1 0.180564211795958)"><path d="M 0 100 L 33 0 L 66 0 L 100 100 L 75 100 L 66 75 L 33 75 L 25 100 L 0 100" fill="black"/><path d="M 41 55 L 50 25 L 58 55 L 41 55" fill="white"/></g><g id="8_T" transform="translate(936 392.79587295053005) scale(1 0.21226034432293492)"><path d="M 0 0 L 0 20 L 35 20 L 35 100 L 65 100 L 65 20 L 100 20 L 100 0 L 0 0" fill="green"/></g><g id="8_-" transform="translate(936 338.45106131362314) scale(1 0.5434481163690692)"><path d="M 12.5 40 H 87.5 V 60 H 12.5 V 40" fill="black"/></g><g id="8_V" transform="translate(936 267.37559132320825) scale(1 0.7107546999041487)"><path d="M 0 0 L 20 0 L 50 80 L 80 0 L 100 0 L 60 100 L 40 100 L 0 0" fill="black"/></g><g id="8_L" transform="translate(936 448.2085839710631) scale(1 0.017068989065148386)"><path d="M 0 0 L 0 100 L 100 100 L 100 80 L 20 80 L 20 0 L 0 0" fill="black"/></g><g id="8_M" transform="translate(936 449.9154828775779) scale(1 0.017068989065148386)"><path d="M 0 0 L 20 0 L 50 35 L 80 0 L 100 0 L 100 100 L 80 100 L 80 30 L 50 65 L 20 30 L 20 100 L 0 100 L 0 0" fill="black"/></g><g id="8_Y" transform="translate(936 451.6223817840928) scale(1 0.017068989065148386)"><path d="M 0 0 L 20 0 L 50 45 L 80 0 L 100 0 L 60 60 L 60 100 L 40 100 L 40 60 L 0 0" fill="green"/></g><g id="8_E" transform="translate(936 453.3292806906076) scale(1 0.01867888020631985)"><path d="M 0 0 L 100 0 L 100 20 L 20 20 L 20 40 L 90 40 L 90 60 L 20 60 L 20 80 L 100 80 L 100 100 L 0 100 L 0 0" fill="red"/></g><g id="8_W" transform="translate(936 455.1971687112396) scale(1 0.01867888020631985)"><path d="M 0 0 L 20 0 L 30 70 L 50 30 L 70 70 L 80 0 L 100 0 L 90 100 L 70 100 L 50 65 L 30 100 L 10 100 L 0 0" fill="black"/></g><g id="9_Q" transform="translate(1040 443.5646275145945) scale(1 0.006439564564685842)"><circle cx="50" cy="50" fill="purple" r="50"/><circle cx="50" cy="50" fill="white" r="32"/><path d="M 85 100 L 55 70 L 70 55 L 100 85 L 85 100" fill="purple"/></g><g id="9_V" transform="translate(1040 441.126800567133) scale(1 0.024378269474615258)"><path d="M 0 0 L 20 0 L 50 80 L 80 0 L 100 0 L 60 100 L 40 100 L 0 0" fill="black"/></g><g id="9_-" transform="translate(1040 438.68897361967146) scale(1 0.024378269474615258)"><path d="M 12.5 40 H 87.5 V 60 H 12.5 V 40" fill="black"/></g><g id="9_T" transform="translate(1040 429.28555216773776) scale(1 0.09403421451933691)"><path d="M 0 0 L 0 20 L 35 20 L 35 100 L 65 100 L 65 20 L 100 20 L 100 0 L 0 0" fill="green"/></g><g id="9_S" transform="translate(1040 390.5494893876105) scale(1 0.38736062780127267)"><path d="M92 26 A43 20 0 1 0 43 46 A42 23 0 1 1 9 68" fill="white" stroke="green" stroke-width="18"/></g><g id="9_A" transform="translate(1040 264.1285410167641) scale(1 1.2642094837084645)"><path d="M 0 100 L 33 0 L 66 0 L 100 100 L 75 100 L 66 75 L 33 75 L 25 100 L 0 100" fill="black"/><path d="M 41 55 L 50 25 L 58 55 L 41 55" fill="white"/></g><g id="9_D" transform="translate(1040 448.2085839710631) scale(1 0.00780122796174019)"><path d="M 0 0 L 60 0 C 110 0 110 100 60 100 L 0 100 L 0 0" fill="red"/><path d="M 20 15 L 40 15 C 85 15 85 85 40 85 L 20 85 L 20 15" fill="white"/></g><g id="9_P" transform="translate(1040 448.9887067672371) scale(1 0.00780122796174019)"><path d="M 0 0 L 80 0 C 105 0 105 50 80 50 L 20 50 L 20 100 L 0 100 L 0 0" fill="black"/><path d="M 20 15 L 70 15 C 80 15 80 35 70 35 L 20 35 L 20 15" fill="white"/></g><g id="9_G" transform="translate(1040 449.76882956341115) scale(1 0.017068989065148386)"><path d="M 100 28 C 100 -13 0 -13 0 50 C 0 113 100 113 100 72 L 100 48 L 55 48 L 55 72 L 75 72 C 75 90 30 90 30 50 C 30 10 75 5 75 28 L 100 28" fill="green"/></g><g id="9_N" transform="translate(1040 451.47572846992597) scale(1 0.01867888020631985)"><path d="M 0 100 L 0 0 L 20 0 L 80 75 L 80 0 L 100 0 L 100 100 L 80 100 L 20 25 L 20 100 L 0 100" fill="purple"/></g><g id="9_E" transform="translate(1040 453.34361649055796) scale(1 0.01867888020631985)"><path d="M 0 0 L 100 0 L 100 20 L 20 20 L 20 40 L 90 40 L 90 60 L 20 60 L 20 80 L 100 80 L 100 100 L 0 100 L 0 0" fill="red"/></g><g id="10_Q" transform="translate(1144 443.5646275145945) scale(1 0.006439564564685842)"><circle cx="50" cy="50" fill="purple" r="50"/><circle cx="50" cy="50" fill="white" r="32"/><path d="M 85 100 L 55 70 L 70 55 L 100 85 L 85 100" fill="purple"/></g><g id="10_E" transform="translate(1144 428.5445879459258) scale(1 0.15020039568668705)"><path d="M 0 0 L 100 0 L 100 20 L 20 20 L 20 40 L 90 40 L 90 60 L 20 60 L 20 80 L 100 80 L 100 100 L 0 100 L 0 0" fill="red"/></g><g id="10_S" transform="translate(1144 410.48816676633) scale(1 0.180564211795958)"><path d="M92 26 A43 20 0 1 0 43 46 A42 23 0 1 1 9 68" fill="white" stroke="green" stroke-width="18"/></g><g id="10_-" transform="translate(1144 392.43174558673417) scale(1 0.180564211795958)"><path d="M 12.5 40 H 87.5 V 60 H 12.5 V 40" fill="black"/></g><g id="10_T" transform="translate(1144 342.1028951019055) scale(1 0.5032885048482872)"><path d="M 0 0 L 0 20 L 35 20 L 35 100 L 65 100 L 65 20 L 100 20 L 100 0 L 0 0" fill="green"/></g><g id="10_R" transform="translate(1144 283.6724042604734) scale(1 0.5843049084143205)"><path d="M 0 0 L 80 0 C 105 0 105 50 80 50 C 100 50 100 70 100 70 L 100 100 L 80 100 L 80 80 C 80 80 80 60 50 60 L 20 60 L 20 100 L 0 100 L 0 0" fill="blue"/><path d="M 20 15 L 70 15 C 80 15 80 35 70 35 L 20 35 L 20 15" fill="white"/></g><g id="10_H" transform="translate(1144 448.2085839710631) scale(1 0.00780122796174019)"><path d="M 0 0 L 20 0 L 20 40 L 80 40 L 80 0 L 100 0 L 100 100 L 80 100 L 80 60 L 20 60 L 20 100 L 0 100 L 0 0" fill="blue"/></g><g id="10_N" transform="translate(1144 448.9887067672371) scale(1 0.017068989065148386)"><path d="M 0 100 L 0 0 L 20 0 L 80 75 L 80 0 L 100 0 L 100 100 L 80 100 L 20 25 L 20 100 L 0 100" fill="purple"/></g><g id="10_G" transform="translate(1144 450.69560567375197) scale(1 0.017068989065148386)"><path d="M 100 28 C 100 -13 0 -13 0 50 C 0 113 100 113 100 72 L 100 48 L 55 48 L 55 72 L 75 72 C 75 90 30 90 30 50 C 30 10 75 5 75 28 L 100 28" fill="green"/></g><g id="10_Y" transform="translate(1144 452.4025045802668) scale(1 0.01867888020631985)"><path d="M 0 0 L 20 0 L 50 45 L 80 0 L 100 0 L 60 60 L 60 100 L 40 100 L 40 60 L 0 0" fill="green"/></g><g id="11_T" transform="translate(1248 426.1521627914673) scale(1 0.180564211795958)"><path d="M 0 0 L 0 20 L 35 20 L 35 100 L 65 100 L 65 20 L 100 20 L 100 0 L 0 0" fill="green"/></g><g id="11_-" transform="translate(1248 408.09574161187146) scale(1 0.180564211795958)"><path d="M 12.5 40 H 87.5 V 60 H 12.5 V 40" fill="black"/></g><g id="11_E" transform="translate(1248 373.0578816300111) scale(1 0.3503785998186043)"><path d="M 0 0 L 100 0 L 100 20 L 20 20 L 20 40 L 90 40 L 90 60 L 20 60 L 20 80 L 100 80 L 100 100 L 0 100 L 0 0" fill="red"/></g><g id="11_Y" transform="translate(1248 246.63693325916464) scale(1 1.2642094837084645)"><path d="M 0 0 L 20 0 L 50 45 L 80 0 L 100 0 L 60 60 L 60 100 L 40 100 L 40 60 L 0 0" fill="green"/></g><g id="11_Q" transform="translate(1248 448.2085839710631) scale(1 0.00780122796174019)"><circle cx="50" cy="50" fill="purple" r="50"/><circle cx="50" cy="50" fill="white" r="32"/><path d="M 85 100 L 55 70 L 70 55 L 100 85 L 85 100" fill="purple"/></g><g id="11_H" transform="translate(1248 448.9887067672371) scale(1 0.017068989065148386)"><path d="M 0 0 L 20 0 L 20 40 L 80 40 L 80 0 L 100 0 L 100 100 L 80 100 L 80 60 L 20 60 L 20 100 L 0 100 L 0 0" fill="blue"/></g><g id="11_P" transform="translate(1248 450.69560567375197) scale(1 0.017068989065148386)"><path d="M 0 0 L 80 0 C 105 0 105 50 80 50 L 20 50 L 20 100 L 0 100 L 0 0" fill="black"/><path d="M 20 15 L 70 15 C 80 15 80 35 70 35 L 20 35 L 20 15" fill="white"/></g><g id="11_W" transform="translate(1248 452.4025045802668) scale(1 0.017068989065148386)"><path d="M 0 0 L 20 0 L 30 70 L 50 30 L 70 70 L 80 0 L 100 0 L 90 100 L 70 100 L 50 65 L 30 100 L 10 100 L 0 0" fill="black"/></g><g id="11_F" transform="translate(1248 454.1094034867816) scale(1 0.01867888020631985)"><path d="M 0 0 L 100 0 L 100 20 L 20 20 L 20 40 L 80 40 L 80 60 L 20 60 L 20 100 L 0 100 L 0 0" fill="black"/></g><g id="11_V" transform="translate(1248 455.9772915074136) scale(1 0.01867888020631985)"><path d="M 0 0 L 20 0 L 50 80 L 80 0 L 100 0 L 60 100 L 40 100 L 0 0" fill="black"/></g><g id="12_E" transform="translate(1352 443.5646275145945) scale(1 0.006439564564685842)"><path d="M 0 0 L 100 0 L 100 20 L 20 20 L 20 40 L 90 40 L 90 60 L 20 60 L 20 80 L 100 80 L 100 100 L 0 100 L 0 0" fill="red"/></g><g id="12_-" transform="translate(1352 439.0382417026952) scale(1 0.04526385811899354)"><path d="M 12.5 40 H 87.5 V 60 H 12.5 V 40" fill="black"/></g><g id="12_A" transform="translate(1352 400.30217892256786) scale(1 0.38736062780127267)"><path d="M 0 100 L 33 0 L 66 0 L 100 100 L 75 100 L 66 75 L 33 75 L 25 100 L 0 100" fill="black"/><path d="M 41 55 L 50 25 L 58 55 L 41 55" fill="white"/></g><g id="12_Q" transform="translate(1352 320.49954130513925) scale(1 0.7980263761742865)"><circle cx="50" cy="50" fill="purple" r="50"/><circle cx="50" cy="50" fill="white" r="32"/><path d="M 85 100 L 55 70 L 70 55 L 100 85 L 85 100" fill="purple"/></g><g id="12_G" transform="translate(1352 217.9617871854323) scale(1 1.0253775411970694)"><path d="M 100 28 C 100 -13 0 -13 0 50 C 0 113 100 113 100 72 L 100 48 L 55 48 L 55 72 L 75 72 C 75 90 30 90 30 50 C 30 10 75 5 75 28 L 100 28" fill="green"/></g><g id="13_Q" transform="translate(1456 443.5646275145945) scale(1 0.006439564564685842)"><circle cx="50" cy="50" fill="purple" r="50"/><circle cx="50" cy="50" fill="white" r="32"/><path d="M 85 100 L 55 70 L 70 55 L 100 85 L 85 100" fill="purple"/></g><g id="13_N" transform="translate(1456 441.126800567133) scale(1 0.024378269474615258)"><path d="M 0 100 L 0 0 L 20 0 L 80 75 L 80 0 L 100 0 L 100 100 L 80 100 L 20 25 L 20 100 L 0 100" fill="purple"/></g><g id="13_F" transform="translate(1456 394.74070443921516) scale(1 0.46386096127917803)"><path d="M 0 0 L 100 0 L 100 20 L 20 20 L 20 40 L 80 40 L 80 60 L 20 60 L 20 100 L 0 100 L 0 0" fill="black"/></g><g id="13_Y" transform="translate(1456 191.16809465612013) scale(1 2.0357260978309504)"><path d="M 0 0 L 20 0 L 50 45 L 80 0 L 100 0 L 60 60 L 60 100 L 40 100 L 40 60 L 0 0" fill="green"/></g><g id="13_H" transform="translate(1456 448.2085839710631) scale(1 0.017068989065148386)"><path d="M 0 0 L 20 0 L 20 40 L 80 40 L 80 0 L 100 0 L 100 100 L 80 100 L 80 60 L 20 60 L 20 100 L 0 100 L 0 0" fill="blue"/></g><g id="13_L" transform="translate(1456 449.9154828775779) scale(1 0.017068989065148386)"><path d="M 0 0 L 0 100 L 100 100 L 100 80 L 20 80 L 20 0 L 0 0" fill="black"/></g><g id="13_-" transform="translate(1456 451.6223817840928) scale(1 0.017068989065148386)"><path d="M 12.5 40 H 87.5 V 60 H 12.5 V 40" fill="black"/></g><g id="14_F" transform="translate(1560 441.77075702360156) scale(1 0.024378269474615258)"><path d="M 0 0 L 100 0 L 100 20 L 20 20 L 20 40 L 80 40 L 80 60 L 20 60 L 20 100 L 0 100 L 0 0" fill="black"/></g><g id="14_T" transform="translate(1560 339.23300290389466) scale(1 1.0253775411970694)"><path d="M 0 0 L 0 20 L 35 20 L 35 100 L 65 100 L 65 20 L 100 20 L 100 0 L 0 0" fill="green"/></g><g id="14_-" transform="translate(1560 151.66638360094495) scale(1 1.875666193029497)"><path d="M 12.5 40 H 87.5 V 60 H 12.5 V 40" fill="black"/></g><g id="15_F" transform="translate(1664 44.20858397106309) scale(1 4.0)"><path d="M 0 0 L 100 0 L 100 20 L 20 20 L 20 40 L 80 40 L 80 60 L 20 60 L 20 100 L 0 100 L 0 0" fill="black"/></g><g id="axes" stroke="#000000" stroke-width="1.5"><path d="M 100 446.2085839710631 h 1672"/><path d="M 100 533.4503007652758 v -523.4503007652758"/><path d="M 100 533.4503007652758 h -5.0"/><text dominant-baseline="middle" fill="#000000" font-family="sans-serif" font-size="20pt" font-weight="normal" text-anchor="end" x="91.0" y="533.4503007652758">-1.0</text><path d="M 100 446.2085839710631 h -5.0"/><text dominant-baseline="middle" fill="#000000" font-family="sans-serif" font-size="20pt" font-weight="normal" text-anchor="end" x="91.0" y="446.2085839710631">0.0</text><path d="M 100 358.9668671768505 h -5.0"/><text dominant-baseline="middle" fill="#000000" font-family="sans-serif" font-size="20pt" font-weight="normal" text-anchor="end" x="91.0" y="358.9668671768505">1.0</text><path d="M 100 271.7251503826378 h -5.0"/><text dominant-baseline="middle" fill="#000000" font-family="sans-serif" font-size="20pt" font-weight="normal" text-anchor="end" x="91.0" y="271.7251503826378">2.0</text><path d="M 100 184.4834335884252 h -5.0"/><text dominant-baseline="middle" fill="#000000" font-family="sans-serif" font-size="20pt" font-weight="normal" text-anchor="end" x="91.0" y="184.4834335884252">3.0</text><path d="M 100 97.2417167942126 h -5.0"/><text dominant-baseline="middle" fill="#000000" font-family="sans-serif" font-size="20pt" font-weight="normal" text-anchor="end" x="91.0" y="97.2417167942126">4.0</text><path d="M 100 10.0 h -5.0"/><text dominant-baseline="middle" fill="#000000" font-family="sans-serif" font-size="20pt" font-weight="normal" text-anchor="end" x="91.0" y="10.0">5.0</text><text dominant-baseline="hanging" fill="#000000" font-family="sans-serif" font-size="20pt" font-weight="normal" text-anchor="middle" x="154.0" y="543.4503007652758">C</text><text dominant-baseline="hanging" fill="#000000" font-family="sans-serif" font-size="20pt" font-weight="normal" text-anchor="middle" x="258.0" y="543.4503007652758">A</text><text dominant-baseline="hanging" fill="#000000" font-family="sans-serif" font-size="20pt" font-weight="normal" text-anchor="middle" x="362.0" y="543.4503007652758">S</text><text dominant-baseline="hanging" fill="#000000" font-family="sans-serif" font-size="20pt" font-weight="normal" text-anchor="middle" x="466.0" y="543.4503007652758">S</text><text dominant-baseline="hanging" fill="#000000" font-family="sans-serif" font-size="20pt" font-weight="normal" text-anchor="middle" x="570.0" y="543.4503007652758">P</text><text dominant-baseline="hanging" fill="#000000" font-family="sans-serif" font-size="20pt" font-weight="normal" text-anchor="middle" x="674.0" y="543.4503007652758">Q</text><text dominant-baseline="hanging" fill="#000000" font-family="sans-serif" font-size="20pt" font-weight="normal" text-anchor="middle" x="778.0" y="543.4503007652758">T</text><text dominant-baseline="hanging" fill="#000000" font-family="sans-serif" font-size="20pt" font-weight="normal" text-anchor="middle" x="882.0" y="543.4503007652758">G</text><text dominant-baseline="hanging" fill="#000000" font-family="sans-serif" font-size="20pt" font-weight="normal" text-anchor="middle" x="986.0" y="543.4503007652758">V</text><text dominant-baseline="hanging" fill="#000000" font-family="sans-serif" font-size="20pt" font-weight="normal" text-anchor="middle" x="1090.0" y="543.4503007652758">A</text><text dominant-baseline="hanging" fill="#000000" font-family="sans-serif" font-size="20pt" font-weight="normal" text-anchor="middle" x="1194.0" y="543.4503007652758">R</text><text dominant-baseline="hanging" fill="#000000" font-family="sans-serif" font-size="20pt" font-weight="normal" text-anchor="middle" x="1298.0" y="543.4503007652758">Y</text><text dominant-baseline="hanging" fill="#000000" font-family="sans-serif" font-size="20pt" font-weight="normal" text-anchor="middle" x="1402.0" y="543.4503007652758">G</text><text dominant-baseline="hanging" fill="#000000" font-family="sans-serif" font-size="20pt" font-weight="normal" text-anchor="middle" x="1506.0" y="543.4503007652758">Y</text><text dominant-baseline="hanging" fill="#000000" font-family="sans-serif" font-size="20pt" font-weight="normal" text-anchor="middle" x="1610.0" y="543.4503007652758">T</text><text dominant-baseline="hanging" fill="#000000" font-family="sans-serif" font-size="20pt" font-weight="normal" text-anchor="middle" x="1714.0" y="543.4503007652758">F</text><text dominant-baseline="hanging" fill="#000000" font-family="sans-serif" font-size="28pt" font-weight="normal" text-anchor="middle" transform="rotate(-90, 0, 271.7251503826378)" x="0" y="271.7251503826378"/></g></svg>